<svg xmlns="http://www.w3.org/2000/svg" viewBox="0 0 616.83 766.59"><defs><style>.cls-1{fill:#fff;}</style></defs><g id="Capa_2" data-name="Capa 2"><g id="Capa_1-2" data-name="Capa 1"><path class="cls-1" d="M100.34,432h85.3a11.23,11.23,0,1,0,0-22.46h-85.3a11.23,11.23,0,0,0,0,22.46Z"/><path class="cls-1" d="M605.6,500.8a11.23,11.23,0,0,0,11.23-11.23V439.11a19.68,19.68,0,0,0-9.37-16.83l-54-33.45V15.72A15.74,15.74,0,0,0,537.73,0H118.49a15.74,15.74,0,0,0-15.72,15.72V51.39H67.11A15.74,15.74,0,0,0,51.39,67.11v35.66H15.72A15.74,15.74,0,0,0,0,118.5V691.89a15.74,15.74,0,0,0,15.72,15.72H98.8a11.23,11.23,0,1,0,0-22.45H22.46V125.23H428.22V331.81L360,374.09a11.21,11.21,0,0,0-9.62-17h-250a11.23,11.23,0,1,0,0,22.46h250c.29,0,.58,0,.87,0l-48.42,30H221.57a11.23,11.23,0,0,0,0,22.46h52.54a19.91,19.91,0,0,0-1.33,7.15V461.9H100.34a11.23,11.23,0,1,0,0,22.46H272.78V514.3H100.34a11.23,11.23,0,1,0,0,22.46H272.78v26.47c0,1.17,0,2.32,0,3.48H100.34a11.23,11.23,0,0,0,0,22.46H275.26A136.08,136.08,0,0,0,320.68,667L342,685.16H151.2a11.23,11.23,0,1,0,0,22.45H368.34L432,761.84a19.72,19.72,0,0,0,25.67,0L568.92,667a136.12,136.12,0,0,0,47.91-103.77V542a11.23,11.23,0,0,0-22.46,0v21.25a113.72,113.72,0,0,1-40,86.68L444.8,743.27,335.25,649.91a113.73,113.73,0,0,1-40-86.68V440.59L444.8,348l149.57,92.64v49A11.23,11.23,0,0,0,605.6,500.8ZM450.68,325.92V118.5A15.74,15.74,0,0,0,435,102.77H73.84V73.85H479.61v78.87a11.23,11.23,0,0,0,22.46,0V67.11a15.74,15.74,0,0,0-15.72-15.72H125.23V22.46H531V374.92L502.07,357V205.12a11.23,11.23,0,0,0-22.46,0v138L455.22,328a19.94,19.94,0,0,0-4.54-2.07Z"/><path class="cls-1" d="M341.94,525.13A102.86,102.86,0,1,0,444.8,422.27,103,103,0,0,0,341.94,525.13Zm183.27,0a80.41,80.41,0,1,1-80.41-80.4A80.5,80.5,0,0,1,525.21,525.13Z"/><path class="cls-1" d="M421.74,514.05a11.23,11.23,0,0,0-15.88,15.88L433,557a11.23,11.23,0,0,0,15.88,0l42-42A11.23,11.23,0,0,0,475,499.15L440.9,533.2Z"/></g></g></svg>