<svg width="100" height="100" viewBox="0 0 100 100" fill="none" xmlns="http://www.w3.org/2000/svg">
<path d="M30.0001 14C29.4501 14 29.0001 14.45 29.0001 15V29H15.0001C14.4471 29 14.0001 29.447 14.0001 30C14.0001 30.553 14.4471 31 15.0001 31H29.0001V31.3438L26.172 34.1719C25.9239 34.4199 25.7273 34.7033 25.5548 35H15.0001C14.4501 35 14.0001 35.45 14.0001 36C14.0001 36.55 14.4501 37 15.0001 37H25.0001C25.0001 38.0648 25.4188 39.0761 26.172 39.8281C26.9256 40.5818 27.9362 41 29.0001 41V46H28.6016C26.0195 46 23.5931 47.2486 22.0919 49.3496L19.4845 53H15.0001C14.8676 52.9981 14.736 53.0226 14.613 53.072C14.4901 53.1214 14.3781 53.1948 14.2838 53.2878C14.1894 53.3809 14.1145 53.4918 14.0633 53.614C14.0122 53.7363 13.9858 53.8675 13.9858 54C13.9858 54.1325 14.0122 54.2637 14.0633 54.386C14.1145 54.5082 14.1894 54.6191 14.2838 54.7122C14.3781 54.8052 14.4901 54.8786 14.613 54.928C14.736 54.9774 14.8676 55.0019 15.0001 55H20.5157L23.7208 50.5117C24.8476 48.9355 26.6643 48 28.6016 48H29.0001V53.832C28.9754 53.9767 28.9829 54.125 29.022 54.2664C29.0611 54.4079 29.1308 54.539 29.2263 54.6504C29.3217 54.7619 29.4405 54.851 29.5742 54.9114C29.708 54.9718 29.8534 55.0021 30.0001 55H42.0001C43.1167 55 44.0001 55.8833 44.0001 57C44.0001 58.1167 43.1167 59 42.0001 59C41.7471 58.9967 41.5023 59.0893 41.3149 59.2593C41.1276 59.4293 41.0116 59.6639 40.9903 59.916C40.9874 59.9491 40.9861 59.9824 40.9864 60.0156C40.9884 60.1488 41.0169 60.2803 41.0704 60.4023C41.0839 60.433 41.0988 60.463 41.1153 60.4922C41.1894 60.6234 41.2922 60.7361 41.416 60.8221C41.5397 60.908 41.6813 60.9648 41.8302 60.9883C41.8864 60.997 41.9432 61.0009 42.0001 61H43.0001C44.1167 61 45.0001 61.8833 45.0001 63C45.0001 64.1167 44.1167 65 43.0001 65H42.0001C41.7471 64.9967 41.5023 65.0893 41.3149 65.2593C41.1276 65.4293 41.0116 65.6639 40.9903 65.916C40.9874 65.9491 40.9861 65.9824 40.9864 66.0156C40.9884 66.1488 41.0169 66.2803 41.0704 66.4023C41.0839 66.433 41.0988 66.463 41.1153 66.4922C41.1894 66.6234 41.2922 66.7361 41.416 66.8221C41.5397 66.908 41.6813 66.9648 41.8302 66.9883C41.8864 66.997 41.9432 67.0009 42.0001 67C43.1167 67 44.0001 67.8833 44.0001 69C44.0001 70.1167 43.1167 71 42.0001 71H41.0001C40.9192 70.9994 40.8385 71.0085 40.7598 71.0273C40.6723 71.0215 40.589 71 40.5001 71C40.3676 70.9981 40.236 71.0226 40.113 71.072C39.9901 71.1214 39.8782 71.1948 39.7838 71.2878C39.6894 71.3809 39.6145 71.4918 39.5633 71.614C39.5122 71.7363 39.4858 71.8675 39.4858 72C39.4858 72.1325 39.5122 72.2637 39.5633 72.386C39.6145 72.5082 39.6894 72.6191 39.7838 72.7122C39.8782 72.8052 39.9901 72.8786 40.113 72.928C40.236 72.9774 40.3676 73.0019 40.5001 73C41.6522 73 42.5592 73.9361 42.4981 75.1094C42.443 76.1628 41.4563 77 40.3302 77H22.0001C20.8834 77 20.0001 76.1167 20.0001 75C20.0001 74.7348 19.8947 74.4805 19.7072 74.2929C19.5196 74.1054 19.2653 74 19.0001 74H15.0001C14.8676 73.9981 14.736 74.0226 14.613 74.072C14.4901 74.1214 14.3781 74.1948 14.2838 74.2878C14.1894 74.3809 14.1145 74.4918 14.0633 74.614C14.0122 74.7363 13.9858 74.8675 13.9858 75C13.9858 75.1325 14.0122 75.2637 14.0633 75.386C14.1145 75.5082 14.1894 75.6191 14.2838 75.7122C14.3781 75.8052 14.4901 75.8786 14.613 75.928C14.736 75.9774 14.8676 76.0019 15.0001 76H18.2032C18.6596 77.7064 20.1565 79 22.0001 79H29.0001V85C29.0001 85.553 29.4471 86 30.0001 86C30.5531 86 31.0001 85.553 31.0001 85V79H35.0001V85C35.0001 85.553 35.4471 86 36.0001 86C36.5531 86 37.0001 85.553 37.0001 85V79H40.3302C42.454 79 44.3794 77.4055 44.4942 75.2129C44.545 74.2368 44.2229 73.3382 43.6778 72.6152C45.0421 71.9759 46.0001 70.5973 46.0001 69C46.0001 68.0161 45.6258 67.1231 45.0294 66.4238C46.2012 65.7237 47.0001 64.4548 47.0001 63C47.0001 61.5452 46.2012 60.2763 45.0294 59.5762C45.6258 58.8769 46.0001 57.9839 46.0001 57C46.0001 54.8027 44.1974 53 42.0001 53H37.0001V37H59.004C59.0138 38.0509 59.4277 39.046 60.172 39.7891C60.9255 40.5426 61.9353 40.9629 63.0001 40.9629V53H58.0001C55.8027 53 54.0001 54.8027 54.0001 57C54.0001 57.9839 54.3744 58.8769 54.9708 59.5762C53.799 60.2763 53.0001 61.5452 53.0001 63C53.0001 64.4548 53.799 65.7237 54.9708 66.4238C54.3744 67.1231 54.0001 68.0161 54.0001 69C54.0001 70.5973 54.9581 71.9759 56.3223 72.6152C55.7772 73.3382 55.4552 74.2368 55.5059 75.2129C55.6208 77.4055 57.5461 79 59.67 79H63.0001V84.918C63.0001 85.471 63.4471 85.918 64.0001 85.918C64.5531 85.918 65.0001 85.471 65.0001 84.918V79H69.0001V84.918C69.0001 85.471 69.4471 85.918 70.0001 85.918C70.5531 85.918 71.0001 85.471 71.0001 84.918V79H78.0001C79.8437 79 81.3406 77.7064 81.797 76H85.0001C85.1326 76.0019 85.2642 75.9774 85.3871 75.928C85.5101 75.8786 85.622 75.8052 85.7164 75.7122C85.8108 75.6191 85.8857 75.5082 85.9368 75.386C85.988 75.2637 86.0143 75.1325 86.0143 75C86.0143 74.8675 85.988 74.7363 85.9368 74.614C85.8857 74.4918 85.8108 74.3809 85.7164 74.2878C85.622 74.1948 85.5101 74.1214 85.3871 74.072C85.2642 74.0226 85.1326 73.9981 85.0001 74H81.0001C80.7349 74 80.4805 74.1054 80.293 74.2929C80.1055 74.4805 80.0001 74.7348 80.0001 75C80.0001 76.1167 79.1167 77 78.0001 77H59.67C58.5439 77 57.5572 76.1628 57.502 75.1094C57.441 73.9361 58.348 73 59.5001 73C59.6326 73.0019 59.7642 72.9774 59.8871 72.928C60.0101 72.8786 60.122 72.8052 60.2164 72.7122C60.3108 72.6191 60.3857 72.5082 60.4368 72.386C60.488 72.2637 60.5143 72.1325 60.5143 72C60.5143 71.8675 60.488 71.7363 60.4368 71.614C60.3857 71.4918 60.3108 71.3809 60.2164 71.2878C60.122 71.1948 60.0101 71.1214 59.8871 71.072C59.7642 71.0226 59.6326 70.9981 59.5001 71C59.4118 71 59.3292 71.0216 59.2423 71.0273C59.163 71.0084 59.0816 70.9992 59.0001 71H58.0001C56.8834 71 56.0001 70.1167 56.0001 69C56.0001 67.8833 56.8834 67 58.0001 67C58.1326 67.0019 58.2642 66.9774 58.3871 66.928C58.5101 66.8786 58.622 66.8052 58.7164 66.7122C58.8108 66.6191 58.8857 66.5082 58.9368 66.386C58.988 66.2637 59.0143 66.1325 59.0143 66C59.0143 65.8675 58.988 65.7363 58.9368 65.614C58.8857 65.4918 58.8108 65.3809 58.7164 65.2878C58.622 65.1948 58.5101 65.1214 58.3871 65.072C58.2642 65.0226 58.1326 64.9981 58.0001 65H57.0001C55.8834 65 55.0001 64.1167 55.0001 63C55.0001 61.8833 55.8834 61 57.0001 61H58.0001C58.1326 61.0019 58.2642 60.9774 58.3871 60.928C58.5101 60.8786 58.622 60.8052 58.7164 60.7122C58.8108 60.6191 58.8857 60.5082 58.9368 60.386C58.988 60.2637 59.0143 60.1325 59.0143 60C59.0143 59.8675 58.988 59.7363 58.9368 59.614C58.8857 59.4918 58.8108 59.3809 58.7164 59.2878C58.622 59.1948 58.5101 59.1214 58.3871 59.072C58.2642 59.0226 58.1326 58.9981 58.0001 59C56.8834 59 56.0001 58.1167 56.0001 57C56.0001 55.8833 56.8834 55 58.0001 55H70.0001C70.1458 55.0018 70.2902 54.9718 70.4231 54.9119C70.5561 54.8521 70.6743 54.7639 70.7696 54.6536C70.8648 54.5432 70.9348 54.4134 70.9746 54.2732C71.0145 54.133 71.0231 53.9857 71.0001 53.8418V48H71.3985C73.3359 48 75.1525 48.9355 76.2794 50.5117L79.1856 54.582C79.2783 54.7115 79.4006 54.817 79.5422 54.8897C79.6839 54.9624 79.8409 55.0002 80.0001 55H85.0001C85.1326 55.0019 85.2642 54.9774 85.3871 54.928C85.5101 54.8786 85.622 54.8052 85.7164 54.7122C85.8108 54.6191 85.8857 54.5082 85.9368 54.386C85.988 54.2637 86.0143 54.1325 86.0143 54C86.0143 53.8675 85.988 53.7363 85.9368 53.614C85.8857 53.4918 85.8108 53.3809 85.7164 53.2878C85.622 53.1948 85.5101 53.1214 85.3871 53.072C85.2642 53.0226 85.1326 52.9981 85.0001 53H80.5157L77.9083 49.3496C76.4071 47.2486 73.9806 46 71.3985 46H71.0001V37H85.0001C85.5531 37 86.0001 36.553 86.0001 36C86.0001 35.447 85.5531 35 85.0001 35H71.0001V34.6191L73.8282 31.791C74.0662 31.5531 74.2573 31.283 74.4259 31H85.0001C85.5501 31 86.0001 30.55 86.0001 30C86.0001 29.45 85.5501 29 85.0001 29H74.9962C74.9963 28.9874 75.0001 28.9755 75.0001 28.9629C75.0001 27.8981 74.5813 26.8868 73.8282 26.1348C73.0993 25.4047 72.0729 25 71.0001 25V15C71.0001 14.45 70.5501 14 70.0001 14C69.4501 14 69.0001 14.45 69.0001 15V25.5293C68.6998 25.6972 68.4153 25.8895 68.172 26.1328L65.0001 29.3047V15C65.0001 14.45 64.5501 14 64.0001 14C63.4501 14 63.0001 14.45 63.0001 15V29H41.0001C41.0001 27.9352 40.5813 26.9239 39.8282 26.1719C39.0993 25.4418 38.0729 25.0371 37.0001 25.0371V15C37.0001 14.45 36.5501 14 36.0001 14C35.4501 14 35.0001 14.45 35.0001 15V25.5684C34.6998 25.7366 34.4153 25.9286 34.172 26.1719L31.0001 29.3438V15C31.0001 14.45 30.5501 14 30.0001 14ZM71.0001 26C71.8192 26 72.5961 26.3159 73.1212 26.8418C73.69 27.4098 74.0001 28.1577 74.0001 28.9629C74.0001 29.7681 73.6904 30.5148 73.1212 31.084L65.1212 39.084C64.552 39.6532 63.8053 39.9629 63.0001 39.9629C62.1949 39.9629 61.4495 39.6525 60.879 39.082C60.3101 38.514 60.0001 37.7681 60.0001 36.9629C60.0001 36.1577 60.3098 35.409 60.879 34.8398L68.879 26.8398C69.4041 26.3147 70.1809 26 71.0001 26ZM37.0001 26.0371C37.8192 26.0371 38.5961 26.353 39.1212 26.8789C39.69 27.4469 40.0001 28.1948 40.0001 29C40.0001 29.8052 39.6904 30.5519 39.1212 31.1211L31.1212 39.1211C30.5508 39.6906 29.8042 40 29.0001 40C28.196 40 27.4493 39.6914 26.879 39.1211C26.3101 38.5531 26.0001 37.8052 26.0001 37C26.0001 36.1948 26.3098 35.4481 26.879 34.8789L34.879 26.8789C35.4041 26.3538 36.1809 26.0371 37.0001 26.0371ZM40.4454 31H63.0001V31.3047L60.172 34.1328C59.9133 34.3915 59.7097 34.6885 59.5333 35H37.0001V34.6562L39.8282 31.8281C40.0763 31.5801 40.2729 31.2967 40.4454 31ZM69.0001 36.6191V46.832C68.9822 46.94 68.9822 47.0502 69.0001 47.1582V53H65.0001V40.4082C65.2968 40.2357 65.5802 40.0391 65.8282 39.791L69.0001 36.6191ZM35.0001 36.6562V53H31.0001V47.168C31.0179 47.06 31.0179 46.9498 31.0001 46.8418V40.4453C31.297 40.2728 31.5798 40.0762 31.8282 39.8281L35.0001 36.6562ZM29.5001 60C29.4338 59.9991 29.368 60.0113 29.3066 60.036C29.2451 60.0607 29.1891 60.0974 29.1419 60.1439C29.0947 60.1904 29.0573 60.2459 29.0317 60.307C29.0061 60.3681 28.993 60.4337 28.993 60.5C28.993 60.5663 29.0061 60.6319 29.0317 60.693C29.0573 60.7541 29.0947 60.8096 29.1419 60.8561C29.1891 60.9026 29.2451 60.9393 29.3066 60.964C29.368 60.9887 29.4338 61.0009 29.5001 61H36.5001C36.5663 61.0009 36.6321 60.9887 36.6936 60.964C36.7551 60.9393 36.811 60.9026 36.8582 60.8561C36.9054 60.8096 36.9429 60.7541 36.9685 60.693C36.994 60.6319 37.0072 60.5663 37.0072 60.5C37.0072 60.4337 36.994 60.3681 36.9685 60.307C36.9429 60.2459 36.9054 60.1904 36.8582 60.1439C36.811 60.0974 36.7551 60.0607 36.6936 60.036C36.6321 60.0113 36.5663 59.9991 36.5001 60H29.5001ZM63.5001 60C63.4338 59.9991 63.368 60.0113 63.3066 60.036C63.2451 60.0607 63.1891 60.0974 63.1419 60.1439C63.0947 60.1904 63.0573 60.2459 63.0317 60.307C63.0061 60.3681 62.993 60.4337 62.993 60.5C62.993 60.5663 63.0061 60.6319 63.0317 60.693C63.0573 60.7541 63.0947 60.8096 63.1419 60.8561C63.1891 60.9026 63.2451 60.9393 63.3066 60.964C63.368 60.9887 63.4338 61.0009 63.5001 61H70.5001C70.5663 61.0009 70.6321 60.9887 70.6936 60.964C70.7551 60.9393 70.8111 60.9026 70.8582 60.8561C70.9054 60.8096 70.9429 60.7541 70.9685 60.693C70.994 60.6319 71.0072 60.5663 71.0072 60.5C71.0072 60.4337 70.994 60.3681 70.9685 60.307C70.9429 60.2459 70.9054 60.1904 70.8582 60.1439C70.8111 60.0974 70.7551 60.0607 70.6936 60.036C70.6321 60.0113 70.5663 59.9991 70.5001 60H63.5001ZM29.5001 66C29.4338 65.9991 29.368 66.0113 29.3066 66.036C29.2451 66.0607 29.1891 66.0974 29.1419 66.1439C29.0947 66.1904 29.0573 66.2459 29.0317 66.307C29.0061 66.3681 28.993 66.4337 28.993 66.5C28.993 66.5663 29.0061 66.6319 29.0317 66.693C29.0573 66.7541 29.0947 66.8096 29.1419 66.8561C29.1891 66.9026 29.2451 66.9393 29.3066 66.964C29.368 66.9887 29.4338 67.0009 29.5001 67H30.5001C30.5663 67.0009 30.6321 66.9887 30.6936 66.964C30.7551 66.9393 30.811 66.9026 30.8582 66.8561C30.9054 66.8096 30.9429 66.7541 30.9685 66.693C30.994 66.6319 31.0072 66.5663 31.0072 66.5C31.0072 66.4337 30.994 66.3681 30.9685 66.307C30.9429 66.2459 30.9054 66.1904 30.8582 66.1439C30.811 66.0974 30.7551 66.0607 30.6936 66.036C30.6321 66.0113 30.5663 65.9991 30.5001 66H29.5001ZM33.5001 66C33.4338 65.9991 33.368 66.0113 33.3066 66.036C33.2451 66.0607 33.1891 66.0974 33.1419 66.1439C33.0947 66.1904 33.0573 66.2459 33.0317 66.307C33.0061 66.3681 32.993 66.4337 32.993 66.5C32.993 66.5663 33.0061 66.6319 33.0317 66.693C33.0573 66.7541 33.0947 66.8096 33.1419 66.8561C33.1891 66.9026 33.2451 66.9393 33.3066 66.964C33.368 66.9887 33.4338 67.0009 33.5001 67H37.5001C37.5663 67.0009 37.6321 66.9887 37.6936 66.964C37.7551 66.9393 37.811 66.9026 37.8582 66.8561C37.9054 66.8096 37.9429 66.7541 37.9685 66.693C37.994 66.6319 38.0072 66.5663 38.0072 66.5C38.0072 66.4337 37.994 66.3681 37.9685 66.307C37.9429 66.2459 37.9054 66.1904 37.8582 66.1439C37.811 66.0974 37.7551 66.0607 37.6936 66.036C37.6321 66.0113 37.5663 65.9991 37.5001 66H33.5001ZM62.5001 66C62.4338 65.9991 62.368 66.0113 62.3066 66.036C62.2451 66.0607 62.1891 66.0974 62.1419 66.1439C62.0947 66.1904 62.0573 66.2459 62.0317 66.307C62.0061 66.3681 61.993 66.4337 61.993 66.5C61.993 66.5663 62.0061 66.6319 62.0317 66.693C62.0573 66.7541 62.0947 66.8096 62.1419 66.8561C62.1891 66.9026 62.2451 66.9393 62.3066 66.964C62.368 66.9887 62.4338 67.0009 62.5001 67H66.5001C66.5663 67.0009 66.6321 66.9887 66.6936 66.964C66.7551 66.9393 66.8111 66.9026 66.8582 66.8561C66.9054 66.8096 66.9429 66.7541 66.9685 66.693C66.994 66.6319 67.0072 66.5663 67.0072 66.5C67.0072 66.4337 66.994 66.3681 66.9685 66.307C66.9429 66.2459 66.9054 66.1904 66.8582 66.1439C66.8111 66.0974 66.7551 66.0607 66.6936 66.036C66.6321 66.0113 66.5663 65.9991 66.5001 66H62.5001ZM69.5001 66C69.4338 65.9991 69.368 66.0113 69.3066 66.036C69.2451 66.0607 69.1891 66.0974 69.1419 66.1439C69.0947 66.1904 69.0573 66.2459 69.0317 66.307C69.0061 66.3681 68.993 66.4337 68.993 66.5C68.993 66.5663 69.0061 66.6319 69.0317 66.693C69.0573 66.7541 69.0947 66.8096 69.1419 66.8561C69.1891 66.9026 69.2451 66.9393 69.3066 66.964C69.368 66.9887 69.4338 67.0009 69.5001 67H70.5001C70.5663 67.0009 70.6321 66.9887 70.6936 66.964C70.7551 66.9393 70.8111 66.9026 70.8582 66.8561C70.9054 66.8096 70.9429 66.7541 70.9685 66.693C70.994 66.6319 71.0072 66.5663 71.0072 66.5C71.0072 66.4337 70.994 66.3681 70.9685 66.307C70.9429 66.2459 70.9054 66.1904 70.8582 66.1439C70.8111 66.0974 70.7551 66.0607 70.6936 66.036C70.6321 66.0113 70.5663 65.9991 70.5001 66H69.5001ZM31.5001 72C31.4338 71.9991 31.368 72.0113 31.3066 72.036C31.2451 72.0607 31.1891 72.0974 31.1419 72.1439C31.0947 72.1904 31.0573 72.2459 31.0317 72.307C31.0061 72.3681 30.993 72.4337 30.993 72.5C30.993 72.5663 31.0061 72.6319 31.0317 72.693C31.0573 72.7541 31.0947 72.8096 31.1419 72.8561C31.1891 72.9026 31.2451 72.9393 31.3066 72.964C31.368 72.9887 31.4338 73.0009 31.5001 73H36.5001C36.5663 73.0009 36.6321 72.9887 36.6936 72.964C36.7551 72.9393 36.811 72.9026 36.8582 72.8561C36.9054 72.8096 36.9429 72.7541 36.9685 72.693C36.994 72.6319 37.0072 72.5663 37.0072 72.5C37.0072 72.4337 36.994 72.3681 36.9685 72.307C36.9429 72.2459 36.9054 72.1904 36.8582 72.1439C36.811 72.0974 36.7551 72.0607 36.6936 72.036C36.6321 72.0113 36.5663 71.9991 36.5001 72H31.5001ZM63.5001 72C63.4338 71.9991 63.368 72.0113 63.3066 72.036C63.2451 72.0607 63.1891 72.0974 63.1419 72.1439C63.0947 72.1904 63.0573 72.2459 63.0317 72.307C63.0061 72.3681 62.993 72.4337 62.993 72.5C62.993 72.5663 63.0061 72.6319 63.0317 72.693C63.0573 72.7541 63.0947 72.8096 63.1419 72.8561C63.1891 72.9026 63.2451 72.9393 63.3066 72.964C63.368 72.9887 63.4338 73.0009 63.5001 73H68.5001C68.5663 73.0009 68.6321 72.9887 68.6936 72.964C68.7551 72.9393 68.8111 72.9026 68.8582 72.8561C68.9054 72.8096 68.9429 72.7541 68.9685 72.693C68.994 72.6319 69.0072 72.5663 69.0072 72.5C69.0072 72.4337 68.994 72.3681 68.9685 72.307C68.9429 72.2459 68.9054 72.1904 68.8582 72.1439C68.8111 72.0974 68.7551 72.0607 68.6936 72.036C68.6321 72.0113 68.5663 71.9991 68.5001 72H63.5001Z" fill="#B9FF00"/>
</svg>
