<svg width="21" height="21" viewBox="0 0 21 21" fill="none" xmlns="http://www.w3.org/2000/svg">
<path d="M15 11L10.85 6.95C10.3333 6.45 9.89583 5.89583 9.5375 5.2875C9.17917 4.67917 9 4.01667 9 3.3C9 2.38333 9.32083 1.60417 9.9625 0.9625C10.6042 0.320833 11.3833 0 12.3 0C12.8333 0 13.3333 0.1125 13.8 0.3375C14.2667 0.5625 14.6667 0.866667 15 1.25C15.3333 0.866667 15.7333 0.5625 16.2 0.3375C16.6667 0.1125 17.1667 0 17.7 0C18.6167 0 19.3958 0.320833 20.0375 0.9625C20.6792 1.60417 21 2.38333 21 3.3C21 4.01667 20.825 4.67917 20.475 5.2875C20.125 5.89583 19.6917 6.45 19.175 6.95L15 11ZM15 8.2L17.725 5.525C18.0417 5.20833 18.3333 4.87083 18.6 4.5125C18.8667 4.15417 19 3.75 19 3.3C19 2.93333 18.875 2.625 18.625 2.375C18.375 2.125 18.0667 2 17.7 2C17.4667 2 17.2458 2.04583 17.0375 2.1375C16.8292 2.22917 16.65 2.36667 16.5 2.55L15 4.35L13.5 2.55C13.35 2.36667 13.1708 2.22917 12.9625 2.1375C12.7542 2.04583 12.5333 2 12.3 2C11.9333 2 11.625 2.125 11.375 2.375C11.125 2.625 11 2.93333 11 3.3C11 3.75 11.1333 4.15417 11.4 4.5125C11.6667 4.87083 11.9583 5.20833 12.275 5.525L15 8.2ZM6 16.5L12.95 18.4L18.9 16.55C18.8167 16.4 18.6958 16.2708 18.5375 16.1625C18.3792 16.0542 18.2 16 18 16H12.95C12.5 16 12.1417 15.9833 11.875 15.95C11.6083 15.9167 11.3333 15.85 11.05 15.75L8.725 14.975L9.275 13.025L11.3 13.7C11.5833 13.7833 11.9167 13.85 12.3 13.9C12.6833 13.95 13.25 13.9833 14 14C14 13.8167 13.9458 13.6417 13.8375 13.475C13.7292 13.3083 13.6 13.2 13.45 13.15L7.6 11H6V16.5ZM0 20V9H7.6C7.71667 9 7.83333 9.0125 7.95 9.0375C8.06667 9.0625 8.175 9.09167 8.275 9.125L14.15 11.3C14.7 11.5 15.1458 11.85 15.4875 12.35C15.8292 12.85 16 13.4 16 14H18C18.8333 14 19.5417 14.275 20.125 14.825C20.7083 15.375 21 16.1 21 17V18L13 20.5L6 18.55V20H0ZM2 18H4V11H2V18Z" fill="#414141"/>
</svg>
