<svg width="74" height="73" viewBox="0 0 74 73" fill="none" xmlns="http://www.w3.org/2000/svg">
<g clip-path="url(#clip0_914_244)">
<path d="M47.1117 70.2808C38.999 67.2165 31.2711 63.5699 23.0249 59.6794C20.4425 58.4607 17.8125 57.223 15.3606 56.0834C14.6419 55.751 14.2412 54.7476 14.2348 53.6966C14.2348 53.2408 14.3079 52.7818 14.4638 52.3671C14.6132 51.9714 14.8359 51.6137 15.1443 51.3383C15.7867 50.7622 16.8267 50.5438 18.3468 51.0661C20.1468 51.6897 21.9786 52.4051 23.8231 53.1205C24.2779 53.2978 24.7326 53.475 25.1906 53.6491L24.0839 55.0736L25.1015 55.8587L26.4436 54.1303C29.6842 55.3617 32.9662 56.4949 36.3276 57.1502L35.5898 59.6003L36.8269 59.9675L37.6092 57.3749C38.7032 57.5459 39.8068 57.6567 40.9198 57.701C40.9707 57.9606 41.0375 58.2106 41.1265 58.448C41.5909 59.6858 42.5449 60.5816 44.011 60.5816H56.4869C56.6872 60.5816 59.8738 60.6797 60.6593 63.9371L61.9123 63.6427C60.8628 59.2996 56.5092 59.2996 56.4964 59.2996H56.4869H44.011C43.1714 59.2996 42.6149 58.7583 42.3318 58.0049C42.176 57.5934 42.0997 57.1185 42.0965 56.6279C42.0965 56.1246 42.1728 55.6086 42.3255 55.1274C42.6944 53.9688 43.5181 53.0002 44.7615 52.9179C45.5311 52.8704 73.9176 51.7245 74.0002 51.7213L73.9494 50.4393C73.8667 50.4425 45.3689 51.5915 44.6788 51.6359C42.8216 51.7593 41.6195 53.1205 41.1011 54.7412C40.9294 55.2857 40.8371 55.8555 40.8181 56.419C39.9403 56.3778 39.069 56.2987 38.2008 56.1752C38.2071 55.4598 38.2167 53.8296 38.2453 50.0816C38.258 48.0303 39.1898 46.2798 40.5382 44.811C41.5654 46.4128 43.1269 47.5049 45.2354 47.6378C48.3869 47.8372 52.5975 47.9955 56.6904 45.2985C60.7325 42.6363 64.5932 37.1979 67.0356 26.2516L67.3282 24.9442L66.1229 25.5393C66.1038 25.5488 59.0724 29.091 48.6382 28.5592C44.2749 28.3376 41.4032 30.9745 40.023 34.3553C39.5174 35.5898 39.2152 36.9289 39.1135 38.2584C39.0117 39.5879 39.1135 40.9174 39.4188 42.1361C39.5492 42.6584 39.7177 43.1618 39.9212 43.6366C38.8559 44.716 37.9813 45.9538 37.4661 47.3529C36.8206 45.6784 35.7965 44.2665 34.5817 43.0763C34.6898 42.7724 34.7852 42.459 34.8679 42.1361C35.17 40.9174 35.2718 39.5879 35.17 38.2584C35.0683 36.9289 34.7662 35.5898 34.2605 34.3553C32.8803 30.9745 30.0086 28.3376 25.6453 28.5592C15.2079 29.091 8.1797 25.5488 8.16062 25.5393L6.95533 24.9442L7.24791 26.2516C9.6903 37.1979 13.5542 42.6363 17.5931 45.2985C21.686 47.9955 25.8966 47.8372 29.045 47.6378C31.3538 47.4922 33.0107 46.1943 34.022 44.333C35.6598 46.0709 36.8301 48.2899 36.9064 51.0946H36.9509C36.9287 53.8232 36.9191 55.235 36.9128 55.96C32.6322 55.1717 28.4376 53.5415 24.2938 51.9302C22.4556 51.2148 20.627 50.5026 18.7729 49.8568C16.7313 49.1478 15.2525 49.515 14.2857 50.3823C13.8214 50.8002 13.4811 51.332 13.2617 51.9176C13.0518 52.481 12.95 53.0952 12.9532 53.6998C12.9595 55.2097 13.6274 56.688 14.82 57.2452C17.6026 58.5367 20.0641 59.6984 22.4779 60.838C30.7432 64.7379 38.4933 68.3941 46.6601 71.4805C57.4823 75.5672 73.7458 70.1161 73.7935 70.1003L73.3896 68.8816C73.3451 68.8974 57.5046 74.206 47.1149 70.2808H47.1117ZM40.3983 38.347C40.4905 37.1473 40.7608 35.9412 41.2156 34.8301C42.405 31.9178 44.8601 29.645 48.5682 29.8349C56.7827 30.2528 62.9904 28.2079 65.4869 27.2076C63.1271 36.9352 59.6226 41.8196 55.9781 44.2222C52.235 46.6882 48.2788 46.5394 45.318 46.3494C43.588 46.2418 42.3096 45.2795 41.4859 43.874C45.194 40.5692 50.7625 38.9833 50.7848 38.9738L50.4254 37.7424C50.4 37.7487 44.8951 39.3188 40.9294 42.6869C40.8276 42.4052 40.7386 42.114 40.6654 41.8164C40.3951 40.7338 40.3061 39.5404 40.3983 38.3407V38.347ZM28.9655 46.3526C26.0047 46.5394 22.0485 46.6913 18.3055 44.2254C14.6609 41.8259 11.1532 36.9384 8.79348 27.2107C11.2899 28.211 17.4977 30.2559 25.7121 29.8381C29.4234 29.6482 31.8754 31.921 33.0647 34.8333C33.5195 35.9444 33.793 37.1504 33.8821 38.3502C33.9743 39.5499 33.8821 40.7401 33.6149 41.8259C33.5895 41.9304 33.5577 42.0348 33.5291 42.1393C29.0768 38.4926 23.0471 37.3562 23.0185 37.3499L22.7704 38.6129C22.7959 38.6161 28.8732 39.762 33.0488 43.4023C32.2443 45.0611 30.8831 46.2355 28.9623 46.3558L28.9655 46.3526ZM29.3248 21.3672C28.6411 21.4115 0.136986 22.5542 0.0543011 22.5542L0.00341797 21.2754C0.0861031 21.2722 28.4662 20.1326 29.2421 20.0851C30.4888 20.0028 31.3125 19.0342 31.6845 17.8724C31.8404 17.3913 31.9167 16.8753 31.9167 16.372C31.9167 15.8813 31.8372 15.4065 31.6814 14.995C31.3983 14.2416 30.8418 13.7035 30.0022 13.7035H17.5104C17.5104 13.7035 13.144 13.7003 12.0945 9.3572L13.3475 9.06281C14.133 12.3201 17.3228 12.4183 17.5199 12.4214H29.999C31.4651 12.4214 32.4192 13.3109 32.8835 14.5518C32.9725 14.7861 33.0361 15.0393 33.0902 15.2957C34.2033 15.34 35.3068 15.454 36.3976 15.6218L37.1863 13.0292L38.4234 13.3996L37.6824 15.8433C41.0439 16.4986 44.3258 17.6319 47.5664 18.8633L48.9053 17.138L49.9262 17.9199L48.8194 19.3412C49.2678 19.5122 49.7131 19.6863 50.1615 19.8604C52.0155 20.5821 53.8569 21.2975 55.6664 21.9275C57.1865 22.4529 58.2265 22.2345 58.8689 21.6584C59.1742 21.383 59.3968 21.0285 59.5462 20.6328C59.7021 20.2181 59.7752 19.7591 59.7752 19.3064C59.7752 18.2523 59.3682 17.252 58.6463 16.9165C56.2261 15.7927 53.6247 14.5645 51.0678 13.3584C42.793 9.45217 35.0396 5.79283 26.8952 2.71594C16.4991 -1.20297 0.661719 4.10244 0.614016 4.11827L0.210131 2.89954C0.257834 2.88372 16.5214 -2.5673 27.3436 1.51938C35.5421 4.61526 43.3177 8.28726 51.6117 12.203C53.9968 13.3268 56.4265 14.4758 59.1837 15.7547C60.3795 16.3118 61.0473 17.7933 61.0537 19.3064C61.0537 19.9079 60.9551 20.522 60.7452 21.0854C60.5257 21.6711 60.1886 22.2029 59.7243 22.6176C58.7576 23.4881 57.2788 23.8521 55.2371 23.143C53.3735 22.4973 51.5353 21.7819 49.6876 21.0633C44.3004 18.9677 38.8241 16.8436 33.1888 16.5841C33.1729 17.1475 33.0806 17.7205 32.9057 18.265C32.3874 19.8889 31.1852 21.2469 29.3217 21.3735L29.3248 21.3672ZM58.5445 38.0336L59.648 38.6921C55.3579 45.8525 47.7509 45.1719 47.7286 45.1687L47.8304 43.8867C47.8495 43.8867 54.6678 44.5008 58.5445 38.0305V38.0336Z" fill="#ADFF00"/>
</g>
<defs>
<clipPath id="clip0_914_244">
<rect width="74" height="73" fill="white"/>
</clipPath>
</defs>
</svg>
