<svg width="44" height="92" viewBox="0 0 44 92" fill="none" xmlns="http://www.w3.org/2000/svg">
<path d="M7.49076 83.5871C7.52068 83.6408 7.54046 83.6916 7.56812 83.7447C7.55457 83.6876 7.5461 83.6329 7.53142 83.5758C7.52408 83.5504 7.48398 83.5617 7.49076 83.5871Z" fill="#7FA828"/>
<path d="M7.56818 83.7451C7.8437 84.8805 7.93515 85.9724 7.96112 87.07C8.34222 86.0769 8.21238 84.9692 7.56818 83.7451Z" fill="#7FA828"/>
<path d="M42.2779 48.0698C42.1605 48.1646 42.0301 48.2787 41.8912 48.4029C36.1623 48.2036 30.198 47.2827 24.6057 48.6315C20.5717 49.6043 18.5436 53.3002 19.0043 57.0564C14.6468 59.4051 10.6461 62.3364 7.72776 66.0204C8.78976 61.8046 10.3508 57.6938 12.0508 53.7462C14.9715 46.9643 18.7876 40.6471 22.6364 34.3525C23.1327 34.4676 23.6673 34.5585 24.2697 34.6059C24.3838 35.1321 24.9975 35.5929 25.6569 35.3157C40.6644 28.9804 35.784 13.7928 35.8732 0.925226C35.8811 -0.209604 34.3517 -0.30785 33.9915 0.671153C32.0826 5.85862 12.3535 28.3954 20.658 33.5874C16.5506 40.0277 12.5725 46.9649 9.57003 54.1544C8.28671 53.268 7.91012 50.7917 7.65888 49.4649C7.51152 48.6891 7.44489 47.9072 7.39295 47.1241C8.2229 46.7328 9.00315 46.1575 9.6609 45.4529C9.93924 45.5178 10.2317 45.4241 10.3847 45.0729C14.0777 36.5781 7.44036 30.0322 2.72828 23.6049C2.27039 22.9799 1.33715 23.5044 1.68324 24.2152C5.03749 31.1089 -2.06793 37.591 1.10056 44.7856C2.20377 47.2912 4.16178 47.9772 6.08647 47.5695C6.33771 50.4478 7.25236 53.4351 9.4633 54.4158C4.56999 66.2378 2.33984 78.7288 6.54661 90.7987C6.61888 91.007 6.82158 91.2244 7.0683 91.1956C7.21566 91.1781 7.36303 91.1612 7.51039 91.1437C7.76615 91.1137 8.01173 90.9438 7.99931 90.6542C7.94906 89.4104 7.9886 88.2365 7.96037 87.0701C7.79777 87.4947 7.55216 87.9012 7.20211 88.2829C6.7685 86.2136 6.47549 84.1224 6.32249 82.0108C6.04301 79.1986 6.21915 76.3615 6.44499 73.5543C6.58557 71.8035 6.84642 70.0651 7.1976 68.342C10.3356 64.1414 14.5949 60.9521 19.2658 58.3866C19.4459 59.0212 19.696 59.649 20.0268 60.257C25.1827 69.7168 39.5792 52.8999 43.4647 49.2566C44.2693 48.5023 43.1 47.4013 42.2779 48.0698ZM34.1749 4.49287C35.0359 15.8485 36.9776 26.8163 25.3204 33.3859C24.6401 33.2741 24.0281 33.1228 23.516 32.9144C25.3554 29.9069 27.1881 26.8981 28.9186 23.8386C29.3906 23.0047 28.1807 22.3255 27.6511 23.0984C25.7591 25.8536 23.787 28.7562 21.8262 31.7723C17.2118 26.6977 29.4521 12.1493 34.1749 4.49287ZM7.07792 43.2346C7.01017 42.7869 6.23835 42.7829 6.17455 43.2346C6.07462 43.9398 6.01478 44.794 6.01083 45.7087C4.28487 45.7663 2.8559 44.6405 1.96723 42.0919C1.02154 39.3796 2.03779 36.5222 2.86322 33.9347C3.65196 31.4623 4.07429 29.2164 3.74626 26.9303C7.72212 32.067 11.9594 37.644 9.05568 44.2972C9.00486 44.4129 8.98509 44.5258 8.98565 44.6354C8.40243 45.0091 7.83388 45.2909 7.28623 45.4721C7.24332 44.7229 7.19084 43.9754 7.07792 43.2346ZM21.6935 60.0391C21.2085 59.3464 20.8969 58.5034 20.723 57.6165C24.9518 55.4422 29.4476 53.7281 33.7142 52.2088C34.2754 52.0089 34.0513 51.1333 33.4653 51.3055C29.3381 52.5171 24.8354 54.1199 20.5818 56.2394C20.5547 54.4869 21.0849 52.7209 22.2253 51.5844C24.2421 49.5756 28.1383 49.6422 30.7439 49.5767C33.5861 49.5061 37.2982 50.2265 40.4504 49.7839C35.6033 54.6032 25.522 65.51 21.6935 60.0391Z" fill="#7FA828"/>
</svg>
