<svg width="135" height="120" viewBox="0 0 135 120" fill="none" xmlns="http://www.w3.org/2000/svg">
<path d="M32.1962 81.9953C26.1627 74.3967 16.7633 51.0991 3.27744 57.1419C-0.926275 59.0257 0.663772 64.8603 2.27623 67.8534C4.87934 72.6789 10.0118 75.7115 15.3682 76.216C17.0123 80.7794 21.0263 87.5862 25.2327 86.8181C25.8123 87.5954 26.5921 88.1526 27.6776 88.1526C29.954 88.1526 31.5573 86.1028 31.5876 83.9871C31.5902 83.7843 31.5613 83.5775 31.5428 83.3693C32.1817 83.501 32.6362 82.5486 32.1962 81.9953Z" fill="#7FA828"/>
<path d="M97.3238 74.2226C91.9199 64.6993 79.1454 58.2047 68.9108 55.8954C64.134 54.8165 53.5728 55.6292 52.7257 62.2687C52.3529 65.192 53.931 67.2194 55.8741 69.2482C56.384 69.7804 57.6447 70.6604 59.0332 71.6735C59.6958 73.199 60.7352 74.8693 62.2858 76.6913C62.7455 77.2327 63.2159 77.6582 63.6901 78.0257C63.5162 78.1522 63.3081 78.2682 63.0393 78.3696C62.3635 78.6226 61.9499 79.0941 61.7378 79.6316C53.5793 76.5411 45.1073 77.0641 39.0382 84.3044C32.35 92.2863 34.9715 104.864 42.4291 111.014C45.5552 113.592 48.8882 114.068 52.6387 113.344C59.0016 112.119 65.1076 119.348 71.6575 119.946C82.4994 120.936 91.0874 108.074 95.2792 100.007C99.3222 92.2164 101.879 82.2506 97.3238 74.2226ZM82.7919 86.8034C82.9144 86.835 83.0264 86.8113 83.1463 86.8271C83.5112 87.0919 83.8787 87.3383 84.2529 87.5635C84.1343 87.9258 84.0091 88.2841 83.8642 88.6371C83.5783 88.8466 83.3347 89.1035 83.1278 89.4117C82.701 88.4303 82.1583 87.4265 81.5193 86.4253C81.9435 86.5584 82.3651 86.6927 82.7919 86.8034ZM74.7665 73.365C75.0497 74.0579 75.3632 74.7099 75.7136 75.3225C75.5108 75.8073 75.4291 76.3369 75.5951 76.8955C74.9602 76.3672 74.3541 75.8152 73.785 75.2185C74.1671 74.6309 74.4951 74.0078 74.7665 73.365ZM83.0817 67.9084C80.1664 64.5254 76.5278 61.7616 72.5665 60.3915C78.2536 62.3491 83.7549 66.184 88.0429 69.8239C86.4528 68.9808 84.7653 68.3207 83.0817 67.9084ZM89.1271 98.1275C89.185 97.8917 89.243 97.6584 89.2733 97.4292C90.3351 98.1986 91.7908 98.0155 92.7367 97.1882C92.0635 98.7927 91.281 100.356 90.3971 101.861C90.21 100.403 89.7818 99.1576 89.1271 98.1275ZM63.8086 59.14C66.3577 58.9002 68.982 59.2902 71.5811 60.0807C68.2416 59.1387 64.7018 59.2006 61.1792 60.7867C60.2505 61.2056 59.6669 62.552 59.875 63.5782C59.3362 64.1052 58.9107 64.7349 58.6077 65.4515C56.4828 62.5691 56.5157 59.8263 63.8086 59.14ZM58.4588 81.4681C58.2533 81.5787 58.0504 81.7105 57.8489 81.8422C54.678 80.8594 51.4702 80.8568 48.7986 82.4218C48.4864 82.605 48.2097 82.7933 47.9357 82.9844C47.2401 83.1253 46.5485 83.3321 45.8688 83.6154C44.7675 84.0751 43.8809 84.6613 43.1695 85.3358C43.2156 85.2752 43.2564 85.1962 43.3038 85.1369C46.8199 80.8093 53.0366 80.6289 58.4588 81.4681ZM52.453 109.278C53.2842 108.74 53.8125 107.817 53.574 106.788C54.0312 107.192 54.487 107.603 54.9467 107.991C56.9966 109.723 59.8197 108.078 59.327 105.441C59.2282 104.911 59.0859 104.401 58.9621 103.882C59.2862 104.023 59.6036 104.154 59.9185 104.274C59.211 106.477 59.0846 108.709 59.8105 110.571C57.8186 109.387 55.5435 108.677 52.453 109.278ZM71.6549 115.967C69.4127 116.145 67.6277 115.621 66.0429 114.795C67.3432 114.948 68.6684 114.849 69.9555 114.554C75.9087 115.364 82.1806 112.271 81.6708 105.992C81.9093 105.875 82.1385 105.754 82.3703 105.631C83.7141 106.116 85.5044 106.206 87.7281 105.816C83.3953 111.426 77.6607 115.489 71.6549 115.967ZM94.0395 93.5641C94.1594 92.6512 94.1871 91.8371 94.1041 91.156C94.5177 89.6318 94.5415 87.9179 93.9895 86.2159C94.282 85.8404 94.5731 85.4675 94.8458 85.0038C95.0684 84.6244 95.2001 84.2477 95.3635 83.8709C95.5044 87.0089 95.0183 90.3129 94.0395 93.5641Z" fill="#7FA828"/>
<path d="M64.8951 40.2427C62.6135 37.9241 58.747 39.53 56.9237 41.5996C55.1874 43.569 55.0268 45.8718 56.032 47.7819C56.5866 50.1163 58.7338 52.1372 61.5701 51.5259C64.2022 50.9582 65.4669 47.8044 65.9622 45.4779C66.3495 43.66 66.2705 41.6404 64.8951 40.2427Z" fill="#7FA828"/>
<path d="M63.1732 26.9079C62.5751 26.1451 61.1088 25.9857 60.3369 26.5403C60.2723 26.5865 60.221 26.6431 60.1577 26.6905C59.968 26.5087 59.7204 26.3796 59.42 26.348C53.0057 25.6986 52.1534 37.1096 57.9656 38.8393C60.7136 39.66 63.1033 37.7709 64.1612 35.3377C65.4193 32.4434 65.1255 29.3911 63.1732 26.9079Z" fill="#7FA828"/>
<path d="M69.8745 7.71829C69.5465 6.22572 68.5743 5.21534 67.3518 4.66336C66.5245 3.16683 65.3454 1.89422 63.7817 0.966795C63.5867 0.460926 63.1283 0.0262216 62.5658 0.00514373C55.7629 -0.260964 54.8763 9.8656 55.4625 14.703C55.7905 17.4036 56.5849 20.2425 58.9773 21.8154C59.7466 22.3213 60.5186 22.4979 61.2695 22.4544C62.2667 23.3923 63.87 23.6624 64.9081 22.5189C66.4402 20.8301 67.5915 18.5589 68.266 16.1007C69.6281 13.5082 70.4778 10.4663 69.8745 7.71829Z" fill="#7FA828"/>
<path d="M77.9695 43.6521C77.3596 42.0172 75.3361 41.2413 73.9819 42.5995C73.8923 42.6904 73.8027 42.7892 73.7144 42.8841C73.0821 42.863 72.4102 43.1896 72.1573 43.8984C70.9256 47.3565 71.5803 50.235 74.5457 52.4995C75.5205 53.2438 77.021 52.6418 77.5888 51.7012C78.3449 50.451 78.8218 49.235 78.9562 47.778C79.0892 46.3829 78.4451 44.9234 77.9695 43.6521Z" fill="#7FA828"/>
<path d="M80.7921 29.2008C80.3877 28.7516 79.7501 28.5408 79.1823 28.9716C79.0795 29.0507 79.0097 29.1455 78.9135 29.2246C78.3378 29.4195 77.8319 29.7897 77.5553 30.3575C77.4183 30.6407 77.3353 30.9226 77.2154 31.2046C75.4831 34.1041 75.7097 37.9113 76.5449 41.2429C76.8031 42.2717 77.7819 42.9489 78.8134 42.9686C82.3782 43.0463 85.636 40.7015 86.1722 37.0616C86.7281 33.2887 84.4135 30.1375 80.7921 29.2008Z" fill="#7FA828"/>
<path d="M94.1719 7.35348C93.3709 5.34977 91.0669 4.49213 89.3582 6.08219C89.3345 6.10459 89.3147 6.12967 89.2923 6.15206C88.9801 5.77266 88.4795 5.54737 87.8709 5.70018C79.1157 7.88965 79.0143 21.1305 85.8356 25.6556C86.5878 26.1562 87.8156 26.1694 88.5665 25.6556C94.2825 21.7628 96.7579 13.8204 94.1719 7.35348Z" fill="#7FA828"/>
<path d="M95.8055 47.7374C94.6989 46.4754 92.6398 46.9365 91.827 48.2512C90.6585 50.1456 89.4926 52.119 89.3253 54.3822C89.2884 54.896 89.4043 55.3558 89.6112 55.7589C89.4491 56.9801 89.4531 58.2447 89.7087 59.5726C89.9959 61.0692 91.8639 61.6133 93.0759 60.9427C97.879 58.2777 99.5336 51.9978 95.8055 47.7374Z" fill="#7FA828"/>
<path d="M103.299 31.9686C100.692 32.2031 98.2927 33.2675 96.9384 35.7257C95.6606 38.039 95.8437 40.8635 97.0003 43.1755C97.0478 43.2703 97.1149 43.3533 97.1689 43.4455C97.4601 44.3307 98.1991 45.0461 99.0804 45.3307C100.365 46.0473 101.925 46.1764 103.293 45.3148C106.674 43.1925 106.973 37.8282 107.219 34.3267C107.376 32.1254 104.977 31.1993 103.299 31.9686Z" fill="#7FA828"/>
<path d="M116.468 16.8906C117.068 15.8249 116.502 14.1914 114.982 14.2111C108.895 14.2875 104.747 20.7992 105.041 26.4665C105.099 27.5797 105.785 28.7219 106.951 28.9735C113.214 30.3304 117.581 25.032 117.713 19.1262C117.736 18.0987 117.212 17.3372 116.468 16.8906Z" fill="#7FA828"/>
<path d="M110.128 56.9377C107.915 58.4434 105.975 60.928 105.254 63.5469C105.225 63.6471 105.249 63.7524 105.233 63.8538C104.618 65.075 104.234 66.4241 104.046 67.8758C103.871 69.2208 105.465 70.1284 106.61 69.8268C111.442 68.5555 113.485 63.543 113.66 58.9638C113.725 57.2552 111.591 55.9431 110.128 56.9377Z" fill="#7FA828"/>
<path d="M122.811 51.102C122.678 49.8584 121.842 48.9323 120.827 48.6385C120.924 47.2355 119.281 46.0275 117.945 47.25C116.098 48.9389 114.924 50.9255 114.569 53.0557C114.022 53.9633 113.81 54.9672 114.297 56.0895C114.45 56.4426 114.636 56.7272 114.845 56.9709C115.018 57.5136 115.239 58.0577 115.526 58.6057C116.11 59.7228 117.759 60.1655 118.817 59.4686C121.913 57.4306 123.209 54.8288 122.811 51.102Z" fill="#7FA828"/>
<path d="M134.405 41.667C134.542 39.1232 131.523 38.4737 129.88 39.7924C129.847 39.8201 129.826 39.849 129.794 39.8754C128.144 39.9637 126.639 40.617 125.556 42.1478C123.933 44.4427 124.215 47.3079 125.524 49.6713C126.01 50.5526 127.214 51.0901 128.189 50.7568C129.473 50.3168 130.532 49.6133 131.416 48.7518C132.528 48.6253 133.517 47.6755 133.62 46.3845C133.645 46.0867 133.586 45.814 133.548 45.5347C134.036 44.3294 134.333 43.0212 134.405 41.667Z" fill="#7FA828"/>
</svg>
