<svg width="20" height="20" viewBox="0 0 20 20" fill="none" xmlns="http://www.w3.org/2000/svg">
<g id="Sidebar-Profile">
<path id="&#232;&#183;&#175;&#229;&#190;&#132;" d="M19.6889 7.28571L11.3425 0.428571C10.6292 -0.142857 9.41644 -0.142857 8.70307 0.428571L0.285347 7.35714C0 7.5 -0.0713367 7.85714 0.0713367 8.14286C0.142673 8.42857 0.42802 8.57143 0.713367 8.57143H1.42673V16.7143C1.42673 17.7857 2.21144 18.5714 3.28149 18.5714H7.84703C8.27505 18.5714 8.5604 18.2857 8.5604 17.8571V14.5714C8.5604 14.0714 9.34511 13.5714 9.98714 13.5714C10.6292 13.5714 11.4852 14.0714 11.4852 14.5714V17.8571C11.4852 18.2857 11.7706 18.5714 12.1986 18.5714H16.8355C17.9055 18.5714 18.6189 17.8571 18.6189 16.7143V8.57143H19.3322C19.6176 8.57143 19.9029 8.35714 19.9743 8.07143C20.0456 7.78571 19.9743 7.5 19.6889 7.28571Z" />
</g>
</svg>
