<svg width="13" height="16" viewBox="0 0 13 16" fill="none" xmlns="http://www.w3.org/2000/svg">
<g id="&#232;&#183;&#175;&#229;&#190;&#132;" clip-path="url(#clip0_2549_6278)">
<g id="&#229;&#155;&#190;&#231;&#137;&#135;&#232;&#181;&#132;&#230;&#186;&#144;">
<g id="&#231;&#148;&#187;&#230;&#157;&#191;&#229;&#164;&#135;&#228;&#187;&#189;-9">
<path id="&#232;&#183;&#175;&#229;&#190;&#132;_2" d="M6.35986 0C6.89866 0 7.41781 0.102285 7.91732 0.306856C8.41683 0.511427 8.86022 0.792703 9.24749 1.15069C9.63477 1.50867 9.94345 1.92348 10.1735 2.39512C10.4036 2.86677 10.5187 3.37534 10.5187 3.92085V7.43096H11.5505C11.8533 7.43096 12.1141 7.54126 12.3329 7.76184C12.5516 7.98243 12.661 8.24544 12.661 8.55087V13.8111C12.661 14.1165 12.6077 14.4021 12.5011 14.668C12.3946 14.9338 12.2487 15.1657 12.0637 15.3637C11.8786 15.5617 11.6598 15.7172 11.4075 15.8303C11.1551 15.9434 10.8774 16 10.5746 16H2.07748C1.77461 16 1.49979 15.9434 1.253 15.8303C1.00622 15.7172 0.795892 15.5673 0.622025 15.3806C0.448159 15.194 0.313554 14.9762 0.218211 14.7274C0.122867 14.4785 0.0751953 14.2127 0.0751953 13.9298V8.55087C0.0751953 8.24544 0.181756 7.98243 0.394879 7.76184C0.608001 7.54126 0.865998 7.43096 1.16887 7.43096H8.48135L8.48138 4.39817C8.48138 3.68219 8.28494 3.12816 7.89207 2.73607C7.4992 2.34399 6.96601 2.14794 6.29251 2.14794C5.68637 2.14794 5.19808 2.34399 4.82765 2.73607C4.45721 3.12816 4.272 3.68219 4.27201 4.39817L2.15051 3.92085C2.15051 3.37534 2.25714 2.86677 2.47041 2.39512C2.68368 1.92348 2.97834 1.50867 3.35439 1.15069C3.73044 0.792703 4.17383 0.511427 4.68455 0.306856C5.19527 0.102285 5.75371 0 6.35986 0Z"/>
</g>
</g>
</g>
<defs>
<clipPath id="clip0_2549_6278">
<rect width="12.5858" height="16" fill="white" transform="translate(0.0751953)"/>
</clipPath>
</defs>
</svg>
