<svg width="12" height="12" viewBox="0 0 12 12" fill="none" xmlns="http://www.w3.org/2000/svg">
<g id="icon-link" opacity="0.3">
<path id="&#229;&#189;&#162;&#231;&#138;&#182;" d="M2.4 12C1.07452 12 0 10.9255 0 9.6V2.40001C0 1.07453 1.07452 5.82269e-06 2.4 5.82269e-06H4C4.28654 -0.00108498 4.55178 0.151153 4.69537 0.399124C4.83896 0.647094 4.83896 0.952924 4.69537 1.20089C4.55178 1.44886 4.28654 1.6011 4 1.60001H2.4C1.95817 1.60001 1.6 1.95818 1.6 2.40001V9.6C1.6 10.0418 1.95817 10.4 2.4 10.4H9.6C10.0418 10.4 10.4 10.0418 10.4 9.6V8C10.4017 7.55936 10.7594 7.20305 11.2 7.20305C11.6406 7.20305 11.9983 7.55936 12 8V9.6C12 10.9255 10.9255 12 9.6 12H2.4ZM3.4344 8.568C3.28394 8.41792 3.19937 8.21413 3.19937 8.0016C3.19937 7.78908 3.28394 7.58529 3.4344 7.4352L9.2688 1.604H7.2C6.75937 1.60232 6.40306 1.24464 6.40306 0.804005C6.40306 0.363371 6.75937 0.00569424 7.2 0.0040078H11.2C11.6418 0.0040078 12 0.362181 12 0.804011V4.804C11.9983 5.24463 11.6406 5.60094 11.2 5.60094C10.7594 5.60094 10.4017 5.24463 10.4 4.804V2.73362L4.56559 8.57362C4.25193 8.88286 3.74806 8.88286 3.4344 8.57362V8.568Z" />
</g>
</svg>
