<svg width="16" height="16" viewBox="0 0 16 16" fill="none" xmlns="http://www.w3.org/2000/svg">
<g id="icon-?">
<path id="Subtract" fill-rule="evenodd" clip-rule="evenodd" d="M8 16C12.4183 16 16 12.4183 16 8C16 3.58172 12.4183 0 8 0C3.58172 0 0 3.58172 0 8C0 12.4183 3.58172 16 8 16ZM6.77114 9.54358C6.77114 9.6519 6.81728 9.70606 6.90954 9.70606H8.35504C8.45756 9.70606 8.50882 9.6519 8.50882 9.54358V9.0709C8.50882 8.84441 8.59083 8.63269 8.75486 8.43575C8.92914 8.2388 9.1393 8.03693 9.38535 7.83013C9.63139 7.62334 9.87743 7.39685 10.1235 7.15066C10.3695 6.89463 10.5746 6.60414 10.7386 6.27917C10.9129 5.94436 11 5.55539 11 5.11226C11 4.42294 10.754 3.90103 10.2619 3.54653C9.78004 3.18218 9.03166 3 8.01673 3C6.97105 3 6.19704 3.23141 5.69471 3.69424C5.20262 4.14722 4.97196 4.83161 5.00271 5.74742C5.00271 5.81635 5.01297 5.87051 5.03347 5.9099C5.06422 5.94929 5.11548 5.96898 5.18725 5.96898H6.50972C6.61224 5.96898 6.6635 5.90497 6.6635 5.77696C6.65325 5.34367 6.74039 5.00886 6.92492 4.77253C7.1197 4.52634 7.46826 4.40325 7.9706 4.40325C8.40118 4.40325 8.71385 4.4771 8.90864 4.62481C9.11367 4.76268 9.21619 4.98424 9.21619 5.28951C9.21619 5.57509 9.13418 5.83604 8.97015 6.07238C8.80612 6.29887 8.60109 6.51551 8.35504 6.7223C8.11925 6.9291 7.87834 7.14082 7.63229 7.35746C7.38625 7.56425 7.18122 7.79567 7.01719 8.0517C6.85316 8.30773 6.77114 8.60315 6.77114 8.93796V9.54358ZM6.87879 12.7637C7.06332 12.9212 7.33499 13 7.6938 13C8.06287 13 8.33454 12.9212 8.50882 12.7637C8.69335 12.5963 8.78562 12.355 8.78562 12.0399V11.8035C8.78562 11.4983 8.69335 11.2669 8.50882 11.1093C8.33454 10.9419 8.06287 10.8582 7.6938 10.8582C7.33499 10.8582 7.06332 10.9419 6.87879 11.1093C6.70451 11.2669 6.61737 11.4983 6.61737 11.8035V12.0399C6.61737 12.355 6.70451 12.5963 6.87879 12.7637Z" />
</g>
</svg>
