<svg width="16" height="16" viewBox="0 0 16 16" fill="none" xmlns="http://www.w3.org/2000/svg">
<g id="icon-set">
<path id="&#229;&#189;&#162;&#231;&#138;&#182;" d="M15.0799 6.51155C15.5145 6.53904 15.8899 6.84436 15.9474 7.27601C16.0413 7.98116 15.9943 8.55371 15.9245 8.94862C15.8576 9.3273 15.52 9.56745 15.1359 9.58629L14.7494 9.60524C14.3194 9.62633 13.9585 9.9236 13.796 10.3223C13.768 10.3911 13.7387 10.4594 13.7083 10.5272C13.5303 10.9235 13.5665 11.3946 13.8537 11.7206L14.059 11.9539C14.3468 12.2806 14.3963 12.7618 14.1318 13.1076C13.6995 13.6728 13.2614 14.0445 12.9328 14.2743C12.6177 14.4947 12.2093 14.4257 11.9244 14.1675L11.6434 13.9128C11.3208 13.6204 10.8489 13.5779 10.4497 13.7516C10.3792 13.7823 10.3081 13.8117 10.2365 13.8398C9.83632 13.9968 9.53477 14.3531 9.50753 14.782L9.4886 15.0801C9.461 15.5145 9.15579 15.8898 8.72429 15.9473C8.01893 16.0413 7.44622 15.9944 7.05125 15.9245C6.67264 15.8575 6.43257 15.5199 6.41374 15.1359L6.39857 14.8264C6.37701 14.3867 6.06724 14.0206 5.65518 13.8657C5.59485 13.843 5.53496 13.8195 5.47553 13.795C5.07899 13.632 4.6158 13.678 4.29815 13.9659L4.0758 14.1675C3.79094 14.4257 3.38248 14.4947 3.06742 14.2743C2.73883 14.0445 2.30081 13.6729 1.86858 13.1079C1.60396 12.762 1.67525 12.3016 1.97927 11.9898C2.19487 11.7687 2.38177 11.5241 2.40138 11.2466C2.41027 11.1206 1.82234 9.63332 1.79706 9.63205L0.864143 9.5863C0.480085 9.56747 0.142479 9.32736 0.0755182 8.94871C0.00567709 8.55378 -0.0412765 7.98116 0.0526081 7.2759C0.110062 6.84431 0.485393 6.53901 0.919917 6.51145L0.998797 6.50644C1.43776 6.4786 1.7994 6.16404 1.95034 5.7509C1.99525 5.62795 2.04399 5.50644 2.09647 5.38652C2.27141 4.98679 2.22945 4.51375 1.93642 4.19044L1.83233 4.0756C1.57412 3.79071 1.5052 3.38224 1.7256 3.06719C1.95547 2.73859 2.32718 2.30056 2.89229 1.86833C3.23811 1.60382 3.71936 1.65338 4.04608 1.94115L4.1105 1.99789C4.43696 2.28544 4.90884 2.32139 5.30542 2.14253C5.42256 2.0897 5.54129 2.04046 5.66145 1.99488C6.07346 1.83858 6.38389 1.47201 6.40549 1.03187L6.41372 0.864031C6.43257 0.480067 6.67258 0.142528 7.05112 0.0755453C7.44607 0.0056591 8.0188 -0.0413189 8.72424 0.0527115C9.15576 0.110229 9.46097 0.48554 9.48852 0.920005L9.49841 1.07599C9.52563 1.50541 9.82772 1.86193 10.2284 2.01867C10.3601 2.07019 10.4901 2.12611 10.618 2.18635C11.0178 2.37452 11.4985 2.34231 11.83 2.05033L11.9538 1.94131C12.2805 1.65359 12.7617 1.60405 13.1075 1.86851C13.6727 2.30075 14.0445 2.73881 14.2743 3.06742C14.4948 3.38247 14.4258 3.79095 14.1676 4.07584L13.9502 4.31568C13.6623 4.63333 13.6164 5.09646 13.7797 5.49287C13.8134 5.57481 13.8455 5.65763 13.8759 5.74127C14.0258 6.15408 14.387 6.46771 14.8254 6.49544L15.0799 6.51155ZM7.99987 4.29268C5.95252 4.29268 4.29268 5.95244 4.29268 7.99999C4.29268 10.0475 5.95239 11.7073 7.99987 11.7073C10.0474 11.7073 11.7073 10.0476 11.7073 7.99999C11.7073 5.95242 10.0474 4.29268 7.99987 4.29268Z" />
</g>
</svg>
