<svg width="17" height="16" viewBox="0 0 17 16" fill="none" xmlns="http://www.w3.org/2000/svg">
<g id="icon-back">
<path id="Subtract" fill-rule="evenodd" clip-rule="evenodd" d="M16.5 8C16.5 3.58172 12.9183 0 8.5 0C4.08172 0 0.5 3.58172 0.5 8C0.5 12.4183 4.08172 16 8.5 16C12.9183 16 16.5 12.4183 16.5 8ZM8.26735 4.04453C8.6201 3.69119 8.6201 3.11833 8.26735 2.765C7.91459 2.41167 7.34266 2.41167 6.98991 2.765L4.16 5.59952L6.47163 8.49377C6.78328 8.88396 7.35171 8.94722 7.74126 8.63507C8.13082 8.32292 8.19398 7.75356 7.88233 7.36337L7.24981 6.57143H9.88685C10.8846 6.57143 11.6934 7.38158 11.6934 8.38095C11.6934 9.38032 10.8846 10.1905 9.88685 10.1905H5.37041C4.87154 10.1905 4.46712 10.5956 4.46712 11.0952C4.46712 11.5949 4.87154 12 5.37041 12H9.88685C11.8823 12 13.5 10.3797 13.5 8.38095C13.5 6.38221 11.8823 4.7619 9.88685 4.7619H7.55114L8.26735 4.04453Z" />
</g>
</svg>
