<svg width="16" height="16" viewBox="0 0 16 16" fill="none" xmlns="http://www.w3.org/2000/svg">
<g id="icon-lock">
<path id="&#229;&#189;&#162;&#231;&#138;&#182;" d="M7.69048 0C8.22928 0 8.74843 0.102285 9.24794 0.306856C9.74744 0.511427 10.1908 0.792703 10.5781 1.15069C10.9654 1.50867 11.2741 1.92348 11.5042 2.39512C11.7342 2.86677 11.8493 3.37534 11.8493 3.92085V7.43096H12.8141C13.117 7.43096 13.3778 7.54126 13.5965 7.76184C13.8153 7.98243 13.9246 8.24544 13.9246 8.55087V13.8111C13.9246 14.1165 13.8714 14.4021 13.7648 14.668C13.6582 14.9338 13.5124 15.1657 13.3273 15.3637C13.1422 15.5617 12.9235 15.7172 12.6711 15.8303C12.4187 15.9434 12.1411 16 11.8382 16H3.34115C3.03828 16 2.76346 15.9434 2.51668 15.8303C2.26989 15.7172 2.05956 15.5673 1.8857 15.3806C1.71183 15.194 1.57723 14.9762 1.48188 14.7274C1.38654 14.4785 1.33887 14.2127 1.33887 13.9298V8.55087C1.33887 8.24544 1.44543 7.98243 1.65855 7.76184C1.87167 7.54126 2.12967 7.43096 2.43254 7.43096H3.48113V3.92085C3.48113 3.37534 3.58776 2.86677 3.80103 2.39512C4.0143 1.92348 4.30896 1.50867 4.68501 1.15069C5.06106 0.792703 5.50445 0.511427 6.01517 0.306856C6.52589 0.102285 7.08432 0 7.69048 0ZM7.62312 2.14794C7.01698 2.14794 6.5287 2.34399 6.15826 2.73607C5.78783 3.12816 5.60262 3.68219 5.60263 4.39817L5.60257 7.43096H9.812V4.39817C9.812 3.68219 9.61556 3.12816 9.22269 2.73607C8.82982 2.34399 8.29663 2.14794 7.62312 2.14794Z" />
</g>
</svg>
