<svg width="16" height="16" viewBox="0 0 16 16" fill="none" xmlns="http://www.w3.org/2000/svg">
<path fill-rule="evenodd" clip-rule="evenodd" d="M8 16C12.4183 16 16 12.4183 16 8C16 3.58172 12.4183 0 8 0C3.58172 0 0 3.58172 0 8C0 12.4183 3.58172 16 8 16ZM4 11.0193C4 11.2788 4.10327 11.5277 4.28703 11.711V11.7179C4.67009 12.0955 5.28545 12.0955 5.6685 11.7179L10.046 7.33356V9.86203C10.0481 10.4002 10.4849 10.8353 11.023 10.8353C11.5611 10.8353 11.9979 10.4002 12 9.86203V4.97701C12 4.43742 11.5626 4 11.023 4H6.13797C5.59984 4.00206 5.1647 4.43887 5.1647 4.977C5.1647 5.51513 5.59984 5.95194 6.13797 5.954H8.66451L4.28703 10.3276C4.10327 10.5109 4 10.7597 4 11.0193Z" />
</svg>
