<svg fill="none" height="256" viewBox="0 0 256 256" width="256" xmlns="http://www.w3.org/2000/svg"><rect fill="#2700ff" height="256" rx="40" width="256"/><path clip-rule="evenodd" d="m204.801 95.5099-.001 113.8231h-33.92l.001-55.221c-12.168 9.678-26.5 14.721-42.881 14.721s-30.7129-5.043-42.8811-14.721l.0011 55.221h-33.92l.0002-113.8223c4.9548 3.0048 10.7572 4.7323 16.9598 4.7323 6.2025 0 12.0049-1.7275 16.9597-4.7322l-.0006 1.1486c10.6394 26.8756 24.6109 38.6076 42.8809 38.6076s32.242-11.732 42.881-38.6076l-.001-1.1486c4.955 3.0047 10.757 4.7322 16.96 4.7322s12.006-1.7278 16.961-4.7331zm-136.641-8.1765c11.1341 0 20.16-9.1035 20.16-20.3333s-9.0259-20.3334-20.16-20.3334-20.16 9.1036-20.16 20.3334 9.0259 20.3333 20.16 20.3333zm119.68 0c11.134 0 20.16-9.1035 20.16-20.3333s-9.026-20.3334-20.16-20.3334-20.16 9.1036-20.16 20.3334 9.026 20.3333 20.16 20.3333z" fill="#fff" fill-rule="evenodd"/></svg>