<svg width="238" height="80" viewBox="0 0 238 80" fill="none" xmlns="http://www.w3.org/2000/svg">
  <!--<style>-->
  <!--  rect {-->
  <!--  fill: #171717;-->
  <!--  }-->
  <!--  path {-->
  <!--  fill: #171717;-->
  <!--  }-->
  <!--  @media (prefers-color-scheme: dark) {-->
  <!--  rect {-->
  <!--  fill: #eeeeee;-->
  <!--  }-->
  <!--  path {-->
  <!--  fill: #eeeeee;-->
  <!--  }-->
  <!--  }-->
  <!--</style>-->
  <path d="M102.105 71V39.59H111.78C120.915 39.59 126.63 45.71 126.63 55.205C126.63 64.79 120.915 71 111.78 71H102.105ZM106.875 66.95H111.78C117.9 66.95 121.635 62.315 121.635 55.205C121.635 48.14 117.9 43.64 111.78 43.64H106.875V66.95ZM141.813 71.54C134.118 71.54 129.438 66.68 129.438 58.58C129.438 50.525 134.118 45.71 141.993 45.71C149.958 45.71 153.963 50.435 153.468 58.085H133.983C133.983 58.31 133.983 58.535 133.983 58.76C133.983 64.115 136.818 67.76 141.813 67.76C145.728 67.76 148.518 65.78 149.103 62.585H153.648C152.838 68.165 148.383 71.54 141.813 71.54ZM141.993 49.445C138.168 49.445 135.603 51.29 134.568 54.665L148.833 54.71C148.608 51.515 145.818 49.445 141.993 49.445ZM158.48 71V39.59H170.54C177.335 39.59 181.79 43.46 181.79 49.445C181.79 55.52 177.155 59.525 170.135 59.525H163.25V71H158.48ZM170.54 43.64H163.25V55.475H170.09C174.14 55.475 176.795 53.045 176.795 49.445C176.795 45.935 174.32 43.64 170.54 43.64ZM184.373 71V39.59H189.143V52.685H202.958V39.59H207.728V71H202.958V56.735H189.143V71H184.373ZM220.12 71V58.265L209.725 39.59H214.945L219.805 48.23L222.595 54.125L225.43 48.185L230.29 39.59H235.465L224.89 58.265V71H220.12Z" fill="#171717"/>
<rect x="72" y="36" width="36" height="3.6" transform="rotate(90 72 36)" fill="#171717"/>
<rect x="61.2" y="36" width="36" height="3.6" transform="rotate(90 61.2 36)" fill="#171717"/>
<rect x="50.4" y="36" width="36" height="3.6" transform="rotate(90 50.4 36)" fill="#171717"/>
<path fill-rule="evenodd" clip-rule="evenodd" d="M15.9 43.5C15.9 23.6178 32.0178 7.5 51.9 7.5V11.1C34.006 11.1 19.5 25.606 19.5 43.5H15.9Z" fill="#171717"/>
</svg>
