<svg width="25" height="25" viewBox="0 0 25 25" fill="none" xmlns="http://www.w3.org/2000/svg">
<g clip-path="url(#clip0_23_3477)">
<path d="M4.89014 21.8729H20.8901C21.1554 21.8729 21.4097 21.7676 21.5972 21.58C21.7848 21.3925 21.8901 21.1381 21.8901 20.8729V4.87292C21.8901 4.60771 21.7848 4.35335 21.5972 4.16582C21.4097 3.97828 21.1554 3.87292 20.8901 3.87292H4.89014C4.62492 3.87292 4.37057 3.97828 4.18303 4.16582C3.99549 4.35335 3.89014 4.60771 3.89014 4.87292V20.8729C3.89014 21.1381 3.99549 21.3925 4.18303 21.58C4.37057 21.7676 4.62492 21.8729 4.89014 21.8729ZM5.89014 19.8729V5.87292H19.8901V19.8729H5.89014ZM11.8901 13.8729V17.8729H13.8901V13.8729H17.8901V11.8729H13.8901V7.87292H11.8901V11.8729H7.89014V13.8729H11.8901Z" fill="black"/>
</g>
<defs>
<clipPath id="clip0_23_3477">
<rect width="24" height="24" fill="white" transform="matrix(1 0 0 -1 0.890137 24.8729)"/>
</clipPath>
</defs>
</svg>
