<svg width="25" height="24" viewBox="0 0 25 24" fill="none" xmlns="http://www.w3.org/2000/svg">
<g clip-path="url(#clip0_3_2637)">
<path d="M12.024 3.49999L2.49804 20C2.41027 20.152 2.36407 20.3244 2.36407 20.5C2.36407 20.6755 2.41027 20.848 2.49804 21C2.5858 21.152 2.71203 21.2782 2.86405 21.366C3.01607 21.4538 3.18851 21.5 3.36404 21.5L22.416 21.5C22.5916 21.5 22.764 21.4538 22.916 21.366C23.068 21.2782 23.1943 21.152 23.282 21C23.3698 20.848 23.416 20.6755 23.416 20.5C23.416 20.3244 23.3698 20.152 23.282 20L13.756 3.49999C13.6683 3.34798 13.542 3.22175 13.39 3.13399C13.238 3.04623 13.0656 3.00003 12.89 3.00003C12.7145 3.00003 12.5421 3.04623 12.3901 3.13399C12.238 3.22175 12.1118 3.34798 12.024 3.49999ZM20.684 19.5L5.09604 19.5L12.89 5.99999L20.684 19.5ZM13.89 16.5H11.89V18.5H13.89V16.5ZM13.89 9.49999L11.89 9.49999L11.89 14.5H13.89L13.89 9.49999Z" fill="currentColor"/>
</g>
<defs>
<clipPath id="clip0_3_2637">
<rect width="24" height="24" fill="white" transform="matrix(1 0 0 -1 0.890137 24)"/>
</clipPath>
</defs>
</svg>
