<?xml version="1.0" standalone="no"?><!DOCTYPE svg PUBLIC "-//W3C//DTD SVG 1.1//EN" "http://www.w3.org/Graphics/SVG/1.1/DTD/svg11.dtd"><svg t="1681585664130" class="icon" viewBox="0 0 1024 1024" version="1.1" xmlns="http://www.w3.org/2000/svg" p-id="6057" xmlns:xlink="http://www.w3.org/1999/xlink" width="200" height="200"><path d="M1024 512c0-281.6-230.4-512-512-512S0 230.4 0 512c0 107.52 30.72 204.8 87.04 286.72 10.24 10.24 15.36 20.48 25.6 30.72l5.12 5.12c51.2 61.44 117.76 112.64 189.44 143.36 0 0 5.12 0 5.12 5.12 10.24 5.12 20.48 10.24 30.72 10.24 5.12 0 10.24 5.12 15.36 5.12 10.24 5.12 20.48 5.12 30.72 5.12 5.12 0 15.36 5.12 20.48 5.12h5.12c10.24 0 25.6 5.12 35.84 5.12H460.8c15.36 0 35.84 5.12 51.2 5.12h15.36c15.36 0 30.72 0 46.08-5.12 10.24 0 20.48-5.12 25.6-5.12 15.36 0 25.6-5.12 40.96-10.24 10.24-5.12 20.48-5.12 30.72-10.24l46.08-15.36c10.24-5.12 15.36-5.12 25.6-10.24 15.36-5.12 30.72-15.36 40.96-25.6 5.12 0 10.24-5.12 10.24-5.12 51.2-35.84 97.28-81.92 138.24-138.24v-5.12C993.28 716.8 1024 619.52 1024 512zM512 102.4c225.28 0 409.6 184.32 409.6 409.6 0 66.56-15.36 128-40.96 179.2-51.2-35.84-107.52-66.56-168.96-87.04 20.48-20.48 30.72-46.08 40.96-76.8 20.48-66.56 20.48-133.12-10.24-194.56C680.96 204.8 527.36 153.6 399.36 209.92c-128 61.44-179.2 215.04-122.88 343.04 10.24 20.48 20.48 35.84 30.72 51.2-61.44 20.48-117.76 51.2-168.96 87.04-20.48-51.2-35.84-112.64-35.84-179.2 0-225.28 184.32-409.6 409.6-409.6z m296.96 691.2c-5.12 5.12-5.12 10.24-10.24 10.24l-20.48 20.48c-5.12 5.12-10.24 5.12-15.36 10.24-71.68 51.2-153.6 87.04-250.88 87.04h-40.96-5.12c-10.24 0-20.48-5.12-30.72-5.12-20.48-5.12-35.84-10.24-56.32-15.36-5.12 0-10.24-5.12-15.36-5.12-15.36-5.12-35.84-15.36-51.2-25.6-5.12-5.12-10.24-5.12-15.36-10.24-15.36-10.24-25.6-15.36-40.96-25.6-5.12-5.12-10.24-5.12-15.36-10.24-15.36-10.24-25.6-25.6-35.84-35.84l-5.12-5.12c66.56-51.2 148.48-87.04 230.4-102.4 20.48-5.12 40.96-20.48 40.96-40.96s-10.24-46.08-30.72-51.2c-30.72-15.36-56.32-40.96-71.68-71.68-30.72-81.92 0-174.08 76.8-209.92 76.8-35.84 168.96-5.12 204.8 71.68 15.36 35.84 20.48 76.8 5.12 117.76-15.36 40.96-40.96 71.68-76.8 87.04-20.48 10.24-30.72 30.72-30.72 51.2s20.48 40.96 40.96 40.96c81.92 15.36 163.84 51.2 230.4 102.4 0 5.12-5.12 10.24-10.24 15.36z" fill="#ffffff" p-id="6058"></path></svg>