<svg width="25" height="25" viewBox="0 0 25 25" fill="none" xmlns="http://www.w3.org/2000/svg">
<g clip-path="url(#clip0_2_237)">
<path d="M19.8901 2.22931L5.89014 2.22931C5.62492 2.22931 5.37057 2.33466 5.18303 2.5222C4.99549 2.70974 4.89014 2.96409 4.89014 3.22931L4.89013 22.3723C4.89002 22.4617 4.91388 22.5495 4.95924 22.6266C5.00459 22.7036 5.06977 22.7671 5.14799 22.8104C5.22621 22.8537 5.31461 22.8752 5.40399 22.8727C5.49336 22.8703 5.58043 22.8439 5.65614 22.7963L12.8901 18.2593L20.1241 22.7953C20.1998 22.8428 20.2867 22.8692 20.376 22.8717C20.4653 22.8743 20.5536 22.8528 20.6318 22.8096C20.71 22.7665 20.7752 22.7031 20.8207 22.6262C20.8661 22.5493 20.8901 22.4616 20.8901 22.3723L20.8901 3.22931C20.8901 2.96409 20.7848 2.70974 20.5972 2.5222C20.4097 2.33467 20.1554 2.22931 19.8901 2.22931ZM6.89014 4.22931L18.8901 4.22931L18.8901 19.6613L12.8901 15.9003L6.89014 19.6613L6.89014 4.22931Z" fill="black"/>
</g>
<defs>
<clipPath id="clip0_2_237">
<rect width="24" height="24" fill="white" transform="matrix(1 0 0 -1 0.890137 24.8729)"/>
</clipPath>
</defs>
</svg>
