<svg width="25" height="25" viewBox="0 0 25 25" fill="none" xmlns="http://www.w3.org/2000/svg">
<g clip-path="url(#clip0_2_240)">
<path d="M17.8901 7.87292L17.8901 4.87292C17.8901 4.60771 17.7848 4.35335 17.5972 4.16582C17.4097 3.97828 17.1554 3.87292 16.8901 3.87292L8.89014 3.87292C8.62492 3.87292 8.37057 3.97828 8.18303 4.16582C7.99549 4.35335 7.89014 4.60771 7.89014 4.87292L7.89014 7.87292L3.89014 7.87292C3.62492 7.87292 3.37057 7.97828 3.18303 8.16582C2.99549 8.35335 2.89014 8.60771 2.89014 8.87292L2.89014 22.8729C2.89014 23.1381 2.99549 23.3925 3.18303 23.58C3.37056 23.7676 3.62492 23.8729 3.89013 23.8729L21.8901 23.8729C22.1554 23.8729 22.4097 23.7676 22.5972 23.58C22.7848 23.3925 22.8901 23.1381 22.8901 22.8729L22.8901 8.87292C22.8901 8.60771 22.7848 8.35335 22.5972 8.16582C22.4097 7.97828 22.1554 7.87292 21.8901 7.87292L17.8901 7.87292ZM7.89014 15.8729L7.89014 12.8729L9.89014 12.8729L9.89014 15.8729L15.8901 15.8729L15.8901 12.8729L17.8901 12.8729L17.8901 15.8729L20.8901 15.8729L20.8901 21.8729L4.89014 21.8729L4.89014 15.8729L7.89014 15.8729ZM15.8901 5.87292L15.8901 7.87292L9.89014 7.87292L9.89014 5.87292L15.8901 5.87292Z" fill="black"/>
</g>
<defs>
<clipPath id="clip0_2_240">
<rect width="24" height="24" fill="white" transform="matrix(1 0 0 -1 0.890137 24.8729)"/>
</clipPath>
</defs>
</svg>
