<svg width="25" height="25" viewBox="0 0 25 25" fill="none" xmlns="http://www.w3.org/2000/svg">
<g clip-path="url(#clip0_2_246)">
<path d="M12.8901 2.87292C7.36714 2.87292 2.89014 7.34993 2.89014 12.8729C2.89014 18.3959 7.36714 22.8729 12.8901 22.8729C18.4131 22.8729 22.8901 18.3959 22.8901 12.8729C22.8901 7.34993 18.4131 2.87292 12.8901 2.87292ZM12.8901 4.87292C15.0119 4.87292 17.0467 5.71578 18.547 7.21607C20.0473 8.71636 20.8901 10.7512 20.8901 12.8729C20.8901 14.9947 20.0473 17.0295 18.547 18.5298C17.0467 20.0301 15.0119 20.8729 12.8901 20.8729C10.7684 20.8729 8.73357 20.0301 7.23328 18.5298C5.73299 17.0295 4.89014 14.9947 4.89014 12.8729C4.89014 10.7512 5.73299 8.71636 7.23328 7.21607C8.73357 5.71578 10.7684 4.87292 12.8901 4.87292ZM12.8901 14.2869L15.7181 17.1159L17.1331 15.7009L14.3041 12.8729L17.1331 10.0449L15.7181 8.62992L12.8901 11.4589L10.0621 8.62992L8.64714 10.0449L11.4761 12.8729L8.64714 15.7009L10.0621 17.1159L12.8901 14.2869Z" fill="black"/>
</g>
<defs>
<clipPath id="clip0_2_246">
<rect width="24" height="24" fill="white" transform="matrix(1 0 0 -1 0.890137 24.8729)"/>
</clipPath>
</defs>
</svg>
