<svg width="25" height="24" viewBox="0 0 25 24" fill="none" xmlns="http://www.w3.org/2000/svg">
<g clip-path="url(#clip0_3_3170)">
<path d="M3.89014 21H21.8901C22.1554 21 22.4097 20.8946 22.5972 20.7071C22.7848 20.5196 22.8901 20.2652 22.8901 20V4C22.8901 3.73478 22.7848 3.48043 22.5972 3.29289C22.4097 3.10536 22.1554 3 21.8901 3H3.89014C3.62492 3 3.37057 3.10536 3.18303 3.29289C2.99549 3.48043 2.89014 3.73478 2.89014 4V20C2.89014 20.2652 2.99549 20.5196 3.18303 20.7071C3.37057 20.8946 3.62492 21 3.89014 21ZM17.3541 8.464L20.8901 12L17.3541 15.536L15.9401 14.12L18.0621 12L15.9401 9.879L17.3541 8.464ZM7.71814 12L9.84014 14.121L8.42614 15.536L4.89014 12L8.42614 8.464L9.84014 9.88L7.71814 12ZM12.1341 7L15.7741 17H13.6461L10.0061 7H12.1341Z" fill="black"/>
</g>
<defs>
<clipPath id="clip0_3_3170">
<rect width="24" height="24" fill="white" transform="matrix(1 0 0 -1 0.890137 24)"/>
</clipPath>
</defs>
</svg>
