<svg width="25" height="25" viewBox="0 0 25 25" fill="none" xmlns="http://www.w3.org/2000/svg">
<g clip-path="url(#clip0_2_249)">
<path d="M21.8901 3.87292L3.89014 3.87292C3.62492 3.87292 3.37057 3.97828 3.18303 4.16582C2.99549 4.35335 2.89014 4.60771 2.89014 4.87292L2.89014 20.8729C2.89014 21.1381 2.99549 21.3925 3.18303 21.58C3.37057 21.7676 3.62492 21.8729 3.89014 21.8729L21.8901 21.8729C22.1554 21.8729 22.4097 21.7676 22.5972 21.58C22.7848 21.3925 22.8901 21.1381 22.8901 20.8729L22.8901 4.87292C22.8901 4.60771 22.7848 4.35335 22.5972 4.16582C22.4097 3.97828 22.1554 3.87292 21.8901 3.87292ZM8.42614 16.4089L4.89014 12.8729L8.42614 9.33692L9.84014 10.7529L7.71814 12.8729L9.84014 14.9939L8.42614 16.4089ZM18.0621 12.8729L15.9401 10.7519L17.3541 9.33692L20.8901 12.8729L17.3541 16.4089L15.9401 14.9929L18.0621 12.8729ZM13.6461 17.8729L10.0061 7.87292H12.1341L15.7741 17.8729H13.6461Z" />
</g>
<defs>
<clipPath id="clip0_2_249">
<rect width="24" height="24" fill="white" transform="matrix(1 0 0 -1 0.890137 24.8729)"/>
</clipPath>
</defs>
</svg>
