<svg width="25" height="24" viewBox="0 0 25 24" fill="none" xmlns="http://www.w3.org/2000/svg">
<g clip-path="url(#clip0_2_255)">
<path d="M14.8901 2.00397C16.7201 2.00309 18.495 2.62963 19.919 3.77909C21.3429 4.92855 22.3297 6.53144 22.7148 8.32044C23.0999 10.1094 22.86 11.9764 22.0352 13.6099C21.2103 15.2434 19.8503 16.5448 18.1821 17.297C17.6489 18.4759 16.8376 19.5079 15.818 20.3044C14.7983 21.1009 13.6007 21.6383 12.3277 21.8703C11.0548 22.1023 9.7446 22.0222 8.50947 21.6367C7.27433 21.2511 6.15114 20.5718 5.23621 19.6569C4.32129 18.7419 3.64193 17.6187 3.25642 16.3836C2.8709 15.1485 2.79072 13.8383 3.02276 12.5653C3.2548 11.2924 3.79213 10.0948 4.58867 9.07511C5.38521 8.05545 6.41719 7.24421 7.5961 6.71097C8.23024 5.30786 9.25569 4.11747 10.5494 3.28258C11.8432 2.44768 13.3503 2.00373 14.8901 2.00397ZM11.8901 9.00397H9.8901V10.004C9.24021 10.0024 8.61525 10.2539 8.14769 10.7053C7.68012 11.1567 7.40669 11.7724 7.38537 12.4219C7.36404 13.0715 7.59649 13.7038 8.03344 14.1848C8.4704 14.6659 9.07751 14.9579 9.7261 14.999L9.8901 15.004L11.8901 15.004L11.9801 15.012C12.0954 15.0328 12.1997 15.0935 12.2748 15.1835C12.3499 15.2734 12.391 15.3868 12.391 15.504C12.391 15.6211 12.3499 15.7346 12.2748 15.8245C12.1997 15.9144 12.0954 15.9751 11.9801 15.996L11.8901 16.004H7.8901V18.004H9.8901V19.004H11.8901V18.004C12.54 18.0055 13.1649 17.754 13.6325 17.3026C14.1001 16.8513 14.3735 16.2356 14.3948 15.586C14.4162 14.9365 14.1837 14.3042 13.7468 13.8231C13.3098 13.342 12.7027 13.05 12.0541 13.009L11.8901 13.004L9.8901 13.004L9.8001 12.996C9.68482 12.9751 9.58053 12.9144 9.50543 12.8245C9.43033 12.7346 9.38919 12.6211 9.38919 12.504C9.38919 12.3868 9.43033 12.2734 9.50543 12.1835C9.58053 12.0935 9.68482 12.0328 9.8001 12.012L9.8901 12.004L13.8901 12.004V10.004H11.8901L11.8901 9.00397ZM14.8901 4.00397C14.0428 4.00298 13.2049 4.18191 12.4319 4.52893C11.6589 4.87595 10.9684 5.38315 10.4061 6.01697C11.5364 5.94835 12.6683 6.12046 13.7271 6.52191C14.7859 6.92337 15.7474 7.54501 16.548 8.34575C17.3487 9.14648 17.9702 10.1081 18.3715 11.1669C18.7729 12.2257 18.9448 13.3577 18.8761 14.488C19.7853 13.6796 20.4273 12.6139 20.7169 11.4323C21.0065 10.2506 20.9301 9.00888 20.4977 7.87169C20.0654 6.7345 19.2975 5.75561 18.296 5.06485C17.2945 4.37409 16.1067 4.00411 14.8901 4.00397Z" fill="black"/>
</g>
<defs>
<clipPath id="clip0_2_255">
<rect width="24" height="24" fill="white" transform="matrix(1 0 0 -1 0.890137 24)"/>
</clipPath>
</defs>
</svg>
