<svg width="25" height="24" viewBox="0 0 25 24" fill="none" xmlns="http://www.w3.org/2000/svg">
<g clip-path="url(#clip0_2_258)">
<path d="M14.8901 2.00397C16.7201 2.00309 18.495 2.62963 19.919 3.77909C21.3429 4.92855 22.3297 6.53144 22.7148 8.32044C23.0999 10.1094 22.86 11.9764 22.0352 13.6099C21.2103 15.2434 19.8503 16.5448 18.1821 17.297C17.6489 18.4759 16.8376 19.5079 15.818 20.3044C14.7983 21.1009 13.6007 21.6383 12.3277 21.8703C11.0548 22.1023 9.7446 22.0222 8.50947 21.6367C7.27433 21.2511 6.15114 20.5718 5.23621 19.6569C4.32129 18.7419 3.64193 17.6187 3.25642 16.3836C2.8709 15.1485 2.79072 13.8383 3.02276 12.5653C3.2548 11.2924 3.79213 10.0948 4.58867 9.07511C5.38521 8.05545 6.41719 7.24421 7.5961 6.71097C8.23024 5.30786 9.25569 4.11747 10.5494 3.28258C11.8432 2.44768 13.3503 2.00373 14.8901 2.00397ZM10.8901 8.00397C10.1022 8.00397 9.32195 8.15916 8.594 8.46069C7.86605 8.76222 7.20461 9.20418 6.64746 9.76133C6.09031 10.3185 5.64835 10.9799 5.34682 11.7079C5.0453 12.4358 4.8901 13.216 4.8901 14.004C4.8901 14.7919 5.0453 15.5721 5.34682 16.3001C5.64835 17.028 6.09031 17.6895 6.64746 18.2466C7.20461 18.8038 7.86605 19.2457 8.594 19.5472C9.32195 19.8488 10.1022 20.004 10.8901 20.004C12.4814 20.004 14.0075 19.3718 15.1327 18.2466C16.258 17.1214 16.8901 15.5953 16.8901 14.004C16.8901 12.4127 16.258 10.8865 15.1327 9.76133C14.0075 8.63611 12.4814 8.00397 10.8901 8.00397ZM11.8901 9.00397L11.8901 10.004H13.8901V12.004L9.8901 12.004C9.76515 12.0037 9.64465 12.0503 9.55232 12.1345C9.45999 12.2187 9.40251 12.3344 9.39123 12.4588C9.37994 12.5832 9.41565 12.7074 9.49132 12.8068C9.567 12.9062 9.67715 12.9737 9.8001 12.996L9.8901 13.004L11.8901 13.004C12.5531 13.004 13.189 13.2674 13.6579 13.7362C14.1267 14.205 14.3901 14.8409 14.3901 15.504C14.3901 16.167 14.1267 16.8029 13.6579 17.2717C13.189 17.7406 12.5531 18.004 11.8901 18.004V19.004H9.8901V18.004H7.8901V16.004H11.8901C12.015 16.0042 12.1356 15.9576 12.2279 15.8735C12.3202 15.7893 12.3777 15.6736 12.389 15.5491C12.4003 15.4247 12.3646 15.3006 12.2889 15.2011C12.2132 15.1017 12.103 15.0342 11.9801 15.012L11.8901 15.004L9.8901 15.004C9.22706 15.004 8.59118 14.7406 8.12233 14.2717C7.65349 13.8029 7.3901 13.167 7.3901 12.504C7.3901 11.8409 7.65349 11.205 8.12233 10.7362C8.59118 10.2674 9.22706 10.004 9.8901 10.004V9.00397H11.8901ZM14.8901 4.00397C14.0428 4.00298 13.2049 4.18191 12.4319 4.52893C11.6589 4.87595 10.9684 5.38315 10.4061 6.01697C11.5364 5.94835 12.6683 6.12046 13.7271 6.52191C14.7859 6.92337 15.7474 7.54501 16.548 8.34575C17.3487 9.14648 17.9702 10.1081 18.3715 11.1669C18.7729 12.2257 18.9448 13.3577 18.8761 14.488C19.7853 13.6796 20.4273 12.6139 20.7169 11.4323C21.0065 10.2506 20.9301 9.00888 20.4977 7.87169C20.0654 6.7345 19.2975 5.75561 18.296 5.06485C17.2945 4.37409 16.1067 4.00411 14.8901 4.00397Z" />
</g>
<defs>
<clipPath id="clip0_2_258">
<rect width="24" height="24" fill="white" transform="matrix(1 0 0 -1 0.890137 24)"/>
</clipPath>
</defs>
</svg>
