<svg width="25" height="24" viewBox="0 0 25 24" fill="none" xmlns="http://www.w3.org/2000/svg">
<g clip-path="url(#clip0_2_261)">
<path d="M12.8901 2C18.4101 2 22.8901 6.48 22.8901 12C22.8901 17.52 18.4101 22 12.8901 22C7.37014 22 2.89014 17.52 2.89014 12C2.89014 6.48 7.37014 2 12.8901 2ZM12.8901 4C8.47014 4 4.89014 7.58 4.89014 12C4.89014 16.42 8.47014 20 12.8901 20C17.3101 20 20.8901 16.42 20.8901 12C20.8901 7.58 17.3101 4 12.8901 4ZM12.8901 7C14.7101 7 16.3031 7.973 17.1781 9.428L15.4641 10.457C14.9391 9.584 13.9831 9 12.8901 9C11.2321 9 9.89014 10.342 9.89014 12C9.89014 13.658 11.2321 15 12.8901 15C13.9831 15 14.9381 14.417 15.4631 13.544L17.1781 14.572C16.3031 16.027 14.7101 17 12.8901 17C10.1301 17 7.89014 14.76 7.89014 12C7.89014 9.24 10.1301 7 12.8901 7Z" fill="black"/>
</g>
<defs>
<clipPath id="clip0_2_261">
<rect width="24" height="24" fill="white" transform="matrix(1 0 0 -1 0.890137 24)"/>
</clipPath>
</defs>
</svg>
