<svg width="25" height="25" viewBox="0 0 25 25" fill="none" xmlns="http://www.w3.org/2000/svg">
<g clip-path="url(#clip0_2_264)">
<path d="M18.4761 16.8437L8.33414 6.70174L9.74814 5.28774L19.8901 15.4297L19.8901 16.8437L18.4761 16.8437ZM17.6471 18.8437L21.8901 18.8437L21.8901 14.6007L10.4551 3.16574C10.2676 2.97827 10.0133 2.87295 9.74814 2.87295C9.48297 2.87295 9.22866 2.97827 9.04114 3.16574L6.21214 5.99474C6.02467 6.18227 5.91935 6.43658 5.91935 6.70174C5.91935 6.9669 6.02467 7.22121 6.21214 7.40874L17.6471 18.8437ZM21.8901 20.8437L3.89014 20.8437L3.89013 22.8437L21.8901 22.8437L21.8901 20.8437Z" fill="black"/>
</g>
<defs>
<clipPath id="clip0_2_264">
<rect width="24" height="24" fill="white" transform="matrix(1 0 0 -1 0.890137 24.8729)"/>
</clipPath>
</defs>
</svg>
