<svg width="25" height="25" viewBox="0 0 25 25" fill="none" xmlns="http://www.w3.org/2000/svg">
<g clip-path="url(#clip0_37_2414)">
<path d="M12.8901 22.127C7.36714 22.127 2.89014 17.65 2.89014 12.127C2.89014 6.60395 7.36714 2.12695 12.8901 2.12695C18.4131 2.12695 22.8901 6.60395 22.8901 12.127C22.8901 17.65 18.4131 22.127 12.8901 22.127ZM12.8901 20.127C15.0119 20.127 17.0467 19.2841 18.547 17.7838C20.0473 16.2835 20.8901 14.2487 20.8901 12.127C20.8901 10.0052 20.0473 7.97039 18.547 6.4701C17.0467 4.96981 15.0119 4.12695 12.8901 4.12695C10.7684 4.12695 8.73357 4.96981 7.23328 6.4701C5.73299 7.97039 4.89014 10.0052 4.89014 12.127C4.89014 14.2487 5.73299 16.2835 7.23328 17.7838C8.73357 19.2841 10.7684 20.127 12.8901 20.127ZM11.8901 15.127H13.8901V17.127H11.8901V15.127ZM11.8901 7.12695H13.8901V13.127H11.8901V7.12695Z" fill="black"/>
</g>
<defs>
<clipPath id="clip0_37_2414">
<rect width="24" height="24" fill="white" transform="translate(0.890137 0.126953)"/>
</clipPath>
</defs>
</svg>
