<svg width="25" height="25" viewBox="0 0 25 25" fill="none" xmlns="http://www.w3.org/2000/svg">

    <g clip-path="url(#clip0_2_267)">
<path  d="M12.8903 21.8729C18.2823 21.8729 22.7683 17.9929 23.7093 12.8729C22.7693 7.75292 18.2823 3.87292 12.8903 3.87292C7.49829 3.87292 3.01229 7.75292 2.07129 12.8729C3.01129 17.9929 7.49829 21.8729 12.8903 21.8729ZM12.8903 5.87292C14.9298 5.87337 16.9087 6.5661 18.5031 7.83776C20.0976 9.10941 21.2132 10.8847 21.6673 12.8729C21.2115 14.8596 20.0952 16.6329 18.5009 17.9029C16.9066 19.1729 14.9286 19.8644 12.8903 19.8644C10.852 19.8644 8.87398 19.1729 7.27966 17.9029C5.68535 16.6329 4.56906 14.8596 4.11329 12.8729C4.56739 10.8847 5.68296 9.10941 7.27743 7.83776C8.8719 6.5661 10.8508 5.87337 12.8903 5.87292ZM12.8903 8.37292C11.6968 8.37292 10.5522 8.84703 9.70831 9.69094C8.8644 10.5349 8.39029 11.6795 8.39029 12.8729C8.39029 14.0664 8.8644 15.211 9.70831 16.0549C10.5522 16.8988 11.6968 17.3729 12.8903 17.3729C14.0838 17.3729 15.2284 16.8988 16.0723 16.0549C16.9162 15.211 17.3903 14.0664 17.3903 12.8729C17.3903 11.6795 16.9162 10.5349 16.0723 9.69094C15.2284 8.84703 14.0838 8.37292 12.8903 8.37292ZM12.8903 10.3729C13.5533 10.3729 14.1892 10.6363 14.6581 11.1052C15.1269 11.574 15.3903 12.2099 15.3903 12.8729C15.3903 13.536 15.1269 14.1719 14.6581 14.6407C14.1892 15.1095 13.5533 15.3729 12.8903 15.3729C12.2272 15.3729 11.5914 15.1095 11.1225 14.6407C10.6537 14.1719 10.3903 13.536 10.3903 12.8729C10.3903 12.2099 10.6537 11.574 11.1225 11.1052C11.5914 10.6363 12.2272 10.3729 12.8903 10.3729Z" fill="currentColor"/>
</g>
<defs>
<clipPath id="clip0_2_267">
<rect width="24" height="24" fill="white" transform="matrix(1 0 0 -1 0.890137 24.8729)"/>
</clipPath>
</defs>
</svg>
