<svg width="25" height="25" viewBox="0 0 25 25" fill="none" xmlns="http://www.w3.org/2000/svg">
<g clip-path="url(#clip0_27_5575)">
<path d="M21.8901 8.12695V21.12C21.8911 21.2513 21.8661 21.3815 21.8167 21.5032C21.7673 21.6249 21.6944 21.7356 21.6022 21.8291C21.51 21.9226 21.4003 21.9971 21.2793 22.0482C21.1583 22.0993 21.0285 22.126 20.8971 22.127H4.88314C4.61995 22.127 4.36753 22.0225 4.18133 21.8365C3.99514 21.6505 3.8904 21.3981 3.89014 21.135V3.11895C3.89014 2.58195 4.33914 2.12695 4.89214 2.12695H15.8871L21.8901 8.12695ZM19.8901 9.12695H14.8901V4.12695H5.89014V20.127H19.8901V9.12695ZM8.89014 7.12695H11.8901V9.12695H8.89014V7.12695ZM8.89014 11.127H16.8901V13.127H8.89014V11.127ZM8.89014 15.127H16.8901V17.127H8.89014V15.127Z" />
</g>
<defs>
<clipPath id="clip0_27_5575">
<rect width="24" height="24" fill="white" transform="translate(0.890137 0.126953)"/>
</clipPath>
</defs>
</svg>
