<svg width="25" height="25" viewBox="0 0 25 25" fill="none" xmlns="http://www.w3.org/2000/svg">
<g clip-path="url(#clip0_2_273)">
<path d="M20.4841 15.3959L17.0821 11.9939L14.2541 14.8229L11.0971 11.6659L12.8901 9.87292L7.89013 9.87292L7.89013 14.8729L9.68313 13.0799L14.2541 17.6509L17.0821 14.8229L19.5571 17.2969C18.4337 18.9878 16.7095 20.1883 14.7339 20.6553C12.7583 21.1222 10.679 20.8206 8.91751 19.8116C7.15598 18.8026 5.84392 17.1617 5.2472 15.2213C4.65047 13.281 4.81373 11.1863 5.70388 9.36186C6.59403 7.53739 8.1445 6.11955 10.0411 5.39567C11.9377 4.67179 14.0385 4.696 15.9179 5.46339C17.7973 6.23079 19.3147 7.68398 20.1626 9.52848C21.0105 11.373 21.1254 13.4708 20.4841 15.3969V15.3959ZM22.0221 16.9539L22.0321 16.9439L22.0281 16.9399C22.5982 15.6599 22.8919 14.2741 22.8901 12.8729C22.8901 7.34993 18.4131 2.87292 12.8901 2.87292C7.36713 2.87292 2.89013 7.34993 2.89013 12.8729C2.89013 18.3959 7.36713 22.8729 12.8901 22.8729C16.9601 22.8729 20.4601 20.4429 22.0221 16.9539Z" fill="black"/>
</g>
<defs>
<clipPath id="clip0_2_273">
<rect width="24" height="24" fill="white" transform="matrix(1 0 0 -1 0.890137 24.8729)"/>
</clipPath>
</defs>
</svg>
