<svg width="25" height="25" viewBox="0 0 25 25" fill="none" xmlns="http://www.w3.org/2000/svg">
<g clip-path="url(#clip0_2_270)">
<path d="M20.9931 18.7329L17.0831 14.8229L14.2541 17.6509L9.68313 13.0809L7.89013 14.8729L7.89013 9.87292L12.8901 9.87292L11.0971 11.6659L14.2541 14.8229L17.0821 11.9939L22.0281 16.9399C22.5982 15.6599 22.8919 14.2741 22.8901 12.8729C22.8901 7.34993 18.4131 2.87292 12.8901 2.87292C7.36713 2.87292 2.89013 7.34993 2.89013 12.8729C2.89013 18.3959 7.36713 22.8729 12.8901 22.8729C14.4721 22.874 16.0317 22.4992 17.4405 21.7794C18.8493 21.0596 20.0669 20.0155 20.9931 18.7329Z" fill="black"/>
</g>
<defs>
<clipPath id="clip0_2_270">
<rect width="24" height="24" fill="white" transform="matrix(1 0 0 -1 0.890137 24.8729)"/>
</clipPath>
</defs>
</svg>
