<svg width="25" height="25" viewBox="0 0 25 25" fill="none" xmlns="http://www.w3.org/2000/svg">
<g clip-path="url(#clip0_2_276)">
<path d="M13.8901 20.3729V22.8729L10.8901 20.8729L7.89014 22.8729V20.3729H7.39014C6.46188 20.3729 5.57164 20.0042 4.91526 19.3478C4.25889 18.6914 3.89014 17.8012 3.89014 16.8729L3.89014 4.37292C3.89014 3.57728 4.20621 2.81421 4.76882 2.2516C5.33143 1.689 6.09449 1.37292 6.89014 1.37292L20.8901 1.37292C21.1554 1.37292 21.4097 1.47828 21.5972 1.66582C21.7848 1.85335 21.8901 2.10771 21.8901 2.37292L21.8901 19.3729C21.8901 19.6381 21.7848 19.8925 21.5972 20.08C21.4097 20.2676 21.1554 20.3729 20.8901 20.3729L13.8901 20.3729ZM7.89014 18.3729V16.3729H13.8901V18.3729L19.8901 18.3729L19.8901 15.3729L7.39014 15.3729C6.99231 15.3729 6.61078 15.531 6.32948 15.8123C6.04817 16.0936 5.89014 16.4751 5.89014 16.8729C5.89014 17.2707 6.04817 17.6523 6.32948 17.9336C6.61078 18.2149 6.99231 18.3729 7.39014 18.3729H7.89014ZM7.89014 4.37292L7.89014 6.37292H9.89014V4.37292L7.89014 4.37292ZM7.89014 7.37292V9.37292H9.89014V7.37292H7.89014ZM7.89014 10.3729L7.89014 12.3729H9.89014L9.89014 10.3729H7.89014Z" />
</g>
<defs>
<clipPath id="clip0_2_276">
<rect width="24" height="24" fill="white" transform="matrix(1 0 0 -1 0.890137 24.8729)"/>
</clipPath>
</defs>
</svg>
