<svg width="25" height="25" viewBox="0 0 25 25" fill="none" xmlns="http://www.w3.org/2000/svg">
<g clip-path="url(#clip0_2_282)">
<path d="M2.93994 11.8729H8.41694C8.58806 8.70608 9.59749 5.64154 11.3419 2.99293C9.15687 3.33615 7.14714 4.39378 5.62696 6.00044C4.10678 7.60711 3.16186 9.67223 2.93994 11.8729ZM2.93994 13.8729C3.16186 16.0736 4.10678 18.1388 5.62696 19.7454C7.14714 21.3521 9.15687 22.4097 11.3419 22.7529C9.59749 20.1043 8.58806 17.0398 8.41694 13.8729H2.93994ZM22.8399 13.8729H17.3629C17.1918 17.0398 16.1824 20.1043 14.4379 22.7529C16.623 22.4097 18.6327 21.3521 20.1529 19.7454C21.6731 18.1388 22.618 16.0736 22.8399 13.8729ZM22.8399 11.8729C22.618 9.67223 21.6731 7.60711 20.1529 6.00044C18.6327 4.39378 16.623 3.33615 14.4379 2.99293C16.1824 5.64154 17.1918 8.70608 17.3629 11.8729H22.8399ZM10.4199 11.8729H15.3599C15.1953 9.17345 14.3452 6.56049 12.8899 4.28093C11.4346 6.56049 10.5845 9.17345 10.4199 11.8729ZM10.4199 13.8729C10.5845 16.5724 11.4346 19.1854 12.8899 21.4649C14.3452 19.1854 15.1953 16.5724 15.3599 13.8729H10.4199Z" fill="black"/>
</g>
<defs>
<clipPath id="clip0_2_282">
<rect width="24" height="24" fill="white" transform="matrix(1 0 0 -1 0.890137 24.8729)"/>
</clipPath>
</defs>
</svg>
