<svg width="25" height="24" viewBox="0 0 25 24" fill="current" xmlns="http://www.w3.org/2000/svg">
<g clip-path="url(#clip0_2_288)">
<path d="M3.89014 20C3.89014 20.2652 3.99549 20.5196 4.18303 20.7071C4.37057 20.8946 4.62492 21 4.89014 21L20.8901 21C21.1554 21 21.4097 20.8946 21.5972 20.7071C21.7848 20.5196 21.8901 20.2652 21.8901 20L21.8901 4C21.8901 3.73478 21.7848 3.48043 21.5972 3.29289C21.4097 3.10536 21.1554 3 20.8901 3L4.89014 3C4.62492 3 4.37057 3.10536 4.18303 3.29289C3.99549 3.48043 3.89014 3.73478 3.89014 4L3.89014 20ZM13.8901 5L19.8901 5V19H13.8901L13.8901 5ZM5.89014 13H11.8901V19H5.89014L5.89014 13ZM5.89014 5H11.8901L11.8901 11L5.89014 11V5Z" />
</g>
<defs>
<clipPath id="clip0_2_288">
<rect width="24" height="24" fill="white" transform="matrix(1 0 0 -1 0.890137 24)"/>
</clipPath>
</defs>
</svg>
