<svg width="25" height="24" viewBox="0 0 25 24" fill="none" xmlns="http://www.w3.org/2000/svg">
<g clip-path="url(#clip0_2_285)">
<path d="M13.8901 3L13.8901 21H20.8901C21.1554 21 21.4097 20.8946 21.5972 20.7071C21.7848 20.5196 21.8901 20.2652 21.8901 20L21.8901 4C21.8901 3.73478 21.7848 3.48043 21.5972 3.29289C21.4097 3.10536 21.1554 3 20.8901 3L13.8901 3ZM3.89014 13L3.89014 20C3.89014 20.2652 3.99549 20.5196 4.18303 20.7071C4.37057 20.8946 4.62492 21 4.89014 21L11.8901 21V13H3.89014ZM4.89014 3C4.62492 3 4.37057 3.10536 4.18303 3.29289C3.99549 3.48043 3.89014 3.73478 3.89014 4V11L11.8901 11L11.8901 3L4.89014 3Z" fill="black"/>
</g>
<defs>
<clipPath id="clip0_2_285">
<rect width="24" height="24" fill="white" transform="matrix(1 0 0 -1 0.890137 24)"/>
</clipPath>
</defs>
</svg>
