<svg width="25" height="24" viewBox="0 0 25 24" fill="none" xmlns="http://www.w3.org/2000/svg">
<g clip-path="url(#clip0_2_291)">
<path d="M11.8299 8.11002L10.4149 9.52502C9.7648 10.175 9.24911 10.9467 8.89729 11.7961C8.54546 12.6454 8.36438 13.5557 8.36438 14.475C8.36438 15.3943 8.54546 16.3046 8.89729 17.154C9.24911 18.0033 9.7648 18.775 10.4149 19.425L10.7689 19.778C12.0817 21.0908 13.8623 21.8284 15.7189 21.8284C17.5755 21.8284 19.3561 21.0908 20.6689 19.778C21.9817 18.4652 22.7192 16.6846 22.7192 14.828C22.7192 12.9714 21.9817 11.1908 20.6689 9.87802L19.2539 11.293C19.7215 11.7566 20.093 12.3079 20.347 12.9154C20.6009 13.5229 20.7324 14.1746 20.7339 14.8331C20.7353 15.4915 20.6067 16.1438 20.3554 16.7524C20.104 17.361 19.735 17.9139 19.2694 18.3795C18.8038 18.8451 18.2508 19.2142 17.6422 19.4655C17.0336 19.7168 16.3814 19.8454 15.7229 19.844C15.0645 19.8425 14.4128 19.7111 13.8053 19.4571C13.1978 19.2031 12.6464 18.8316 12.1829 18.364L11.8289 18.01C10.8915 17.0724 10.3649 15.8008 10.3649 14.475C10.3649 13.1492 10.8915 11.8777 11.8289 10.94L13.2439 9.52502L11.8289 8.11102L11.8299 8.11002ZM5.11188 14.121L6.52588 12.707C6.05825 12.2435 5.68678 11.6921 5.43281 11.0846C5.17883 10.4771 5.04735 9.82543 5.04591 9.16698C5.04447 8.50853 5.1731 7.85628 5.42441 7.24768C5.67572 6.63907 6.04477 6.0861 6.51036 5.6205C6.97596 5.15491 7.52893 4.78586 8.13754 4.53454C8.74614 4.28323 9.3984 4.15461 10.0568 4.15605C10.7153 4.15749 11.367 4.28897 11.9745 4.54295C12.582 4.79692 13.1333 5.16839 13.5969 5.63602L13.9509 5.99002C14.8882 6.92766 15.4148 8.1992 15.4148 9.52502C15.4148 10.8508 14.8882 12.1224 13.9509 13.06L12.5359 14.475L13.9509 15.889L15.3649 14.475C16.015 13.825 16.5306 13.0533 16.8825 12.204C17.2343 11.3546 17.4154 10.4443 17.4154 9.52502C17.4154 8.60571 17.2343 7.6954 16.8825 6.84607C16.5306 5.99674 16.015 5.22504 15.3649 4.57502L15.0109 4.22202C13.6981 2.9092 11.9175 2.17166 10.0609 2.17166C8.20427 2.17166 6.4237 2.9092 5.11088 4.22202C3.79806 5.53484 3.06052 7.31541 3.06052 9.17202C3.06052 11.0286 3.79806 12.8092 5.11088 14.122L5.11188 14.121Z" fill="currentColor"/>
</g>
<defs>
<clipPath id="clip0_2_291">
<rect width="24" height="24" fill="white" transform="matrix(1 0 0 -1 0.890137 24)"/>
</clipPath>
</defs>
</svg>
