<svg width="25" height="24" viewBox="0 0 25 24" fill="none" xmlns="http://www.w3.org/2000/svg">
<g clip-path="url(#clip0_2_294)">
<path d="M10.8901 17V19L8.8901 20V21H16.8901L16.8941 20.004L14.8901 19V17H21.8981C22.0294 16.9992 22.1593 16.9725 22.2803 16.9215C22.4012 16.8704 22.5109 16.7959 22.6031 16.7024C22.6953 16.6088 22.768 16.498 22.8173 16.3763C22.8665 16.2546 22.8913 16.1243 22.8901 15.993V3.007C22.8901 2.451 22.4351 2 21.8981 2L3.8821 2C3.3341 2 2.8901 2.449 2.8901 3.007V15.993C2.8901 16.549 3.3451 17 3.8821 17H10.8901ZM20.8901 13V15L4.8901 15V13L20.8901 13Z" fill="black"/>
</g>
<defs>
<clipPath id="clip0_2_294">
<rect width="24" height="24" fill="white" transform="matrix(1 0 0 -1 0.890137 24)"/>
</clipPath>
</defs>
</svg>
