<svg width="25" height="24" viewBox="0 0 25 24" fill="none" xmlns="http://www.w3.org/2000/svg">
<g clip-path="url(#clip0_2_300)">
<path d="M18.4351 17.5L22.8901 21L22.8901 2.5C22.8901 2.23478 22.7848 1.98043 22.5972 1.79289C22.4097 1.60536 22.1554 1.5 21.8901 1.5L3.89014 1.5C3.62492 1.5 3.37057 1.60536 3.18303 1.79289C2.99549 1.98043 2.89014 2.23478 2.89014 2.5L2.89014 16.5C2.89014 16.7652 2.99549 17.0196 3.18303 17.2071C3.37057 17.3946 3.62492 17.5 3.89014 17.5H18.4351ZM19.1271 15.5L4.89014 15.5V3.5L20.8901 3.5V16.885L19.1271 15.5ZM16.8901 8.5L8.89014 8.5L8.89014 10.5L16.8901 10.5V8.5Z" fill="currentColor"/>
</g>
<defs>
<clipPath id="clip0_2_300">
<rect width="24" height="24" fill="white" transform="matrix(1 0 0 -1 0.890137 24)"/>
</clipPath>
</defs>
</svg>
