<svg width="25" height="25" viewBox="0 0 25 25" fill="none" xmlns="http://www.w3.org/2000/svg">
<g clip-path="url(#clip0_2_303)">
<path d="M5.89014 14.127C4.79014 14.127 3.89014 13.227 3.89014 12.127C3.89014 11.027 4.79014 10.127 5.89014 10.127C6.99014 10.127 7.89014 11.027 7.89014 12.127C7.89014 13.227 6.99014 14.127 5.89014 14.127ZM19.8901 14.127C18.7901 14.127 17.8901 13.227 17.8901 12.127C17.8901 11.027 18.7901 10.127 19.8901 10.127C20.9901 10.127 21.8901 11.027 21.8901 12.127C21.8901 13.227 20.9901 14.127 19.8901 14.127ZM12.8901 14.127C11.7901 14.127 10.8901 13.227 10.8901 12.127C10.8901 11.027 11.7901 10.127 12.8901 10.127C13.9901 10.127 14.8901 11.027 14.8901 12.127C14.8901 13.227 13.9901 14.127 12.8901 14.127Z" />
</g>
<defs>
<clipPath id="clip0_2_303">
<rect width="24" height="24" fill="white" transform="matrix(1 0 0 -1 0.890137 24.127)"/>
</clipPath>
</defs>
</svg>
