<svg width="25" height="25" viewBox="0 0 25 25" fill="none" xmlns="http://www.w3.org/2000/svg">
<g clip-path="url(#clip0_2_306)">
<path d="M5.39014 13.627C4.56514 13.627 3.89014 12.952 3.89014 12.127C3.89014 11.302 4.56514 10.627 5.39014 10.627C6.21514 10.627 6.89014 11.302 6.89014 12.127C6.89014 12.952 6.21514 13.627 5.39014 13.627ZM20.3901 13.627C19.5651 13.627 18.8901 12.952 18.8901 12.127C18.8901 11.302 19.5651 10.627 20.3901 10.627C21.2151 10.627 21.8901 11.302 21.8901 12.127C21.8901 12.952 21.2151 13.627 20.3901 13.627ZM12.8901 13.627C12.0651 13.627 11.3901 12.952 11.3901 12.127C11.3901 11.302 12.0651 10.627 12.8901 10.627C13.7151 10.627 14.3901 11.302 14.3901 12.127C14.3901 12.952 13.7151 13.627 12.8901 13.627Z" fill="black"/>
</g>
<defs>
<clipPath id="clip0_2_306">
<rect width="24" height="24" fill="white" transform="matrix(1 0 0 -1 0.890137 24.127)"/>
</clipPath>
</defs>
</svg>
