<svg width="25" height="25" viewBox="0 0 25 25" fill="none" xmlns="http://www.w3.org/2000/svg">
<g clip-path="url(#clip0_27_8008)">
<path d="M11.79 2.22696L21.689 3.64196L23.103 13.542L13.911 22.734C13.7235 22.9214 13.4692 23.0267 13.204 23.0267C12.9388 23.0267 12.6845 22.9214 12.497 22.734L2.59699 12.834C2.40951 12.6464 2.3042 12.3921 2.3042 12.127C2.3042 11.8618 2.40951 11.6075 2.59699 11.42L11.79 2.22696ZM12.497 4.34896L4.71799 12.127L13.204 20.612L20.982 12.834L19.922 5.40896L12.497 4.34896ZM14.617 10.713C14.2418 10.3377 14.0311 9.82874 14.0312 9.29811C14.0313 9.03536 14.0831 8.7752 14.1837 8.53248C14.2843 8.28975 14.4317 8.06921 14.6175 7.88346C14.8033 7.6977 15.0239 7.55037 15.2667 7.44986C15.5094 7.34936 15.7696 7.29765 16.0323 7.2977C16.563 7.29779 17.0718 7.50868 17.447 7.88396C17.8221 8.25924 18.0328 8.76818 18.0327 9.29881C18.0327 9.82945 17.8218 10.3383 17.4465 10.7135C17.0712 11.0886 16.5623 11.2993 16.0316 11.2992C15.501 11.2991 14.9921 11.0882 14.617 10.713Z" />
</g>
<defs>
<clipPath id="clip0_27_8008">
<rect width="24" height="24" fill="white" transform="translate(0.890137 0.126953)"/>
</clipPath>
</defs>
</svg>
