<svg width="25" height="25" viewBox="0 0 25 25" fill="none" xmlns="http://www.w3.org/2000/svg">
<g clip-path="url(#clip0_2_309)">
<path d="M7.1731 16.43L2.8901 20.712L4.3051 22.127L8.5871 17.844C10.1804 19.1212 12.1621 19.8159 14.2041 19.813C19.1721 19.813 23.2041 15.781 23.2041 10.813C23.2041 5.84496 19.1721 1.81296 14.2041 1.81296C9.2361 1.81296 5.2041 5.84496 5.2041 10.813C5.2012 12.855 5.89588 14.8367 7.1731 16.43ZM9.1791 15.688C7.90999 14.3828 7.20123 12.6334 7.2041 10.813C7.2041 6.94496 10.3371 3.81296 14.2041 3.81296C18.0721 3.81296 21.2041 6.94496 21.2041 10.813C21.2041 14.68 18.0721 17.813 14.2041 17.813C12.3837 17.8158 10.6342 17.1071 9.3291 15.838L9.1791 15.688Z" fill="black"/>
</g>
<defs>
<clipPath id="clip0_2_309">
<rect width="24" height="24" fill="white" transform="matrix(1 0 0 -1 0.890137 24.127)"/>
</clipPath>
</defs>
</svg>
