<svg width="25" height="25" viewBox="0 0 25 25" fill="none" xmlns="http://www.w3.org/2000/svg">
<g clip-path="url(#clip0_27_7799)">
<path d="M12.8901 1.12695L21.1071 2.95295C21.5641 3.05495 21.8901 3.45995 21.8901 3.92895V13.916C21.8901 15.922 20.8871 17.796 19.2181 18.908L12.8901 23.127L6.56214 18.908C4.89214 17.795 3.89014 15.922 3.89014 13.917V3.92895C3.89014 3.45995 4.21614 3.05495 4.67314 2.95295L12.8901 1.12695ZM12.8901 3.17595L5.89014 4.73095V13.916C5.89014 15.253 6.55814 16.502 7.67114 17.244L12.8901 20.724L18.1091 17.244C19.2221 16.502 19.8901 15.254 19.8901 13.917V4.73095L12.8901 3.17595ZM17.3421 8.34895L18.7571 9.76295L12.3931 16.127L8.15014 11.884L9.56414 10.47L12.3921 13.298L17.3421 8.34795V8.34895Z" fill="black"/>
</g>
<defs>
<clipPath id="clip0_27_7799">
<rect width="24" height="24" fill="white" transform="translate(0.890137 0.126953)"/>
</clipPath>
</defs>
</svg>
