<svg width="25" height="24" viewBox="0 0 25 24" fill="none" xmlns="http://www.w3.org/2000/svg">
<g clip-path="url(#clip0_2_327)">
<path d="M15.4901 10.3617L21.8901 10.3617C22.4206 10.3617 22.9293 10.5724 23.3043 10.9475C23.6794 11.3225 23.8901 11.8313 23.8901 12.3617V14.4657C23.8904 14.7271 23.8394 14.9859 23.7401 15.2277L20.6451 22.7427C20.5696 22.9259 20.4414 23.0826 20.2767 23.1928C20.112 23.303 19.9183 23.3618 19.7201 23.3617L2.89014 23.3617C2.62492 23.3617 2.37057 23.2563 2.18303 23.0688C1.99549 22.8813 1.89014 22.6269 1.89014 22.3617L1.89014 12.3617C1.89014 12.0965 1.99549 11.8421 2.18303 11.6546C2.37057 11.467 2.62492 11.3617 2.89014 11.3617H6.37214C6.53223 11.3617 6.69 11.3233 6.83217 11.2497C6.97434 11.1761 7.09676 11.0694 7.18914 10.9387L12.6421 3.21169C12.7111 3.114 12.8127 3.04425 12.9287 3.01508C13.0446 2.98591 13.1672 2.99925 13.2741 3.05269L15.0881 3.95969C15.5986 4.21485 16.0065 4.637 16.2439 5.15601C16.4813 5.67501 16.5339 6.25961 16.3931 6.81269L15.4901 10.3617ZM7.89014 12.9497L7.89014 21.3617L19.0501 21.3617L21.8901 14.4657V12.3617H15.4901C15.1855 12.3616 14.885 12.292 14.6114 12.1581C14.3378 12.0243 14.0984 11.8297 13.9114 11.5892C13.7245 11.3487 13.5949 11.0687 13.5327 10.7705C13.4704 10.4723 13.4771 10.1639 13.5521 9.86869L14.4551 6.32069C14.4834 6.21002 14.4729 6.093 14.4254 5.98912C14.3779 5.88523 14.2963 5.80074 14.1941 5.74969L13.5331 5.41969L8.82314 12.0917C8.57314 12.4457 8.25314 12.7357 7.89014 12.9497ZM5.89014 13.3617H3.89014L3.89014 21.3617H5.89014L5.89014 13.3617Z" fill="currentColor"/>
</g>
<defs>
<clipPath id="clip0_2_327">
<rect width="24" height="24" fill="white" transform="matrix(1 0 0 -1 0.890137 24)"/>
</clipPath>
</defs>
</svg>
