<svg width="25" height="24" viewBox="0 0 25 24" fill="none" xmlns="http://www.w3.org/2000/svg">
    <g clip-path="url(#clip0_2_321)" transform="translate(25, 0) scale(-1, 1)">

<path d="M15.4901 13.6393L21.8901 13.6393C22.4206 13.6393 22.9293 13.4286 23.3043 13.0535C23.6794 12.6784 23.8901 12.1697 23.8901 11.6393V9.53528C23.8904 9.27392 23.8394 9.01504 23.7401 8.77328L20.6441 1.25928C20.5689 1.07604 20.4408 0.919277 20.2763 0.808894C20.1118 0.698511 19.9182 0.639478 19.7201 0.639282L2.89013 0.639282C2.62492 0.639282 2.37056 0.744639 2.18303 0.932175C1.99549 1.11971 1.89013 1.37407 1.89013 1.63928V11.6393C1.89013 11.9045 1.99549 12.1589 2.18303 12.3464C2.37056 12.5339 2.62492 12.6393 2.89013 12.6393H6.37214C6.53223 12.6392 6.69 12.6776 6.83217 12.7512C6.97434 12.8249 7.09676 12.9315 7.18913 13.0623L12.6421 20.7883C12.7111 20.886 12.8127 20.9557 12.9287 20.9849C13.0446 21.0141 13.1672 21.0007 13.2741 20.9473L15.0881 20.0393C15.5986 19.7841 16.0065 19.362 16.2439 18.843C16.4813 18.324 16.5339 17.7394 16.3931 17.1863L15.4901 13.6393ZM7.89013 11.0513V2.63928L19.0501 2.63928L21.8901 9.53528V11.6393L15.4901 11.6393C15.1855 11.6393 14.885 11.7089 14.6114 11.8428C14.3378 11.9767 14.0984 12.1713 13.9114 12.4118C13.7245 12.6523 13.5949 12.9323 13.5327 13.2305C13.4704 13.5286 13.4771 13.8371 13.5521 14.1323L14.4551 17.6803C14.4834 17.791 14.4729 17.908 14.4254 18.0119C14.3779 18.1157 14.2963 18.2002 14.1941 18.2513L13.5331 18.5813L8.82314 11.9093C8.57314 11.5553 8.25313 11.2653 7.89013 11.0513ZM5.89013 10.6393H3.89013V2.63928L5.89013 2.63928V10.6393Z" fill="currentColor"/>
</g>
<defs>
<clipPath id="clip0_2_321">
<rect width="24" height="24" fill="white" transform=" matrix(1 0 0 -1 0.890137 24)"/>
</clipPath>
</defs>
</svg>
