<svg width="25" height="24" viewBox="0 0 25 24" fill="none" xmlns="http://www.w3.org/2000/svg">
<g clip-path="url(#clip0_2_318)" transform="translate(25, 0) scale(-1, 1)">
<path d="M2.89013 13.16H5.89013V1.16003L2.89013 1.16003C2.62492 1.16003 2.37056 1.26539 2.18303 1.45293C1.99549 1.64046 1.89013 1.89482 1.89013 2.16003V12.16C1.89013 12.4253 1.99549 12.6796 2.18303 12.8671C2.37056 13.0547 2.62492 13.16 2.89013 13.16ZM8.18314 14.453L14.5831 20.853C14.6682 20.9383 14.7812 20.9901 14.9014 20.9987C15.0215 21.0073 15.1408 20.9723 15.2371 20.9L16.0901 20.26C16.327 20.0822 16.506 19.8382 16.6044 19.5588C16.7028 19.2794 16.7163 18.9771 16.6431 18.69L15.4901 14.16L21.8901 14.16C22.4206 14.16 22.9293 13.9493 23.3043 13.5742C23.6794 13.1992 23.8901 12.6905 23.8901 12.16V10.056C23.8904 9.79467 23.8394 9.53579 23.7401 9.29403L20.6441 1.78003C20.5689 1.59679 20.4408 1.44003 20.2763 1.32965C20.1118 1.21926 19.9182 1.16023 19.7201 1.16003L8.89014 1.16003C8.62492 1.16003 8.37056 1.26539 8.18303 1.45293C7.99549 1.64046 7.89013 1.89482 7.89013 2.16003V13.746C7.89019 14.0112 7.99559 14.2655 8.18314 14.453Z" fill="currentColor"/>
</g>
<defs>
<clipPath id="clip0_2_318">
<rect width="24" height="24" fill="white" transform="matrix(1 0 0 -1 0.890137 24)"/>
</clipPath>
</defs>
</svg>
