<svg width="25" height="24" viewBox="0 0 25 24" fill="none" xmlns="http://www.w3.org/2000/svg">
<g clip-path="url(#clip0_2_330)">
<path d="M6.89014 7H3.89014C3.62492 7 3.37057 7.10536 3.18303 7.29289C2.99549 7.48043 2.89014 7.73478 2.89014 8L2.89014 20C2.89014 20.2652 2.99549 20.5196 3.18303 20.7071C3.37057 20.8946 3.62492 21 3.89014 21L21.8901 21C22.1554 21 22.4097 20.8946 22.5972 20.7071C22.7848 20.5196 22.8901 20.2652 22.8901 20L22.8901 4C22.8901 3.73478 22.7848 3.48043 22.5972 3.29289C22.4097 3.10536 22.1554 3 21.8901 3L6.89014 3V7ZM20.8901 9V19H4.89014L4.89014 9L20.8901 9ZM20.8901 5V7L8.89014 7V5L20.8901 5ZM9.89014 13H6.89014V15H9.89014V13Z" fill="black"/>
</g>
<defs>
<clipPath id="clip0_2_330">
<rect width="24" height="24" fill="white" transform="matrix(1 0 0 -1 0.890137 24)"/>
</clipPath>
</defs>
</svg>
