<svg width="160" height="161" viewBox="0 0 160 161" fill="none" xmlns="http://www.w3.org/2000/svg">
<path fill-rule="evenodd" clip-rule="evenodd" d="M80 160.5C124.183 160.5 160 124.683 160 80.5C160 36.3172 124.183 0.5 80 0.5C35.8172 0.5 0 36.3172 0 80.5C0 124.683 35.8172 160.5 80 160.5ZM80 138.362C118.069 138.362 148.931 107.5 148.931 69.4308C148.931 31.3614 118.069 0.5 80 0.5C41.9306 0.5 11.0692 31.3614 11.0692 69.4308C11.0692 107.5 41.9306 138.362 80 138.362Z" fill="url(#paint0_linear_31213_12286)"/>
<path fill-rule="evenodd" clip-rule="evenodd" d="M34.2363 74.9655V51.5464H43.4759C45.2521 51.5464 46.7654 51.8856 48.0156 52.5641C49.2659 53.235 50.2188 54.1688 50.8744 55.3657C51.5376 56.555 51.8693 57.9272 51.8693 59.4824C51.8693 61.0375 51.5338 62.4097 50.863 63.599C50.1921 64.7882 49.2201 65.7145 47.947 66.3777C46.6815 67.041 45.1492 67.3726 43.3501 67.3726H39.1877V74.9655H34.2363ZM42.5496 63.4046H39.1877V55.5944H42.5268C43.4873 55.5944 44.2802 55.7583 44.9053 56.0861C45.5304 56.4063 45.9954 56.8599 46.3004 57.4469C46.6129 58.0263 46.7692 58.7048 46.7692 59.4824C46.7692 60.2523 46.6129 60.9346 46.3004 61.5292C45.9954 62.1162 45.5304 62.5775 44.9053 62.9129C44.2878 63.2407 43.5026 63.4046 42.5496 63.4046ZM59.8653 74.9655V51.5464H54.9939V74.9655H59.8653ZM131.066 57.4011V61.0604H127.761V69.5681C127.761 70.0179 127.83 70.3686 127.967 70.6201C128.104 70.8641 128.295 71.0356 128.539 71.1347C128.79 71.2338 129.08 71.2834 129.408 71.2834C129.637 71.2834 129.865 71.2643 130.094 71.2262C130.323 71.1805 130.498 71.1461 130.62 71.1233L131.386 74.7482C131.142 74.8244 130.799 74.9121 130.357 75.0112C129.915 75.1179 129.377 75.1827 128.745 75.2056C127.571 75.2514 126.541 75.0951 125.657 74.7368C124.78 74.3785 124.098 73.822 123.61 73.0672C123.122 72.3125 122.882 71.3596 122.89 70.2085V61.0604H120.488V57.4011H122.89V53.193H127.761V57.4011H131.066ZM110.483 75.3086C108.676 75.3086 107.121 74.9426 105.817 74.2108C104.521 73.4713 103.523 72.4269 102.821 71.0776C102.12 69.7206 101.769 68.1159 101.769 66.2634C101.769 64.4567 102.12 62.871 102.821 61.5064C103.523 60.1418 104.51 59.0783 105.783 58.316C107.064 57.5537 108.565 57.1725 110.288 57.1725C111.447 57.1725 112.526 57.3593 113.524 57.7328C114.531 58.0987 115.407 58.6514 116.155 59.3909C116.909 60.1304 117.496 61.0604 117.916 62.1811C118.335 63.2941 118.544 64.5977 118.544 66.0919V67.4298H106.583V67.4412C106.583 68.3103 106.743 69.0612 107.064 69.6939C107.391 70.3267 107.853 70.8146 108.447 71.1576C109.042 71.5007 109.747 71.6722 110.563 71.6722C111.104 71.6722 111.6 71.596 112.049 71.4435C112.499 71.291 112.884 71.0623 113.204 70.7574C113.524 70.4525 113.768 70.0789 113.936 69.6368L118.442 69.9341C118.213 71.0166 117.744 71.9619 117.035 72.77C116.334 73.5704 115.427 74.1956 114.314 74.6453C113.208 75.0875 111.931 75.3086 110.483 75.3086ZM113.959 64.4109H106.588C106.617 63.7802 106.78 63.2046 107.075 62.6842C107.395 62.1125 107.837 61.6589 108.402 61.3234C108.973 60.9804 109.629 60.8089 110.368 60.8089C111.077 60.8089 111.699 60.9651 112.232 61.2777C112.774 61.5826 113.197 62.0057 113.502 62.547C113.807 63.0883 113.959 63.7096 113.959 64.4109ZM87.3181 74.9655V64.8111C87.3257 64.0564 87.4668 63.4122 87.7412 62.8786C88.0233 62.3373 88.412 61.9257 88.9076 61.6436C89.4107 61.3616 89.9901 61.2205 90.6457 61.2205C91.6215 61.2205 92.3877 61.5255 92.9442 62.1353C93.5007 62.7376 93.7751 63.5762 93.7675 64.6511V74.9655H98.6388V63.782C98.6388 62.4174 98.3873 61.2434 97.8841 60.26C97.381 59.2689 96.6758 58.5066 95.7686 57.9729C94.8615 57.4393 93.798 57.1725 92.5782 57.1725C91.2746 57.1725 90.1654 57.4736 89.2506 58.0759C88.3358 58.6705 87.684 59.4786 87.2952 60.5001H87.0894V57.4012H82.4467V74.9655H87.3181ZM68.7761 75.2971C67.6554 75.2971 66.6568 75.1027 65.7801 74.7139C64.9034 74.3175 64.2096 73.7343 63.6989 72.9644C63.1957 72.1868 62.9442 71.2186 62.9442 70.0599C62.9442 69.0841 63.1233 68.2645 63.4816 67.6013C63.8399 66.9381 64.3278 66.4044 64.9453 66.0004C65.5628 65.5964 66.2641 65.2914 67.0494 65.0856C67.8422 64.8798 68.6731 64.7349 69.5422 64.6511C70.5637 64.5443 71.3871 64.4452 72.0122 64.3537C72.6373 64.2546 73.0909 64.1098 73.373 63.9192C73.655 63.7286 73.7961 63.4466 73.7961 63.073V63.0044C73.7961 62.2802 73.5674 61.7199 73.11 61.3234C72.6602 60.927 72.0198 60.7288 71.1889 60.7288C70.3122 60.7288 69.6146 60.9232 69.0962 61.312C68.5779 61.6932 68.2348 62.1734 68.0671 62.7528L63.5616 62.3869C63.7904 61.3196 64.2401 60.3972 64.911 59.6196C65.5819 58.8344 66.4471 58.2321 67.5068 57.8129C68.574 57.3859 69.809 57.1725 71.2117 57.1725C72.1875 57.1725 73.1214 57.2868 74.0133 57.5155C74.9129 57.7442 75.7095 58.0987 76.4033 58.579C77.1046 59.0593 77.6573 59.6768 78.0614 60.4315C78.4654 61.1786 78.6674 62.0743 78.6674 63.1187V74.9655H74.0476V72.5298H73.9104C73.6284 73.0787 73.251 73.5628 72.7783 73.9821C72.3057 74.3938 71.7378 74.7178 71.0745 74.9541C70.4113 75.1828 69.6451 75.2971 68.7761 75.2971ZM70.1711 71.9352C70.8877 71.9352 71.5205 71.7942 72.0694 71.5121C72.6183 71.2224 73.049 70.8336 73.3615 70.3457C73.6741 69.8578 73.8304 69.3051 73.8304 68.6876V66.8237C73.6779 66.9228 73.4683 67.0143 73.2014 67.0982C72.9423 67.1744 72.6488 67.2468 72.3209 67.3154C71.9931 67.3764 71.6653 67.4336 71.3375 67.487C71.0097 67.5327 70.7124 67.5746 70.4456 67.6127C69.8738 67.6966 69.3745 67.83 68.9476 68.013C68.5207 68.1959 68.1891 68.4437 67.9527 68.7563C67.7164 69.0612 67.5982 69.4424 67.5982 69.8998C67.5982 70.563 67.8384 71.07 68.3187 71.4206C68.8065 71.7637 69.424 71.9352 70.1711 71.9352ZM69.162 106.16H74.4679L76.2051 100.82H84.6608L86.3947 106.16H91.7006L83.6274 82.7414H77.2466L69.162 106.16ZM83.4059 96.9552L80.5285 88.093H80.3455L77.4625 96.9552H83.4059ZM56.6263 106.16H48.3244V82.7414H56.6949C59.0505 82.7414 61.0783 83.2102 62.7783 84.1479C64.4784 85.0779 65.7858 86.4158 66.7006 88.1616C67.623 89.9074 68.0842 91.9962 68.0842 94.428C68.0842 96.8675 67.623 98.964 66.7006 100.717C65.7858 102.471 64.4707 103.816 62.7555 104.754C61.0478 105.692 59.0048 106.16 56.6263 106.16ZM53.2758 101.918H56.4204C57.8841 101.918 59.1153 101.659 60.114 101.14C61.1203 100.614 61.875 99.8025 62.3781 98.7048C62.8889 97.5994 63.1443 96.1738 63.1443 94.428C63.1443 92.6975 62.8889 91.2834 62.3781 90.1856C61.875 89.0878 61.1241 88.2798 60.1254 87.7614C59.1267 87.243 57.8956 86.9838 56.4319 86.9838H53.2758V101.918ZM104.05 106.95C110.663 106.95 116.025 101.588 116.025 94.9749C116.025 88.3614 110.663 83.0001 104.05 83.0001C97.4364 83.0001 92.0751 88.3614 92.0751 94.9749C92.0751 101.588 97.4364 106.95 104.05 106.95Z" fill="white"/>
<defs>
<linearGradient id="paint0_linear_31213_12286" x1="155.191" y1="163.115" x2="10.8447" y2="42.6892" gradientUnits="userSpaceOnUse">
<stop stop-color="#5A81FF"/>
<stop offset="0.52" stop-color="#E40C5B"/>
<stop offset="1" stop-color="#FF4C3B"/>
</linearGradient>
</defs>
</svg>
