<svg width="20" height="20" viewBox="0 0 20 20" fill="none" xmlns="http://www.w3.org/2000/svg">
<g clip-path="url(#clip0_15347_31095)">
<path d="M1.64844 14.7849L9.99521 19.6042L18.342 14.7849V5.14641L9.99521 0.327148L1.64844 5.14641V14.7849Z" fill="#F0F3F8"/>
<path d="M9.1405 1.47949L3.07916 4.97719C3.08909 5.08626 3.08909 5.19602 3.07916 5.30509L9.13057 8.80279C9.37938 8.61883 9.68065 8.51955 9.99009 8.51955C10.2995 8.51955 10.6008 8.61883 10.8496 8.80279L16.901 5.30509C16.8911 5.19602 16.8911 5.08626 16.901 4.97719L10.8595 1.47949C10.6107 1.66345 10.3095 1.76273 10 1.76273C9.69059 1.76273 9.38932 1.66345 9.1405 1.47949ZM17.4873 6.26895L11.4259 9.80639C11.4588 10.1132 11.3938 10.4225 11.2404 10.6902C11.0869 10.9579 10.8527 11.1702 10.5714 11.2969L10.5813 18.2525C10.6793 18.2957 10.7726 18.349 10.8595 18.4115L16.9109 14.9138C16.8781 14.607 16.943 14.2977 17.0965 14.03C17.25 13.7623 17.4841 13.55 17.7655 13.4233V6.42793C17.6686 6.38251 17.5756 6.32935 17.4873 6.26895ZM2.50284 6.30869C2.41585 6.37118 2.3226 6.42446 2.22461 6.46768V13.4631C2.50941 13.5852 2.74678 13.7967 2.90092 14.0655C3.05506 14.3344 3.11762 14.6461 3.07916 14.9536L9.13057 18.4513C9.21756 18.3888 9.3108 18.3355 9.40879 18.2923V11.2969C9.12399 11.1747 8.88662 10.9633 8.73248 10.6944C8.57834 10.4256 8.51578 10.1139 8.55424 9.80639L2.50284 6.30869Z" fill="#FBFCFE"/>
<path d="M9.99521 1.37113L17.4576 5.68363V14.2987L9.99521 18.6112L2.5328 14.2987V5.67369L9.99521 1.37113ZM9.99521 0.347656L1.64844 5.16692V14.8055L9.99521 19.6247L18.342 14.8055V5.16692L9.99521 0.347656Z" fill="#F0F3F8"/>
<path d="M10.0553 11.6056H9.93603C9.73102 11.6061 9.52792 11.5661 9.33841 11.4879C9.1489 11.4097 8.97671 11.2948 8.83174 11.1498C8.68677 11.0048 8.57188 10.8326 8.49367 10.6431C8.41545 10.4536 8.37546 10.2505 8.37598 10.0455V9.92627C8.37546 9.72125 8.41545 9.51815 8.49367 9.32864C8.57188 9.13913 8.68677 8.96694 8.83174 8.82197C8.97671 8.67701 9.1489 8.56211 9.33841 8.4839C9.52792 8.40569 9.73102 8.36569 9.93603 8.36622H10.0553C10.2603 8.36569 10.4634 8.40569 10.6529 8.4839C10.8424 8.56211 11.0146 8.67701 11.1596 8.82197C11.3045 8.96694 11.4194 9.13913 11.4976 9.32864C11.5759 9.51815 11.6158 9.72125 11.6153 9.92627V10.0455C11.6158 10.2505 11.5759 10.4536 11.4976 10.6431C11.4194 10.8326 11.3045 11.0048 11.1596 11.1498C11.0146 11.2948 10.8424 11.4097 10.6529 11.4879C10.4634 11.5661 10.2603 11.6061 10.0553 11.6056Z" fill="#F0F3F8"/>
<path d="M10.0548 18.0147H9.93554C9.65838 18.0138 9.38603 18.0871 9.14668 18.2268C8.90734 18.3666 8.7097 18.5678 8.57422 18.8096L9.99516 19.6244L11.4161 18.8096C11.2806 18.5678 11.083 18.3666 10.8436 18.2268C10.6043 18.0871 10.3319 18.0138 10.0548 18.0147Z" fill="#F0F3F8"/>
<path d="M18.3521 13.1953H18.2925C18.0875 13.1948 17.8844 13.2348 17.6949 13.313C17.5054 13.3912 17.3332 13.5061 17.1882 13.6511C17.0432 13.796 16.9283 13.9682 16.8501 14.1577C16.7719 14.3473 16.7319 14.5504 16.7324 14.7554V14.8746C16.731 15.1394 16.7996 15.4 16.9312 15.6298L18.3521 14.8051V13.1953Z" fill="#F0F3F8"/>
<path d="M16.9312 4.35156C16.8007 4.58187 16.7322 4.84207 16.7324 5.10675V5.22599C16.7319 5.431 16.7719 5.6341 16.8501 5.82361C16.9283 6.01312 17.0432 6.18531 17.1882 6.33028C17.3332 6.47525 17.5053 6.59014 17.6949 6.66835C17.8844 6.74657 18.0875 6.78656 18.2925 6.78604H18.3521V5.16637L16.9312 4.35156Z" fill="#F0F3F8"/>
<path d="M9.99516 0.34668L8.57422 1.16148C8.70906 1.40458 8.90628 1.60731 9.14557 1.74879C9.38486 1.89027 9.65755 1.96537 9.93554 1.96635H10.0548C10.3319 1.96718 10.6043 1.89393 10.8436 1.75417C11.083 1.6144 11.2806 1.41321 11.4161 1.17142L9.99516 0.34668Z" fill="#F0F3F8"/>
<path d="M3.06938 4.3418L1.64844 5.16654V6.78621H1.70806C1.91307 6.78673 2.11617 6.74674 2.30568 6.66852C2.49519 6.59031 2.66738 6.47542 2.81235 6.33045C2.95732 6.18548 3.07221 6.01329 3.15042 5.82378C3.22864 5.63427 3.26863 5.43117 3.26811 5.22616V5.10692C3.26474 4.83955 3.19655 4.577 3.06938 4.3418Z" fill="#F0F3F8"/>
<path d="M1.70806 13.1953H1.64844V14.8051L3.06938 15.6298C3.19982 15.3995 3.26829 15.1393 3.26811 14.8746V14.7554C3.26863 14.5504 3.22864 14.3473 3.15042 14.1577C3.07221 13.9682 2.95732 13.796 2.81235 13.6511C2.66738 13.5061 2.49519 13.3912 2.30568 13.313C2.11617 13.2348 1.91307 13.1948 1.70806 13.1953Z" fill="#F0F3F8"/>
<path d="M9.99521 19.6738V10.0253L1.64844 5.20605V14.8545L9.99521 19.6738Z" fill="black" fill-opacity="0.06"/>
<path d="M18.3517 14.7655V5.12695L10.0049 9.94622V19.5947L18.3517 14.7655Z" fill="black" fill-opacity="0.02"/>
</g>
<defs>
<clipPath id="clip0_15347_31095">
<rect width="20" height="20" fill="white"/>
</clipPath>
</defs>
</svg>
