<?xml version="1.0" standalone="no"?><!DOCTYPE svg PUBLIC "-//W3C//DTD SVG 1.1//EN" "http://www.w3.org/Graphics/SVG/1.1/DTD/svg11.dtd"><svg t="1666050734453" class="icon" viewBox="0 0 1024 1024" version="1.1" xmlns="http://www.w3.org/2000/svg" p-id="3523" xmlns:xlink="http://www.w3.org/1999/xlink" width="200" height="200"><path d="M512.498688 574.347264c-60.248064 0-116.678656-27.23328-158.885888-76.678144-41.314304-48.397312-64.06144-112.515072-64.06144-180.543488 0-68.028416 22.747136-132.144128 64.06144-180.542464C395.820032 87.131136 452.245504 59.904 512.498688 59.904c60.256256 0 116.67968 27.23328 158.886912 76.673024 41.314304 48.398336 64.067584 112.519168 64.067584 180.547584 0 68.027392-22.754304 132.145152-64.067584 180.543488C629.179392 547.113984 572.754944 574.347264 512.498688 574.347264L512.498688 574.347264zM512.498688 106.155008c-97.429504 0-176.702464 94.63808-176.702464 210.970624 0 116.332544 79.27296 210.971648 176.702464 210.971648 97.435648 0 176.702464-94.639104 176.702464-210.971648C689.201152 200.793088 609.93536 106.155008 512.498688 106.155008L512.498688 106.155008zM512.498688 106.155008" p-id="3524"></path><path d="M116.424704 964.727808c-0.892928-4.893696-21.103616-120.966144 58.790912-216.8832 66.341888-79.637504 179.893248-120.019968 337.503232-120.019968l0 46.253056c-78.189568 0-144.811008 10.5984-198.008832 31.505408-43.493376 17.09056-78.467072 41.2672-103.95136 71.86944-66.184192 79.44704-49.021952 177.928192-48.838656 178.917376L116.424704 964.727808 116.424704 964.727808zM116.424704 964.727808" p-id="3525"></path><path d="M908.573696 964.727808l-45.489152-8.358912 22.742016 4.176896-22.75328-4.11648c0.044032-0.252928 4.458496-25.74848 0.367616-60.7744-5.3504-45.863936-22.03648-85.789696-49.589248-118.674432-25.52832-30.473216-60.514304-54.551552-103.977984-71.564288-53.12512-20.79744-119.610368-31.33952-197.597184-31.33952L512.27648 627.82464c157.613056 0 271.164416 40.383488 337.50528 120.019968C929.678336 843.761664 909.473792 959.834112 908.573696 964.727808L908.573696 964.727808zM908.573696 964.727808" p-id="3526"></path></svg>