<svg width="533" height="522" viewBox="0 0 533 522" fill="none" xmlns="http://www.w3.org/2000/svg">
<path d="M521.428 160.764C544.839 227.536 530.792 306.326 485.977 361.747C441.162 416.5 377.618 435.196 298.69 441.206C314.743 477.263 339.492 501.968 373.605 522C312.736 520.665 252.537 495.291 208.391 453.225C202.371 447.883 197.02 441.874 190.331 438.535C184.311 435.864 177.622 434.529 171.602 433.193C112.74 419.839 58.5609 382.447 27.7922 330.364C-2.97639 278.282 -8.99633 211.51 13.7457 155.422C31.1367 112.688 85.3162 -8.8373 292.67 0.510776C417.082 5.85254 498.017 93.3238 521.428 160.764Z" fill="#F2BCE6" fill-opacity="0.64"/>
<path d="M524.104 183.467C524.104 183.467 544.839 281.621 450.526 351.064C380.294 402.479 292.001 410.491 292.001 410.491L300.697 435.197C300.697 434.529 557.548 429.188 524.104 183.467Z" fill="#F2BCE6" fill-opacity="0.64"/>
<path d="M7.72615 228.204C7.72615 228.204 10.4017 357.741 155.549 401.143L168.258 425.849C168.258 425.849 11.0706 398.472 7.72615 228.204Z" fill="#F2BCE6" fill-opacity="0.64"/>
<g filter="url(#filter0_d_73_1473)">
<path d="M501.277 161.986C522.729 223.171 509.858 295.37 468.792 346.154C427.727 396.326 369.499 413.458 297.175 418.964C311.885 452.005 334.563 474.643 365.822 492.999C310.046 491.775 254.883 468.525 214.431 429.978C208.914 425.083 204.011 419.576 197.882 416.517C192.366 414.07 186.236 412.846 180.72 411.622C126.783 399.385 77.1367 365.121 48.9424 317.397C20.7481 269.672 15.2318 208.487 36.0711 157.091C52.007 117.932 101.653 6.57494 291.659 15.1409C405.662 20.0357 479.825 100.189 501.277 161.986Z" fill="#4A4A4A"/>
<path d="M503.728 182.789C503.728 182.789 522.729 272.731 436.307 336.364C371.951 383.477 291.045 390.819 291.045 390.819L299.013 413.458C299.013 412.846 534.374 407.951 503.728 182.789Z" fill="#4A4A4A"/>
<path d="M30.5542 223.784C30.5542 223.784 33.0058 342.483 166.009 382.254L177.655 404.892C177.655 404.892 33.6188 379.806 30.5542 223.784Z" fill="#4A4A4A"/>
</g>
<g filter="url(#filter1_d_73_1473)">
<mask id="path-7-outside-1_73_1473" maskUnits="userSpaceOnUse" x="153.438" y="102.699" width="211" height="211" fill="black">
<rect fill="white" x="153.438" y="102.699" width="211" height="211"/>
<path d="M167.438 299.359L350.098 116.699Z"/>
</mask>
<path d="M157.539 289.46C152.072 294.927 152.072 303.792 157.539 309.259C163.006 314.726 171.871 314.726 177.338 309.259L157.539 289.46ZM359.998 126.599C365.465 121.132 365.465 112.267 359.998 106.8C354.531 101.333 345.666 101.333 340.199 106.8L359.998 126.599ZM177.338 309.259L359.998 126.599L340.199 106.8L157.539 289.46L177.338 309.259Z" fill="#5201FF" mask="url(#path-7-outside-1_73_1473)"/>
<path d="M157.539 289.46C152.072 294.927 152.072 303.792 157.539 309.259C163.006 314.726 171.871 314.726 177.338 309.259L157.539 289.46ZM359.998 126.599C365.465 121.132 365.465 112.267 359.998 106.8C354.531 101.333 345.666 101.333 340.199 106.8L359.998 126.599ZM177.338 309.259L359.998 126.599L340.199 106.8L157.539 289.46L177.338 309.259Z" fill="white" mask="url(#path-7-outside-1_73_1473)"/>
<mask id="path-9-outside-2_73_1473" maskUnits="userSpaceOnUse" x="153.438" y="102.699" width="211" height="211" fill="black">
<rect fill="white" x="153.438" y="102.699" width="211" height="211"/>
<path d="M167.438 116.699L350.098 299.359Z"/>
</mask>
<path d="M177.338 106.8C171.871 101.333 163.006 101.333 157.539 106.8C152.072 112.267 152.072 121.132 157.539 126.599L177.338 106.8ZM340.199 309.259C345.666 314.726 354.531 314.726 359.998 309.259C365.465 303.792 365.465 294.927 359.998 289.46L340.199 309.259ZM157.539 126.599L340.199 309.259L359.998 289.46L177.338 106.8L157.539 126.599Z" fill="#5201FF" mask="url(#path-9-outside-2_73_1473)"/>
<path d="M177.338 106.8C171.871 101.333 163.006 101.333 157.539 106.8C152.072 112.267 152.072 121.132 157.539 126.599L177.338 106.8ZM340.199 309.259C345.666 314.726 354.531 314.726 359.998 309.259C365.465 303.792 365.465 294.927 359.998 289.46L340.199 309.259ZM157.539 126.599L340.199 309.259L359.998 289.46L177.338 106.8L157.539 126.599Z" fill="white" mask="url(#path-9-outside-2_73_1473)"/>
</g>
<defs>
<filter id="filter0_d_73_1473" x="23.4757" y="14.6729" width="496.052" height="486.326" filterUnits="userSpaceOnUse" color-interpolation-filters="sRGB">
<feFlood flood-opacity="0" result="BackgroundImageFix"/>
<feColorMatrix in="SourceAlpha" type="matrix" values="0 0 0 0 0 0 0 0 0 0 0 0 0 0 0 0 0 0 127 0" result="hardAlpha"/>
<feOffset dx="4" dy="4"/>
<feGaussianBlur stdDeviation="2"/>
<feComposite in2="hardAlpha" operator="out"/>
<feColorMatrix type="matrix" values="0 0 0 0 0 0 0 0 0 0 0 0 0 0 0 0 0 0 0.25 0"/>
<feBlend mode="normal" in2="BackgroundImageFix" result="effect1_dropShadow_73_1473"/>
<feBlend mode="normal" in="SourceGraphic" in2="effect1_dropShadow_73_1473" result="shape"/>
</filter>
<filter id="filter1_d_73_1473" x="149.438" y="102.699" width="218.66" height="218.66" filterUnits="userSpaceOnUse" color-interpolation-filters="sRGB">
<feFlood flood-opacity="0" result="BackgroundImageFix"/>
<feColorMatrix in="SourceAlpha" type="matrix" values="0 0 0 0 0 0 0 0 0 0 0 0 0 0 0 0 0 0 127 0" result="hardAlpha"/>
<feOffset dy="4"/>
<feGaussianBlur stdDeviation="2"/>
<feComposite in2="hardAlpha" operator="out"/>
<feColorMatrix type="matrix" values="0 0 0 0 0 0 0 0 0 0 0 0 0 0 0 0 0 0 0.25 0"/>
<feBlend mode="normal" in2="BackgroundImageFix" result="effect1_dropShadow_73_1473"/>
<feBlend mode="normal" in="SourceGraphic" in2="effect1_dropShadow_73_1473" result="shape"/>
</filter>
</defs>
</svg>
