<svg width="46" height="46" viewBox="0 0 46 46" fill="none" xmlns="http://www.w3.org/2000/svg">
<mask id="path-1-outside-1_157_136" maskUnits="userSpaceOnUse" x="0" y="0" width="46" height="46" fill="black">
<rect fill="white" width="46" height="46"/>
<path d="M5 41L41 5Z"/>
</mask>
<path d="M1.46447 37.4645C-0.488155 39.4171 -0.488155 42.5829 1.46447 44.5355C3.41709 46.4882 6.58291 46.4882 8.53553 44.5355L1.46447 37.4645ZM44.5355 8.53553C46.4882 6.58291 46.4882 3.41709 44.5355 1.46447C42.5829 -0.488155 39.4171 -0.488155 37.4645 1.46447L44.5355 8.53553ZM8.53553 44.5355L44.5355 8.53553L37.4645 1.46447L1.46447 37.4645L8.53553 44.5355Z" fill="#5201FF" mask="url(#path-1-outside-1_157_136)"/>
<path d="M1.46447 37.4645C-0.488155 39.4171 -0.488155 42.5829 1.46447 44.5355C3.41709 46.4882 6.58291 46.4882 8.53553 44.5355L1.46447 37.4645ZM44.5355 8.53553C46.4882 6.58291 46.4882 3.41709 44.5355 1.46447C42.5829 -0.488155 39.4171 -0.488155 37.4645 1.46447L44.5355 8.53553ZM8.53553 44.5355L44.5355 8.53553L37.4645 1.46447L1.46447 37.4645L8.53553 44.5355Z" fill="#E6007A" mask="url(#path-1-outside-1_157_136)"/>
<mask id="path-3-outside-2_157_136" maskUnits="userSpaceOnUse" x="0" y="0" width="46" height="46" fill="black">
<rect fill="white" width="46" height="46"/>
<path d="M5 5L41 41Z"/>
</mask>
<path d="M8.53553 1.46447C6.58291 -0.488155 3.41709 -0.488155 1.46447 1.46447C-0.488155 3.41709 -0.488155 6.58291 1.46447 8.53553L8.53553 1.46447ZM37.4645 44.5355C39.4171 46.4882 42.5829 46.4882 44.5355 44.5355C46.4882 42.5829 46.4882 39.4171 44.5355 37.4645L37.4645 44.5355ZM1.46447 8.53553L37.4645 44.5355L44.5355 37.4645L8.53553 1.46447L1.46447 8.53553Z" fill="#5201FF" mask="url(#path-3-outside-2_157_136)"/>
<path d="M8.53553 1.46447C6.58291 -0.488155 3.41709 -0.488155 1.46447 1.46447C-0.488155 3.41709 -0.488155 6.58291 1.46447 8.53553L8.53553 1.46447ZM37.4645 44.5355C39.4171 46.4882 42.5829 46.4882 44.5355 44.5355C46.4882 42.5829 46.4882 39.4171 44.5355 37.4645L37.4645 44.5355ZM1.46447 8.53553L37.4645 44.5355L44.5355 37.4645L8.53553 1.46447L1.46447 8.53553Z" fill="#E6007A" mask="url(#path-3-outside-2_157_136)"/>
</svg>
