<svg width="24" height="24" viewBox="0 0 24 24" fill="none" xmlns="http://www.w3.org/2000/svg">
<path d="M22.0835 5.88111L11.7033 16.2596C10.6697 17.2931 7.6013 17.7718 6.91582 17.0864C6.23034 16.4011 6.69821 13.3332 7.73187 12.2997L18.1229 1.91024C18.3792 1.63071 18.6894 1.40602 19.0349 1.24969C19.3804 1.09335 19.754 1.00861 20.1332 1.00062C20.5123 0.992647 20.8892 1.06155 21.241 1.20321C21.5928 1.34487 21.9122 1.55635 22.18 1.82485C22.4478 2.09334 22.6584 2.41329 22.7991 2.7654C22.9398 3.11753 23.0078 3.49448 22.9988 3.87356C22.9897 4.25264 22.9039 4.626 22.7467 4.97103C22.5893 5.31606 22.3638 5.62566 22.0835 5.88111Z" stroke="#E6007A" stroke-width="2" stroke-linecap="round" stroke-linejoin="round"/>
<path d="M10.8814 3.2373H5.39171C4.22695 3.2373 3.10998 3.69999 2.28637 4.5236C1.46277 5.34722 1 6.46426 1 7.62902V18.6083C1 19.7731 1.46277 20.8901 2.28637 21.7137C3.10998 22.5374 4.22695 23 5.39171 23H17.4689C19.8953 23 20.7627 21.0237 20.7627 18.6083V13.1187" stroke="#E6007A" stroke-width="2" stroke-linecap="round" stroke-linejoin="round"/>
</svg>
