<svg width="21" height="21" viewBox="0 0 21 21" fill="none" xmlns="http://www.w3.org/2000/svg">
<path d="M9.70594e-07 10.5022C-0.000807102 8.62297 0.502972 6.77796 1.45875 5.1598C2.41452 3.54163 3.78725 2.20964 5.43362 1.30288C7.07999 0.396119 8.93965 -0.0521632 10.8184 0.00482988C12.6972 0.061823 14.5263 0.622002 16.1146 1.62689L17.4615 0.281272C17.5952 0.147673 17.7655 0.0567543 17.9509 0.0200386C18.1363 -0.0166772 18.3284 0.00246276 18.503 0.0750327C18.6775 0.147603 18.8265 0.270336 18.9312 0.427678C19.0358 0.58502 19.0914 0.769887 19.0909 0.958851V4.7762C19.0909 5.02931 18.9903 5.27205 18.8113 5.45102C18.6323 5.62999 18.3895 5.73054 18.1364 5.73054H14.3182C14.1294 5.7305 13.9449 5.6745 13.788 5.56964C13.631 5.46477 13.5087 5.31574 13.4365 5.14138C13.3643 4.96702 13.3454 4.77517 13.3822 4.59007C13.419 4.40498 13.5099 4.23495 13.6433 4.10148L14.72 3.02499C13.4135 2.28635 11.9361 1.90308 10.4351 1.91342C8.93419 1.92376 7.46219 2.32734 6.16594 3.08391C4.86969 3.84048 3.79448 4.9236 3.04756 6.22525C2.30063 7.52689 1.9081 9.00158 1.90909 10.5022C1.90909 10.7553 1.80852 10.9981 1.62951 11.177C1.4505 11.356 1.20771 11.4566 0.954546 11.4566C0.701385 11.4566 0.458593 11.356 0.279581 11.177C0.100569 10.9981 9.70594e-07 10.7553 9.70594e-07 10.5022ZM20.0455 9.54789C19.7923 9.54789 19.5495 9.64843 19.3705 9.82741C19.1915 10.0064 19.0909 10.2491 19.0909 10.5022C19.0884 12.7794 18.1825 14.9626 16.5719 16.5728C14.9613 18.183 12.7777 19.0887 10.5 19.0913C9.02072 19.0939 7.56639 18.7103 6.28091 17.9785L7.35668 16.903C7.49014 16.7695 7.58102 16.5995 7.61783 16.4144C7.65464 16.2293 7.63574 16.0374 7.56351 15.8631C7.49128 15.6887 7.36897 15.5397 7.21203 15.4348C7.05509 15.3299 6.87058 15.2739 6.68182 15.2739H2.86364C2.61048 15.2739 2.36768 15.3745 2.18867 15.5534C2.00966 15.7324 1.90909 15.9751 1.90909 16.2282V20.0456C1.90904 20.2343 1.96497 20.4188 2.0698 20.5758C2.17464 20.7328 2.32366 20.8551 2.49805 20.9274C2.61386 20.9757 2.73816 21.0003 2.86364 20.9999C3.11678 20.9999 3.35953 20.8993 3.5385 20.7203L4.88536 19.3776C6.56323 20.444 8.51179 21.007 10.5 20.9999C13.2838 20.9966 15.9526 19.8896 17.921 17.9216C19.8894 15.9536 20.9967 13.2854 21 10.5022C21 10.2491 20.8994 10.0064 20.7204 9.82741C20.5414 9.64843 20.2986 9.54789 20.0455 9.54789Z" fill="black"/>
</svg>
