<svg id="SvgjsSvg1826" width="1184" height="957" xmlns="http://www.w3.org/2000/svg" version="1.1" xmlns:xlink="http://www.w3.org/1999/xlink" xmlns:svgjs="http://svgjs.com/svgjs"><defs id="SvgjsDefs1827"><pattern patternUnits="userSpaceOnUse" id="pattern_mark_0" width="300" height="300"><text x="150" y="100" fill="rgba(172,172,172,0.8)" font-size="18" transform="rotate(-45, 150, 150)" style="dominant-baseline: middle; text-anchor: middle;"></text></pattern><pattern patternUnits="userSpaceOnUse" id="pattern_mark_1" width="300" height="300"><text x="150" y="200" fill="rgba(172,172,172,0.8)" font-size="18" transform="rotate(-45, 150, 150)" style="dominant-baseline: middle; text-anchor: middle;"></text></pattern><pattern id="SvgjsPattern1967" x="0" y="0" width="75" height="75" patternUnits="userSpaceOnUse"><image id="SvgjsImage1968" xlink:href="https://www.processon.com/v5_editor/static/assets/images/designer/network_azure/User.svg" width="75" height="75" preserveAspectRatio="none" crossOrigin="anonymous" x="0" y="0"></image></pattern><marker id="SvgjsMarker1985" markerWidth="14" markerHeight="10" refX="10" refY="5" viewBox="0 0 14 10" orient="auto" markerUnits="userSpaceOnUse" stroke-dasharray="0,0"><path id="SvgjsPath1986" d="M0,0 L14,5 L0,10 L0,0" fill="#323232" stroke="#323232" stroke-width="1"></path></marker><marker id="SvgjsMarker1999" markerWidth="14" markerHeight="10" refX="4" refY="5" viewBox="0 0 14 10" orient="auto" markerUnits="userSpaceOnUse" stroke-dasharray="0,0"><path id="SvgjsPath2000" d="M14,0 L0,5 L14,10 L14,0" fill="#323232" stroke="#323232" stroke-width="1"></path></marker><pattern id="SvgjsPattern2007" x="0" y="0" width="75" height="75" patternUnits="userSpaceOnUse"><image id="SvgjsImage2008" xlink:href="https://www.processon.com/v5_editor/static/assets/images/designer/network_azure/User.svg" width="75" height="75" preserveAspectRatio="none" crossOrigin="anonymous" x="0" y="0"></image></pattern><marker id="SvgjsMarker2021" markerWidth="14" markerHeight="10" refX="10" refY="5" viewBox="0 0 14 10" orient="auto" markerUnits="userSpaceOnUse" stroke-dasharray="0,0"><path id="SvgjsPath2022" d="M0,0 L14,5 L0,10 L0,0" fill="#323232" stroke="#323232" stroke-width="1"></path></marker><marker id="SvgjsMarker2025" markerWidth="14" markerHeight="10" refX="10" refY="5" viewBox="0 0 14 10" orient="auto" markerUnits="userSpaceOnUse" stroke-dasharray="0,0"><path id="SvgjsPath2026" d="M0,0 L14,5 L0,10 L0,0" fill="#323232" stroke="#323232" stroke-width="1"></path></marker><marker id="SvgjsMarker2079" markerWidth="14" markerHeight="10" refX="10" refY="5" viewBox="0 0 14 10" orient="auto" markerUnits="userSpaceOnUse" stroke-dasharray="0,0"><path id="SvgjsPath2080" d="M0,0 L14,5 L0,10 L0,0" fill="#323232" stroke="#323232" stroke-width="1"></path></marker><marker id="SvgjsMarker2089" markerWidth="14" markerHeight="10" refX="10" refY="5" viewBox="0 0 14 10" orient="auto" markerUnits="userSpaceOnUse" stroke-dasharray="0,0"><path id="SvgjsPath2090" d="M0,0 L14,5 L0,10 L0,0" fill="#323232" stroke="#323232" stroke-width="1"></path></marker><marker id="SvgjsMarker2141" markerWidth="14" markerHeight="10" refX="10" refY="5" viewBox="0 0 14 10" orient="auto" markerUnits="userSpaceOnUse" stroke-dasharray="0,0"><path id="SvgjsPath2142" d="M0,0 L14,5 L0,10 L0,0" fill="#323232" stroke="#323232" stroke-width="1"></path></marker><marker id="SvgjsMarker2189" markerWidth="14" markerHeight="10" refX="10" refY="5" viewBox="0 0 14 10" orient="auto" markerUnits="userSpaceOnUse" stroke-dasharray="0,0"><path id="SvgjsPath2190" d="M0,0 L14,5 L0,10 L0,0" fill="#323232" stroke="#323232" stroke-width="1"></path></marker><marker id="SvgjsMarker2230" markerWidth="14" markerHeight="10" refX="10" refY="5" viewBox="0 0 14 10" orient="auto" markerUnits="userSpaceOnUse" stroke-dasharray="0,0"><path id="SvgjsPath2231" d="M0,0 L14,5 L0,10 L0,0" fill="#323232" stroke="#323232" stroke-width="1"></path></marker></defs><rect id="svgbackgroundid" width="1184" height="957" fill="#bfbfbf"></rect><rect id="SvgjsRect1829" width="1184" height="957" fill="url(#pattern_mark_0)"></rect><rect id="SvgjsRect1830" width="1184" height="957" fill="url(#pattern_mark_1)"></rect><g id="SvgjsG1831" transform="translate(217,683)"><path id="SvgjsPath1832" d="M 0 0L 783 0L 783 249L 0 249Z" stroke="rgba(33,41,48,1)" stroke-width="1" fill-opacity="1" fill="#a6a6a6"></path><g id="SvgjsG1833"><text id="SvgjsText1834" font-family="微软雅黑" text-anchor="middle" font-size="13px" width="763px" fill="#323232" font-weight="400" align="middle" lineHeight="125%" anchor="middle" family="微软雅黑" size="13px" weight="400" font-style="" opacity="1" y="113.875" transform="rotate(0)"></text></g></g><g id="SvgjsG1835" transform="translate(217,339)"><path id="SvgjsPath1836" d="M 0 0L 783 0L 783 201L 0 201Z" stroke="rgba(33,41,48,1)" stroke-width="1" fill-opacity="1" fill="#a6a6a6"></path><g id="SvgjsG1837"><text id="SvgjsText1838" font-family="微软雅黑" text-anchor="middle" font-size="13px" width="763px" fill="#323232" font-weight="400" align="middle" lineHeight="125%" anchor="middle" family="微软雅黑" size="13px" weight="400" font-style="" opacity="1" y="89.875" transform="rotate(0)"></text></g></g><g id="SvgjsG1839" transform="translate(245,401)"><path id="SvgjsPath1840" d="M 0 4Q 0 0 4 0L 160 0Q 164 0 164 4L 164 117Q 164 121 160 121L 4 121Q 0 121 0 117Z" stroke="rgba(33,41,48,1)" stroke-width="2" fill-opacity="1" fill="#81c784"></path><g id="SvgjsG1841"><text id="SvgjsText1842" font-family="微软雅黑" text-anchor="middle" font-size="13px" width="144px" fill="#323232" font-weight="400" align="middle" lineHeight="125%" anchor="middle" family="微软雅黑" size="13px" weight="400" font-style="" opacity="1" y="49.875" transform="rotate(0)"></text></g></g><g id="SvgjsG1843" transform="translate(245,399)"><path id="SvgjsPath1844" d="M 0 0L 144.875 0L 144.875 40L 0 40Z" stroke="none" fill="none"></path><g id="SvgjsG1845"><text id="SvgjsText1846" font-family="微软雅黑" text-anchor="middle" font-size="13px" width="145px" fill="#323232" font-weight="400" align="middle" lineHeight="125%" anchor="middle" family="微软雅黑" size="13px" weight="400" font-style="" opacity="1" y="9.375" transform="rotate(0)"><tspan id="SvgjsTspan1847" dy="16.25" x="72.5"><tspan id="SvgjsTspan1848" style="">Polkadot main network</tspan></tspan></text></g></g><g id="SvgjsG1849" transform="translate(254.5,480)"><path id="SvgjsPath1850" d="M 0 4Q 0 0 4 0L 78.5 0Q 82.5 0 82.5 4L 82.5 27.5Q 82.5 31.5 78.5 31.5L 4 31.5Q 0 31.5 0 27.5Z" stroke="rgba(33,41,48,1)" stroke-width="1" fill-opacity="1" fill="#f2f2f2"></path><g id="SvgjsG1851"><text id="SvgjsText1852" font-family="微软雅黑" text-anchor="middle" font-size="13px" width="63px" fill="#323232" font-weight="400" align="middle" lineHeight="125%" anchor="middle" family="微软雅黑" size="13px" weight="400" font-style="" opacity="1" y="5.125" transform="rotate(0)"><tspan id="SvgjsTspan1853" dy="16.25" x="41.5"><tspan id="SvgjsTspan1854" style="">contract1</tspan></tspan></text></g></g><g id="SvgjsG1855" transform="translate(254.5,433)"><path id="SvgjsPath1856" d="M 0 4Q 0 0 4 0L 121.875 0Q 125.875 0 125.875 4L 125.875 23Q 125.875 27 121.875 27L 4 27Q 0 27 0 23Z" stroke="rgba(33,41,48,1)" stroke-width="1" fill-opacity="1" fill="#f2f2f2"></path><g id="SvgjsG1857"><text id="SvgjsText1858" font-family="微软雅黑" text-anchor="middle" font-size="13px" width="106px" fill="#323232" font-weight="400" align="middle" lineHeight="125%" anchor="middle" family="微软雅黑" size="13px" weight="400" font-style="" opacity="1" y="2.875" transform="rotate(0)"><tspan id="SvgjsTspan1859" dy="16.25" x="63"><tspan id="SvgjsTspan1860" style="">Slot(s)</tspan></tspan></text></g></g><g id="SvgjsG1861" transform="translate(845,401)"><path id="SvgjsPath1862" d="M 0 4Q 0 0 4 0L 139.5 0Q 143.5 0 143.5 4L 143.5 117Q 143.5 121 139.5 121L 4 121Q 0 121 0 117Z" stroke-dasharray="10,6" stroke="rgba(33,41,48,1)" stroke-width="2" fill-opacity="1" fill="#e0e0e0"></path><g id="SvgjsG1863"><text id="SvgjsText1864" font-family="微软雅黑" text-anchor="middle" font-size="13px" width="124px" fill="#323232" font-weight="400" align="middle" lineHeight="125%" anchor="middle" family="微软雅黑" size="13px" weight="400" font-style="" opacity="1" y="49.875" transform="rotate(0)"></text></g></g><g id="SvgjsG1865" transform="translate(860,398)"><path id="SvgjsPath1866" d="M 0 0L 100 0L 100 40L 0 40Z" stroke="none" fill="none"></path><g id="SvgjsG1867"><text id="SvgjsText1868" font-family="微软雅黑" text-anchor="middle" font-size="13px" width="100px" fill="#323232" font-weight="400" align="middle" lineHeight="125%" anchor="middle" family="微软雅黑" size="13px" weight="400" font-style="" opacity="1" y="0.875" transform="rotate(0)"><tspan id="SvgjsTspan1869" dy="16.25" x="50"><tspan id="SvgjsTspan1870" style="">Smart contract </tspan></tspan><tspan id="SvgjsTspan1871" dy="16.25" x="50"><tspan id="SvgjsTspan1872" style="">chain</tspan></tspan></text></g></g><g id="SvgjsG1873" transform="translate(854.5,480)"><path id="SvgjsPath1874" d="M 0 4Q 0 0 4 0L 51 0Q 55 0 55 4L 55 27.5Q 55 31.5 51 31.5L 4 31.5Q 0 31.5 0 27.5Z" stroke="rgba(33,41,48,1)" stroke-width="1" fill-opacity="1" fill="#f2f2f2"></path><g id="SvgjsG1875"><text id="SvgjsText1876" font-family="微软雅黑" text-anchor="middle" font-size="13px" width="35px" fill="#323232" font-weight="400" align="middle" lineHeight="125%" anchor="middle" family="微软雅黑" size="13px" weight="400" font-style="" opacity="1" y="5.125" transform="rotate(0)"><tspan id="SvgjsTspan1877" dy="16.25" x="27.5"><tspan id="SvgjsTspan1878" style="">Acala</tspan></tspan></text></g></g><g id="SvgjsG1879" transform="translate(921,480)"><path id="SvgjsPath1880" d="M 0 4Q 0 0 4 0L 54 0Q 58 0 58 4L 58 27.5Q 58 31.5 54 31.5L 4 31.5Q 0 31.5 0 27.5Z" stroke="rgba(33,41,48,1)" stroke-width="1" fill-opacity="1" fill="#f2f2f2"></path><g id="SvgjsG1881"><text id="SvgjsText1882" font-family="微软雅黑" text-anchor="middle" font-size="13px" width="38px" fill="#323232" font-weight="400" align="middle" lineHeight="125%" anchor="middle" family="微软雅黑" size="13px" weight="400" font-style="" opacity="1" y="5.125" transform="rotate(0)"><tspan id="SvgjsTspan1883" dy="16.25" x="29"><tspan id="SvgjsTspan1884" style="">...</tspan></tspan></text></g></g><g id="SvgjsG1885" transform="translate(854.5,433)"><path id="SvgjsPath1886" d="M 0 4Q 0 0 4 0L 120.5 0Q 124.5 0 124.5 4L 124.5 23Q 124.5 27 120.5 27L 4 27Q 0 27 0 23Z" stroke="rgba(33,41,48,1)" stroke-width="1" fill-opacity="1" fill="#f2f2f2"></path><g id="SvgjsG1887"><text id="SvgjsText1888" font-family="微软雅黑" text-anchor="middle" font-size="13px" width="105px" fill="#323232" font-weight="400" align="middle" lineHeight="125%" anchor="middle" family="微软雅黑" size="13px" weight="400" font-style="" opacity="1" y="2.875" transform="rotate(0)"><tspan id="SvgjsTspan1889" dy="16.25" x="62.5"><tspan id="SvgjsTspan1890" style="">Plasm</tspan></tspan></text></g></g><g id="SvgjsG1891" transform="translate(25,393.875)"><path id="SvgjsPath1892" d="M 0 0L 185.75 0L 185.75 81.25L 0 81.25Z" stroke="none" fill="none"></path><g id="SvgjsG1893"><text id="SvgjsText1894" font-family="微软雅黑" text-anchor="middle" font-size="18px" width="186px" fill="#323232" font-weight="700" align="middle" lineHeight="125%" anchor="middle" family="微软雅黑" size="18px" weight="700" font-style="" opacity="1" y="24.875" transform="rotate(0)"><tspan id="SvgjsTspan1895" dy="22.5" x="93"><tspan id="SvgjsTspan1896" style="">Project Deployment</tspan></tspan></text></g></g><g id="SvgjsG1897" transform="translate(226,730)"><path id="SvgjsPath1898" d="M 0 4Q 0 0 4 0L 264.5 0Q 268.5 0 268.5 4L 268.5 117Q 268.5 121 264.5 121L 4 121Q 0 121 0 117Z" stroke="rgba(33,41,48,1)" stroke-width="2" fill-opacity="1" fill="#bbdefb"></path><g id="SvgjsG1899"><text id="SvgjsText1900" font-family="微软雅黑" text-anchor="middle" font-size="13px" width="249px" fill="#323232" font-weight="400" align="middle" lineHeight="125%" anchor="middle" family="微软雅黑" size="13px" weight="400" font-style="" opacity="1" y="49.875" transform="rotate(0)"></text></g></g><g id="SvgjsG1901" transform="translate(231,727)"><path id="SvgjsPath1902" d="M 0 0L 167 0L 167 40L 0 40Z" stroke="none" fill="none"></path><g id="SvgjsG1903"><text id="SvgjsText1904" font-family="微软雅黑" text-anchor="middle" font-size="13px" width="167px" fill="#323232" font-weight="400" align="middle" lineHeight="125%" anchor="middle" family="微软雅黑" size="13px" weight="400" font-style="" opacity="1" y="9.375" transform="rotate(0)"><tspan id="SvgjsTspan1905" dy="16.25" x="83.5"><tspan id="SvgjsTspan1906" style="">Truffle</tspan></tspan></text></g></g><g id="SvgjsG1907" transform="translate(231,770.9999999999999)"><path id="SvgjsPath1908" d="M 0 4Q 0 0 4 0L 82.5 0Q 86.5 0 86.5 4L 86.5 27.5Q 86.5 31.5 82.5 31.5L 4 31.5Q 0 31.5 0 27.5Z" stroke="rgba(33,41,48,1)" stroke-width="1" fill-opacity="1" fill="#d9d9d9"></path><g id="SvgjsG1909"><text id="SvgjsText1910" font-family="微软雅黑" text-anchor="middle" font-size="12px" width="67px" fill="#323232" font-weight="400" align="middle" lineHeight="125%" anchor="middle" family="微软雅黑" size="12px" weight="400" font-style="" opacity="1" y="5.75" transform="rotate(0)"><tspan id="SvgjsTspan1911" dy="15" x="43.5"><tspan id="SvgjsTspan1912" style="">Developing</tspan></tspan></text></g></g><g id="SvgjsG1913" transform="translate(323.5,770.9999999999999)"><path id="SvgjsPath1914" d="M 0 4Q 0 0 4 0L 62 0Q 66 0 66 4L 66 27.5Q 66 31.5 62 31.5L 4 31.5Q 0 31.5 0 27.5Z" stroke="rgba(33,41,48,1)" stroke-width="1" fill-opacity="1" fill="#d9d9d9"></path><g id="SvgjsG1915"><text id="SvgjsText1916" font-family="微软雅黑" text-anchor="middle" font-size="12px" width="46px" fill="#323232" font-weight="400" align="middle" lineHeight="125%" anchor="middle" family="微软雅黑" size="12px" weight="400" font-style="" opacity="1" y="5.75" transform="rotate(0)"><tspan id="SvgjsTspan1917" dy="15" x="33"><tspan id="SvgjsTspan1918" style="">compile</tspan></tspan></text></g></g><g id="SvgjsG1919" transform="translate(392,770.9999999999999)"><path id="SvgjsPath1920" d="M 0 4Q 0 0 4 0L 89 0Q 93 0 93 4L 93 27.5Q 93 31.5 89 31.5L 4 31.5Q 0 31.5 0 27.5Z" stroke="rgba(33,41,48,1)" stroke-width="1" fill-opacity="1" fill="#d9d9d9"></path><g id="SvgjsG1921"><text id="SvgjsText1922" font-family="微软雅黑" text-anchor="middle" font-size="12px" width="73px" fill="#323232" font-weight="400" align="middle" lineHeight="125%" anchor="middle" family="微软雅黑" size="12px" weight="400" font-style="" opacity="1" y="5.75" transform="rotate(0)"><tspan id="SvgjsTspan1923" dy="15" x="46.5"><tspan id="SvgjsTspan1924" style="">Deplotment</tspan></tspan></text></g></g><g id="SvgjsG1925" transform="translate(369.875,807.4999999999998)"><path id="SvgjsPath1926" d="M 0 4Q 0 0 4 0L 91.25 0Q 95.25 0 95.25 4L 95.25 27.5Q 95.25 31.5 91.25 31.5L 4 31.5Q 0 31.5 0 27.5Z" stroke="rgba(33,41,48,1)" stroke-width="1" fill-opacity="1" fill="#d9d9d9"></path><g id="SvgjsG1927"><text id="SvgjsText1928" font-family="微软雅黑" text-anchor="middle" font-size="13px" width="76px" fill="#323232" font-weight="400" align="middle" lineHeight="125%" anchor="middle" family="微软雅黑" size="13px" weight="400" font-style="" opacity="1" y="5.125" transform="rotate(0)"><tspan id="SvgjsTspan1929" dy="16.25" x="48"><tspan id="SvgjsTspan1930" style="">console</tspan></tspan></text></g></g><g id="SvgjsG1931" transform="translate(232.25,807.4999999999998)"><path id="SvgjsPath1932" d="M 0 4Q 0 0 4 0L 116 0Q 120 0 120 4L 120 27.5Q 120 31.5 116 31.5L 4 31.5Q 0 31.5 0 27.5Z" stroke="rgba(33,41,48,1)" stroke-width="1" fill-opacity="1" fill="#d9d9d9"></path><g id="SvgjsG1933"><text id="SvgjsText1934" font-family="微软雅黑" text-anchor="middle" font-size="13px" width="100px" fill="#323232" font-weight="400" align="middle" lineHeight="125%" anchor="middle" family="微软雅黑" size="13px" weight="400" font-style="" opacity="1" y="5.125" transform="rotate(0)"><tspan id="SvgjsTspan1935" dy="16.25" x="60"><tspan id="SvgjsTspan1936" style="">Test</tspan></tspan></text></g></g><g id="SvgjsG1937" transform="translate(525,730)"><path id="SvgjsPath1938" d="M 0 4Q 0 0 4 0L 206 0Q 210 0 210 4L 210 117Q 210 121 206 121L 4 121Q 0 121 0 117Z" stroke="rgba(33,41,48,1)" stroke-width="2" fill-opacity="1" fill="#bbdefb"></path><g id="SvgjsG1939"><text id="SvgjsText1940" font-family="微软雅黑" text-anchor="middle" font-size="13px" width="190px" fill="#323232" font-weight="400" align="middle" lineHeight="125%" anchor="middle" family="微软雅黑" size="13px" weight="400" font-style="" opacity="1" y="49.875" transform="rotate(0)"></text></g></g><g id="SvgjsG1941" transform="translate(477,727)"><path id="SvgjsPath1942" d="M 0 0L 167 0L 167 40L 0 40Z" stroke="none" fill="none"></path><g id="SvgjsG1943"><text id="SvgjsText1944" font-family="微软雅黑" text-anchor="middle" font-size="13px" width="167px" fill="#323232" font-weight="400" align="middle" lineHeight="125%" anchor="middle" family="微软雅黑" size="13px" weight="400" font-style="" opacity="1" y="9.375" transform="rotate(0)"><tspan id="SvgjsTspan1945" dy="16.25" x="83.5"><tspan id="SvgjsTspan1946" style="">node.js</tspan></tspan></text></g></g><g id="SvgjsG1947" transform="translate(556,812.5)"><path id="SvgjsPath1948" d="M 0 4Q 0 0 4 0L 133 0Q 137 0 137 4L 137 27.5Q 137 31.5 133 31.5L 4 31.5Q 0 31.5 0 27.5Z" stroke="rgba(33,41,48,1)" stroke-width="1" fill-opacity="1" fill="#d9d9d9"></path><g id="SvgjsG1949"><text id="SvgjsText1950" font-family="微软雅黑" text-anchor="middle" font-size="13px" width="117px" fill="#323232" font-weight="400" align="middle" lineHeight="125%" anchor="middle" family="微软雅黑" size="13px" weight="400" font-style="" opacity="1" y="5.125" transform="rotate(0)"><tspan id="SvgjsTspan1951" dy="16.25" x="68.5"><tspan id="SvgjsTspan1952" style="">compile</tspan></tspan></text></g></g><g id="SvgjsG1953" transform="translate(624.5,771.5)"><path id="SvgjsPath1954" d="M 0 4Q 0 0 4 0L 96.5 0Q 100.5 0 100.5 4L 100.5 27.5Q 100.5 31.5 96.5 31.5L 4 31.5Q 0 31.5 0 27.5Z" stroke="rgba(33,41,48,1)" stroke-width="1" fill-opacity="1" fill="#d9d9d9"></path><g id="SvgjsG1955"><text id="SvgjsText1956" font-family="微软雅黑" text-anchor="middle" font-size="13px" width="81px" fill="#323232" font-weight="400" align="middle" lineHeight="125%" anchor="middle" family="微软雅黑" size="13px" weight="400" font-style="" opacity="1" y="5.125" transform="rotate(0)"><tspan id="SvgjsTspan1957" dy="16.25" x="50.5"><tspan id="SvgjsTspan1958" style="">Deployment</tspan></tspan></text></g></g><g id="SvgjsG1959" transform="translate(528,771.5)"><path id="SvgjsPath1960" d="M 0 4Q 0 0 4 0L 85 0Q 89 0 89 4L 89 27.5Q 89 31.5 85 31.5L 4 31.5Q 0 31.5 0 27.5Z" stroke="rgba(33,41,48,1)" stroke-width="1" fill-opacity="1" fill="#d9d9d9"></path><g id="SvgjsG1961"><text id="SvgjsText1962" font-family="微软雅黑" text-anchor="middle" font-size="13px" width="69px" fill="#323232" font-weight="400" align="middle" lineHeight="125%" anchor="middle" family="微软雅黑" size="13px" weight="400" font-style="" opacity="1" y="5.125" transform="rotate(0)"><tspan id="SvgjsTspan1963" dy="16.25" x="44.5"><tspan id="SvgjsTspan1964" style="">Interaction</tspan></tspan></text></g></g><g id="SvgjsG1965" transform="translate(522.5,25)"><path id="SvgjsPath1966" d="M 0 0L 75 0L 75 75L 0 75Z" stroke="none" fill="url(#SvgjsPattern1967)"></path><g id="SvgjsG1969"><text id="SvgjsText1970" font-family="微软雅黑" text-anchor="middle" font-size="13px" width="115px" fill="#323232" font-weight="400" align="middle" lineHeight="125%" anchor="middle" family="微软雅黑" size="13px" weight="400" font-style="" opacity="1" y="79.375" transform="rotate(0)"></text></g></g><g id="SvgjsG1971" transform="translate(273.23493975903614,170.25)"><path id="SvgjsPath1972" d="M 0 4Q 0 0 4 0L 227.76506024096386 0Q 231.76506024096386 0 231.76506024096386 4L 231.76506024096386 70.25Q 231.76506024096386 74.25 227.76506024096386 74.25L 4 74.25Q 0 74.25 0 70.25Z" stroke="rgba(33,41,48,1)" stroke-width="2" fill-opacity="1" fill="#a6a6a6"></path><g id="SvgjsG1973"><text id="SvgjsText1974" font-family="微软雅黑" text-anchor="middle" font-size="13px" width="212px" fill="#323232" font-weight="400" align="middle" lineHeight="125%" anchor="middle" family="微软雅黑" size="13px" weight="400" font-style="" opacity="1" y="26.5" transform="rotate(0)"><tspan id="SvgjsTspan1975" dy="16.25" x="116"><tspan id="SvgjsTspan1976" style="">DAPP</tspan></tspan></text></g></g><g id="SvgjsG1977" transform="translate(624.5,170.25)"><path id="SvgjsPath1978" d="M 0 4Q 0 0 4 0L 240 0Q 244 0 244 4L 244 70.25Q 244 74.25 240 74.25L 4 74.25Q 0 74.25 0 70.25Z" stroke="rgba(33,41,48,1)" stroke-width="2" fill-opacity="1" fill="#a6a6a6"></path><g id="SvgjsG1979"><text id="SvgjsText1980" font-family="微软雅黑" text-anchor="middle" font-size="13px" width="224px" fill="#323232" font-weight="400" align="middle" lineHeight="125%" anchor="middle" family="微软雅黑" size="13px" weight="400" font-style="" opacity="1" y="26.5" transform="rotate(0)"><tspan id="SvgjsTspan1981" dy="16.25" x="122"><tspan id="SvgjsTspan1982" style="">Wallet (Metamask)</tspan></tspan></text></g></g><g id="SvgjsG1983"><path id="SvgjsPath1984" d="M673.4143929412778 245.23662084801936C 673.5353697749196 286.40371789831227 628.5 297.3776807740093 628.8750281842895 336.4602016296684" stroke="#323232" stroke-width="2" fill="none" marker-end="url(#SvgjsMarker1985)"></path></g><g id="SvgjsG1987"><path id="SvgjsPath1988" d="M560 100C 560 173.90361463460624 389.11746987951807 96.34638536539376 389.27992509482334 169.263284081906" stroke="#323232" stroke-width="2" fill="none"></path></g><g id="SvgjsG1989"><path id="SvgjsPath1990" d="M560 100C 560 183.57344075721664 756.5 87.42655924278336 756.3541986173361 170.01068611815396" stroke="#323232" stroke-width="2" fill="none"></path></g><g id="SvgjsG1991" transform="translate(460.25,38)"><path id="SvgjsPath1992" d="M 0 0L 86.75 0L 86.75 28.5L 0 28.5Z" stroke="none" fill="none"></path><g id="SvgjsG1993"><text id="SvgjsText1994" font-family="微软雅黑" text-anchor="middle" font-size="13px" width="87px" fill="#323232" font-weight="400" align="middle" lineHeight="125%" anchor="middle" family="微软雅黑" size="13px" weight="400" font-style="" opacity="1" y="3.625" transform="rotate(0)"><tspan id="SvgjsTspan1995" dy="16.25" x="43.5"><tspan id="SvgjsTspan1996" style="">User</tspan></tspan></text></g></g><g id="SvgjsG1997"><path id="SvgjsPath1998" d="M506.83493975903616 193C 551.7409638554217 193 575.9939759036145 193 623.5 193" stroke="#323232" stroke-width="2" fill="none" marker-start="url(#SvgjsMarker1999)"></path><rect id="SvgjsRect2001" width="90" height="16" x="550.0548501012049" y="185" fill="#ffffff"></rect><text id="SvgjsText2002" font-family="微软雅黑" text-anchor="middle" font-size="13px" width="90px" fill="#323232" font-weight="400" align="top" lineHeight="16px" anchor="middle" family="微软雅黑" size="13px" weight="400" font-style="" opacity="1" y="182.375" transform="rotate(0)"><tspan id="SvgjsTspan2003" dy="16.25" x="595.0548501012049"><tspan id="SvgjsTspan2004" style="">Inject Provider</tspan></tspan></text></g><g id="SvgjsG2005" transform="translate(1084,655)"><path id="SvgjsPath2006" d="M 0 0L 75 0L 75 75L 0 75Z" stroke="none" fill="url(#SvgjsPattern2007)"></path><g id="SvgjsG2009"><text id="SvgjsText2010" font-family="微软雅黑" text-anchor="middle" font-size="13px" width="115px" fill="#323232" font-weight="400" align="middle" lineHeight="125%" anchor="middle" family="微软雅黑" size="13px" weight="400" font-style="" opacity="1" y="79.375" transform="rotate(0)"><tspan id="SvgjsTspan2011" dy="16.25" x="37.5"><tspan id="SvgjsTspan2012" style="">Developer</tspan></tspan></text></g></g><g id="SvgjsG2013" transform="translate(56,767)"><path id="SvgjsPath2014" d="M 0 0L 136.5 0L 136.5 48.75L 0 48.75Z" stroke="none" fill="none"></path><g id="SvgjsG2015"><text id="SvgjsText2016" font-family="微软雅黑" text-anchor="middle" font-size="18px" width="137px" fill="#323232" font-weight="700" align="middle" lineHeight="125%" anchor="middle" family="微软雅黑" size="18px" weight="700" font-style="" opacity="1" y="8.625" transform="rotate(0)"><tspan id="SvgjsTspan2017" dy="22.5" x="68.5"><tspan id="SvgjsTspan2018" style="">Infrastructure</tspan></tspan></text></g></g><g id="SvgjsG2019"><path id="SvgjsPath2020" d="M564.999560184526 701.470344688326C 671.718754170293 701.4999999999999 764.75 629.718754170293 764.6111959174686 525.5973230917826" stroke="#323232" stroke-width="2" fill="none" marker-end="url(#SvgjsMarker2021)"></path></g><g id="SvgjsG2023"><path id="SvgjsPath2024" d="M541 683C 528.8 625.8 510.5 598.4865796572171 510.5799874525128 543.0989678939028" stroke="#323232" stroke-width="2" fill="none" marker-end="url(#SvgjsMarker2025)"></path></g><g id="SvgjsG2027" transform="translate(350.5,601.5)"><path id="SvgjsPath2028" d="M 0 0L 322.5 0L 322.5 38.5L 0 38.5Z" stroke="rgba(33,41,48,1)" stroke-width="1" fill-opacity="1" fill="#ffe0b2"></path><g id="SvgjsG2029"><text id="SvgjsText2030" font-family="微软雅黑" text-anchor="middle" font-size="13px" width="303px" fill="#323232" font-weight="400" align="middle" lineHeight="125%" anchor="middle" family="微软雅黑" size="13px" weight="400" font-style="" opacity="1" y="0.125" transform="rotate(0)"><tspan id="SvgjsTspan2031" dy="16.25" x="161.5"><tspan id="SvgjsTspan2032" style="">Interactive library（Provider）：ethers.js、</tspan></tspan><tspan id="SvgjsTspan2033" dy="16.25" x="161.5"><tspan id="SvgjsTspan2034" style="">web3.js</tspan></tspan></text></g></g><g id="SvgjsG2035"><path id="SvgjsPath2036" d="M129.5 560.5C 501.5 560.5 687.5 560.5 1059.5 560.5" stroke-dasharray="8,5" stroke="#323232" stroke-width="1" fill="none"></path></g><g id="SvgjsG2037"><path id="SvgjsPath2038" d="M129.5 330.5C 501.5 330.5 687.5 330.5 1059.5 330.5" stroke-dasharray="8,5" stroke="#323232" stroke-width="1" fill="none"></path></g><g id="SvgjsG2039" transform="translate(444,681.5)"><path id="SvgjsPath2040" d="M 0 0L 120 0L 120 40L 0 40Z" stroke="none" fill="none"></path><g id="SvgjsG2041"><text id="SvgjsText2042" font-family="微软雅黑" text-anchor="middle" font-size="13px" width="120px" fill="#323232" font-weight="400" align="middle" lineHeight="125%" anchor="middle" family="微软雅黑" size="13px" weight="400" font-style="" opacity="1" y="0.875" transform="rotate(0)"><tspan id="SvgjsTspan2043" dy="16.25" x="60"><tspan id="SvgjsTspan2044" style="">Smart contract dev</tspan></tspan><tspan id="SvgjsTspan2045" dy="16.25" x="60"><tspan id="SvgjsTspan2046" style="">elopment tools</tspan></tspan></text></g></g><g id="SvgjsG2047" transform="translate(505,567)"><path id="SvgjsPath2048" d="M 0 0L 120 0L 120 40L 0 40Z" stroke="none" fill="none"></path><g id="SvgjsG2049"><text id="SvgjsText2050" font-family="微软雅黑" text-anchor="middle" font-size="13px" width="120px" fill="#323232" font-weight="400" align="middle" lineHeight="125%" anchor="middle" family="微软雅黑" size="13px" weight="400" font-style="" opacity="1" y="0.875" transform="rotate(0)"><tspan id="SvgjsTspan2051" dy="16.25" x="60"><tspan id="SvgjsTspan2052" style="">Connect to the Eth</tspan></tspan><tspan id="SvgjsTspan2053" dy="16.25" x="60"><tspan id="SvgjsTspan2054" style="">ereum network</tspan></tspan></text></g></g><g id="SvgjsG2055"><path id="SvgjsPath2056" d="M1084 692.5C 1049.586695051986 692.5 1033.913304948014 708.6701030927834 999.9989841160316 708.6382463517673" stroke="#323232" stroke-width="2" fill="none"></path></g><g id="SvgjsG2057" transform="translate(123.25,142.5625)"><path id="SvgjsPath2058" d="M 0 0L 57.5 0L 57.5 48.75L 0 48.75Z" stroke="none" fill="none"></path><g id="SvgjsG2059"><text id="SvgjsText2060" font-family="微软雅黑" text-anchor="middle" font-size="18px" width="58px" fill="#323232" font-weight="700" align="middle" lineHeight="125%" anchor="middle" family="微软雅黑" size="18px" weight="700" font-style="" opacity="1" y="-13.875" transform="rotate(0)"><tspan id="SvgjsTspan2061" dy="22.5" x="29"><tspan id="SvgjsTspan2062" style="">Dapp </tspan></tspan><tspan id="SvgjsTspan2063" dy="22.5" x="29"><tspan id="SvgjsTspan2064" style="">user l</tspan></tspan><tspan id="SvgjsTspan2065" dy="22.5" x="29"><tspan id="SvgjsTspan2066" style="">ayer</tspan></tspan></text></g></g><g id="SvgjsG2067" transform="translate(389.5,873)"><path id="SvgjsPath2068" d="M 0 4Q 0 0 4 0L 232.25 0Q 236.25 0 236.25 4L 236.25 42Q 236.25 46 232.25 46L 4 46Q 0 46 0 42Z" stroke="rgba(33,41,48,1)" stroke-width="2" fill-opacity="1" fill="#e1bee7"></path><g id="SvgjsG2069"><text id="SvgjsText2070" font-family="微软雅黑" text-anchor="middle" font-size="13px" width="217px" fill="#000000" font-weight="400" align="middle" lineHeight="125%" anchor="middle" family="微软雅黑" size="13px" weight="400" font-style="" opacity="1" y="12.375" transform="rotate(0)"><tspan id="SvgjsTspan2071" dy="16.25" x="118.5"><tspan id="SvgjsTspan2072" style="">Solidity development language</tspan></tspan></text></g></g><g id="SvgjsG2073"><path id="SvgjsPath2074" d="M432.6534125461826 850.8148566331282C 432.07375 862.3043516793856 452.5 860.6956483206144 451.9203374538174 872.1851433668718" stroke="#323232" stroke-width="2" fill="none"></path></g><g id="SvgjsG2075"><path id="SvgjsPath2076" d="M566.9594370266298 851.824705112845C 567.525 862.1272683080799 550.5 861.8727316919201 551.0655629733702 872.175294887155" stroke="#323232" stroke-width="2" fill="none"></path></g><g id="SvgjsG2077"><path id="SvgjsPath2078" d="M455.9662185811482 245.24033074159763C 455.8810344294915 284.0432422237742 484.5 299.7381564485474 484.23592912986413 336.4487009595758" stroke="#323232" stroke-width="2" fill="none" marker-end="url(#SvgjsMarker2079)"></path></g><g id="SvgjsG2081" transform="translate(374.5,299)"><path id="SvgjsPath2082" d="M 0 0L 162.25 0L 162.25 40L 0 40Z" stroke="none" fill="none"></path><g id="SvgjsG2083"><text id="SvgjsText2084" font-family="微软雅黑" text-anchor="middle" font-size="13px" width="163px" fill="#323232" font-weight="400" align="middle" lineHeight="125%" anchor="middle" family="微软雅黑" size="13px" weight="400" font-style="" opacity="1" y="9.375" transform="rotate(0)"><tspan id="SvgjsTspan2085" dy="16.25" x="81.5"><tspan id="SvgjsTspan2086" style="">Call the contract interface</tspan></tspan></text></g></g><g id="SvgjsG2087"><path id="SvgjsPath2088" d="M628 224L566.117469879518 224L566.117469879518 224L507.83493975903616 224" stroke="#323232" stroke-width="2" fill="none" marker-end="url(#SvgjsMarker2089)"></path><rect id="SvgjsRect2091" width="60" height="16" x="537.9174698795181" y="216" fill="#ffffff"></rect><text id="SvgjsText2092" font-family="微软雅黑" text-anchor="middle" font-size="13px" width="60px" fill="#323232" font-weight="400" align="top" lineHeight="16px" anchor="middle" family="微软雅黑" size="13px" weight="400" font-style="" opacity="1" y="213.375" transform="rotate(0)"><tspan id="SvgjsTspan2093" dy="16.25" x="567.9174698795181"><tspan id="SvgjsTspan2094" style="">Authorize</tspan></tspan></text></g><g id="SvgjsG2095" transform="translate(624.5,299)"><path id="SvgjsPath2096" d="M 0 0L 176.5 0L 176.5 40L 0 40Z" stroke="none" fill="none"></path><g id="SvgjsG2097"><text id="SvgjsText2098" font-family="微软雅黑" text-anchor="middle" font-size="13px" width="177px" fill="#323232" font-weight="400" align="middle" lineHeight="125%" anchor="middle" family="微软雅黑" size="13px" weight="400" font-style="" opacity="1" y="9.375" transform="rotate(0)"><tspan id="SvgjsTspan2099" dy="16.25" x="88.5"><tspan id="SvgjsTspan2100" style="">Connect to network/trade</tspan></tspan></text></g></g><g id="SvgjsG2101" transform="translate(369.875,267.625)"><path id="SvgjsPath2102" d="M 0 0L 390.25 0L 390.25 33.875L 0 33.875Z" stroke="rgba(33,41,48,1)" stroke-width="1" fill-opacity="1" fill="#ffe0b2"></path><g id="SvgjsG2103"><text id="SvgjsText2104" font-family="微软雅黑" text-anchor="middle" font-size="13px" width="371px" fill="#323232" font-weight="400" align="middle" lineHeight="125%" anchor="middle" family="微软雅黑" size="13px" weight="400" font-style="" opacity="1" y="6.3125" transform="rotate(0)"><tspan id="SvgjsTspan2105" dy="16.25" x="195.5"><tspan id="SvgjsTspan2106" style="">Interactive library（Provider）：ethers.js、web3.js</tspan></tspan></text></g></g><g id="SvgjsG2107" transform="translate(343,480)"><path id="SvgjsPath2108" d="M 0 4Q 0 0 4 0L 51 0Q 55 0 55 4L 55 27.5Q 55 31.5 51 31.5L 4 31.5Q 0 31.5 0 27.5Z" stroke="rgba(33,41,48,1)" stroke-width="1" fill-opacity="1" fill="#f2f2f2"></path><g id="SvgjsG2109"><text id="SvgjsText2110" font-family="微软雅黑" text-anchor="middle" font-size="13px" width="35px" fill="#323232" font-weight="400" align="middle" lineHeight="125%" anchor="middle" family="微软雅黑" size="13px" weight="400" font-style="" opacity="1" y="5.125" transform="rotate(0)"><tspan id="SvgjsTspan2111" dy="16.25" x="27.5"><tspan id="SvgjsTspan2112" style="">...</tspan></tspan></text></g></g><g id="SvgjsG2113" transform="translate(693,401)"><path id="SvgjsPath2114" d="M 0 4Q 0 0 4 0L 139.5 0Q 143.5 0 143.5 4L 143.5 117Q 143.5 121 139.5 121L 4 121Q 0 121 0 117Z" stroke="rgba(33,41,48,1)" stroke-width="2" fill-opacity="1" fill="#e0e0e0"></path><g id="SvgjsG2115"><text id="SvgjsText2116" font-family="微软雅黑" text-anchor="middle" font-size="13px" width="124px" fill="#323232" font-weight="400" align="middle" lineHeight="125%" anchor="middle" family="微软雅黑" size="13px" weight="400" font-style="" opacity="1" y="49.875" transform="rotate(0)"></text></g></g><g id="SvgjsG2117" transform="translate(702.5,401)"><path id="SvgjsPath2118" d="M 0 0L 120 0L 120 40L 0 40Z" stroke="none" fill="none"></path><g id="SvgjsG2119"><text id="SvgjsText2120" font-family="微软雅黑" text-anchor="middle" font-size="13px" width="120px" fill="#323232" font-weight="400" align="middle" lineHeight="125%" anchor="middle" family="微软雅黑" size="13px" weight="400" font-style="" opacity="1" y="9.375" transform="rotate(0)"><tspan id="SvgjsTspan2121" dy="16.25" x="60"><tspan id="SvgjsTspan2122" style="">parachain</tspan></tspan></text></g></g><g id="SvgjsG2123" transform="translate(702.5,480)"><path id="SvgjsPath2124" d="M 0 4Q 0 0 4 0L 84 0Q 88 0 88 4L 88 27.5Q 88 31.5 84 31.5L 4 31.5Q 0 31.5 0 27.5Z" stroke="rgba(33,41,48,1)" stroke-width="1" fill-opacity="1" fill="#f2f2f2"></path><g id="SvgjsG2125"><text id="SvgjsText2126" font-family="微软雅黑" text-anchor="middle" font-size="13px" width="68px" fill="#323232" font-weight="400" align="middle" lineHeight="125%" anchor="middle" family="微软雅黑" size="13px" weight="400" font-style="" opacity="1" y="5.125" transform="rotate(0)"><tspan id="SvgjsTspan2127" dy="16.25" x="44"><tspan id="SvgjsTspan2128" style="">contract1</tspan></tspan></text></g></g><g id="SvgjsG2129" transform="translate(797,480)"><path id="SvgjsPath2130" d="M 0 4Q 0 0 4 0L 26 0Q 30 0 30 4L 30 27.5Q 30 31.5 26 31.5L 4 31.5Q 0 31.5 0 27.5Z" stroke="rgba(33,41,48,1)" stroke-width="1" fill-opacity="1" fill="#f2f2f2"></path><g id="SvgjsG2131"><text id="SvgjsText2132" font-family="微软雅黑" text-anchor="middle" font-size="13px" width="10px" fill="#323232" font-weight="400" align="middle" lineHeight="125%" anchor="middle" family="微软雅黑" size="13px" weight="400" font-style="" opacity="1" y="5.125" transform="rotate(0)"><tspan id="SvgjsTspan2133" dy="16.25" x="15"><tspan id="SvgjsTspan2134" style="">...</tspan></tspan></text></g></g><g id="SvgjsG2135" transform="translate(702.5,433)"><path id="SvgjsPath2136" d="M 0 4Q 0 0 4 0L 120.5 0Q 124.5 0 124.5 4L 124.5 23Q 124.5 27 120.5 27L 4 27Q 0 27 0 23Z" stroke="rgba(33,41,48,1)" stroke-width="1" fill-opacity="1" fill="#f2f2f2"></path><g id="SvgjsG2137"><text id="SvgjsText2138" font-family="微软雅黑" text-anchor="middle" font-size="13px" width="105px" fill="#323232" font-weight="400" align="middle" lineHeight="125%" anchor="middle" family="微软雅黑" size="13px" weight="400" font-style="" opacity="1" y="2.875" transform="rotate(0)"></text></g></g><g id="SvgjsG2139"><path id="SvgjsPath2140" d="M885.0413176405341 400.7155212949113C 733 354 509 358 351.4846384917447 400.09595653763154" stroke-dasharray="8,5" stroke="#323232" stroke-width="2" fill="none" marker-end="url(#SvgjsMarker2141)"></path></g><g id="SvgjsG2143" transform="translate(515,337)"><path id="SvgjsPath2144" d="M 0 0L 152 0L 152 40L 0 40Z" stroke="none" fill="none"></path><g id="SvgjsG2145"><text id="SvgjsText2146" font-family="微软雅黑" text-anchor="middle" font-size="13px" width="152px" fill="#323232" font-weight="400" align="middle" lineHeight="125%" anchor="middle" family="微软雅黑" size="13px" weight="400" font-style="" opacity="1" y="9.375" transform="rotate(0)"><tspan id="SvgjsTspan2147" dy="16.25" x="76"><tspan id="SvgjsTspan2148" style="">Become a node</tspan></tspan></text></g></g><g id="SvgjsG2149" transform="translate(716.5,591.5)"><path id="SvgjsPath2150" d="M 0 0L 120 0L 120 65L 0 65Z" stroke="none" fill="none"></path><g id="SvgjsG2151"><text id="SvgjsText2152" font-family="微软雅黑" text-anchor="middle" font-size="13px" width="120px" fill="#323232" font-weight="400" align="middle" lineHeight="125%" anchor="middle" family="微软雅黑" size="13px" weight="400" font-style="" opacity="1" y="5.375" transform="rotate(0)"><tspan id="SvgjsTspan2153" dy="16.25" x="60"><tspan id="SvgjsTspan2154" style="">Run the local netw</tspan></tspan><tspan id="SvgjsTspan2155" dy="16.25" x="60"><tspan id="SvgjsTspan2156" style="">ork deployment co</tspan></tspan><tspan id="SvgjsTspan2157" dy="16.25" x="60"><tspan id="SvgjsTspan2158" style="">ntract</tspan></tspan></text></g></g><g id="SvgjsG2159" transform="translate(765,730)"><path id="SvgjsPath2160" d="M 0 4Q 0 0 4 0L 196 0Q 200 0 200 4L 200 117Q 200 121 196 121L 4 121Q 0 121 0 117Z" stroke="rgba(33,41,48,1)" stroke-width="2" fill-opacity="1" fill="#bbdefb"></path><g id="SvgjsG2161"><text id="SvgjsText2162" font-family="微软雅黑" text-anchor="middle" font-size="13px" width="180px" fill="#323232" font-weight="400" align="middle" lineHeight="125%" anchor="middle" family="微软雅黑" size="13px" weight="400" font-style="" opacity="1" y="49.875" transform="rotate(0)"></text></g></g><g id="SvgjsG2163" transform="translate(785,770.9999999999999)"><path id="SvgjsPath2164" d="M 0 4Q 0 0 4 0L 70 0Q 74 0 74 4L 74 27.5Q 74 31.5 70 31.5L 4 31.5Q 0 31.5 0 27.5Z" stroke="rgba(33,41,48,1)" stroke-width="1" fill-opacity="1" fill="#d9d9d9"></path><g id="SvgjsG2165"><text id="SvgjsText2166" font-family="微软雅黑" text-anchor="middle" font-size="13px" width="54px" fill="#323232" font-weight="400" align="middle" lineHeight="125%" anchor="middle" family="微软雅黑" size="13px" weight="400" font-style="" opacity="1" y="5.125" transform="rotate(0)"><tspan id="SvgjsTspan2167" dy="16.25" x="37"><tspan id="SvgjsTspan2168" style="">HTLC</tspan></tspan></text></g></g><g id="SvgjsG2169" transform="translate(874,770.9999999999999)"><path id="SvgjsPath2170" d="M 0 4Q 0 0 4 0L 63 0Q 67 0 67 4L 67 27.5Q 67 31.5 63 31.5L 4 31.5Q 0 31.5 0 27.5Z" stroke="rgba(33,41,48,1)" stroke-width="1" fill-opacity="1" fill="#d9d9d9"></path><g id="SvgjsG2171"><text id="SvgjsText2172" font-family="微软雅黑" text-anchor="middle" font-size="13px" width="47px" fill="#323232" font-weight="400" align="middle" lineHeight="125%" anchor="middle" family="微软雅黑" size="13px" weight="400" font-style="" opacity="1" y="5.125" transform="rotate(0)"><tspan id="SvgjsTspan2173" dy="16.25" x="33.5"><tspan id="SvgjsTspan2174" style="">RSMC</tspan></tspan></text></g></g><g id="SvgjsG2175" transform="translate(785,812.5)"><path id="SvgjsPath2176" d="M 0 4Q 0 0 4 0L 152 0Q 156 0 156 4L 156 27.5Q 156 31.5 152 31.5L 4 31.5Q 0 31.5 0 27.5Z" stroke="rgba(33,41,48,1)" stroke-width="1" fill-opacity="1" fill="#d9d9d9"></path><g id="SvgjsG2177"><text id="SvgjsText2178" font-family="微软雅黑" text-anchor="middle" font-size="13px" width="136px" fill="#323232" font-weight="400" align="middle" lineHeight="125%" anchor="middle" family="微软雅黑" size="13px" weight="400" font-style="" opacity="1" y="5.125" transform="rotate(0)"><tspan id="SvgjsTspan2179" dy="16.25" x="78"><tspan id="SvgjsTspan2180" style="">Payment channel</tspan></tspan></text></g></g><g id="SvgjsG2181" transform="translate(717,727)"><path id="SvgjsPath2182" d="M 0 0L 167 0L 167 40L 0 40Z" stroke="none" fill="none"></path><g id="SvgjsG2183"><text id="SvgjsText2184" font-family="微软雅黑" text-anchor="middle" font-size="13px" width="167px" fill="#323232" font-weight="400" align="middle" lineHeight="125%" anchor="middle" family="微软雅黑" size="13px" weight="400" font-style="" opacity="1" y="9.375" transform="rotate(0)"><tspan id="SvgjsTspan2185" dy="16.25" x="83.5"><tspan id="SvgjsTspan2186" style="">hash lock</tspan></tspan></text></g></g><g id="SvgjsG2187"><path id="SvgjsPath2188" d="M867.0323883025602 729.0005246386943C 867 644.4532291667301 916.75 607.5467708332699 916.6334021107834 525.5981113007007" stroke="#323232" stroke-width="2" fill="none" marker-end="url(#SvgjsMarker2189)"></path></g><g id="SvgjsG2191" transform="matrix(6.123233995736766e-17,1,-1,6.123233995736766e-17,589,645)"><path id="SvgjsPath2192" d="M 85.49999999999994 0Q 76.94999999999995 0 76.94999999999995 9L 76.94999999999995 82Q 76.94999999999995 91 63.49999999999994 91Q 76.94999999999995 91 76.94999999999995 100L 76.94999999999995 173Q 76.94999999999995 182 85.49999999999994 182" stroke="rgba(33,41,48,1)" stroke-width="1" fill="none"></path><path id="SvgjsPath2193" d="M 0 0L 85.49999999999994 0L 85.49999999999994 182L 0 182Z" stroke="none" fill="none"></path><g id="SvgjsG2194"><text id="SvgjsText2195" font-family="微软雅黑" text-anchor="end" font-size="13px" width="59px" fill="#323232" font-weight="400" align="middle" lineHeight="125%" anchor="end" family="微软雅黑" size="13px" weight="400" font-style="" opacity="1" y="80.375" transform="rotate(0)"></text></g></g><g id="SvgjsG2196" transform="translate(536.75,401)"><path id="SvgjsPath2197" d="M 0 4Q 0 0 4 0L 139.5 0Q 143.5 0 143.5 4L 143.5 117Q 143.5 121 139.5 121L 4 121Q 0 121 0 117Z" stroke="rgba(33,41,48,1)" stroke-width="2" fill-opacity="1" fill="#e0e0e0"></path><g id="SvgjsG2198"><text id="SvgjsText2199" font-family="微软雅黑" text-anchor="middle" font-size="13px" width="124px" fill="#323232" font-weight="400" align="middle" lineHeight="125%" anchor="middle" family="微软雅黑" size="13px" weight="400" font-style="" opacity="1" y="49.875" transform="rotate(0)"></text></g></g><g id="SvgjsG2200" transform="translate(547,399)"><path id="SvgjsPath2201" d="M 0 0L 120 0L 120 40L 0 40Z" stroke="none" fill="none"></path><g id="SvgjsG2202"><text id="SvgjsText2203" font-family="微软雅黑" text-anchor="middle" font-size="13px" width="120px" fill="#323232" font-weight="400" align="middle" lineHeight="125%" anchor="middle" family="微软雅黑" size="13px" weight="400" font-style="" opacity="1" y="0.875" transform="rotate(0)"><tspan id="SvgjsTspan2204" dy="16.25" x="60"><tspan id="SvgjsTspan2205" style="">Kusama </tspan></tspan><tspan id="SvgjsTspan2206" dy="16.25" x="60"><tspan id="SvgjsTspan2207" style="">Test Network</tspan></tspan></text></g></g><g id="SvgjsG2208" transform="translate(548.5,433)"><path id="SvgjsPath2209" d="M 0 4Q 0 0 4 0L 120.5 0Q 124.5 0 124.5 4L 124.5 23Q 124.5 27 120.5 27L 4 27Q 0 27 0 23Z" stroke="rgba(33,41,48,1)" stroke-width="1" fill-opacity="1" fill="#f2f2f2"></path><g id="SvgjsG2210"><text id="SvgjsText2211" font-family="微软雅黑" text-anchor="middle" font-size="13px" width="105px" fill="#323232" font-weight="400" align="middle" lineHeight="125%" anchor="middle" family="微软雅黑" size="13px" weight="400" font-style="" opacity="1" y="2.875" transform="rotate(0)"><tspan id="SvgjsTspan2212" dy="16.25" x="62.5"><tspan id="SvgjsTspan2213" style="">blockchain</tspan></tspan></text></g></g><g id="SvgjsG2214" transform="translate(548.5,480)"><path id="SvgjsPath2215" d="M 0 4Q 0 0 4 0L 85.5 0Q 89.5 0 89.5 4L 89.5 27.5Q 89.5 31.5 85.5 31.5L 4 31.5Q 0 31.5 0 27.5Z" stroke="rgba(33,41,48,1)" stroke-width="1" fill-opacity="1" fill="#f2f2f2"></path><g id="SvgjsG2216"><text id="SvgjsText2217" font-family="微软雅黑" text-anchor="middle" font-size="13px" width="70px" fill="#323232" font-weight="400" align="middle" lineHeight="125%" anchor="middle" family="微软雅黑" size="13px" weight="400" font-style="" opacity="1" y="5.125" transform="rotate(0)"><tspan id="SvgjsTspan2218" dy="16.25" x="45"><tspan id="SvgjsTspan2219" style="">contract1</tspan></tspan></text></g></g><g id="SvgjsG2220" transform="translate(644,480)"><path id="SvgjsPath2221" d="M 0 4Q 0 0 4 0L 25 0Q 29 0 29 4L 29 27.5Q 29 31.5 25 31.5L 4 31.5Q 0 31.5 0 27.5Z" stroke="rgba(33,41,48,1)" stroke-width="1" fill-opacity="1" fill="#f2f2f2"></path><g id="SvgjsG2222"><text id="SvgjsText2223" font-family="微软雅黑" text-anchor="middle" font-size="13px" width="9px" fill="#323232" font-weight="400" align="middle" lineHeight="125%" anchor="middle" family="微软雅黑" size="13px" weight="400" font-style="" opacity="1" y="-3.375" transform="rotate(0)"><tspan id="SvgjsTspan2224" dy="16.25" x="14.5"><tspan id="SvgjsTspan2225" style="">..</tspan></tspan><tspan id="SvgjsTspan2226" dy="16.25" x="14.5"><tspan id="SvgjsTspan2227" style="">.</tspan></tspan></text></g></g><g id="SvgjsG2228"><path id="SvgjsPath2229" d="M774 401C 591.375 401 427 329 320.503957177139 399.1140412568742" stroke-dasharray="8,5" stroke="#323232" stroke-width="2" fill="none" marker-end="url(#SvgjsMarker2230)"></path></g><g id="SvgjsG2232" transform="translate(801,690)"><path id="SvgjsPath2233" d="M 0 0L 124 0L 124 40L 0 40Z" stroke="none" fill="none"></path><g id="SvgjsG2234"><text id="SvgjsText2235" font-family="微软雅黑" text-anchor="middle" font-size="13px" width="124px" fill="#323232" font-weight="400" align="middle" lineHeight="125%" anchor="middle" family="微软雅黑" size="13px" weight="400" font-style="" opacity="1" y="9.375" transform="rotate(0)"><tspan id="SvgjsTspan2236" dy="16.25" x="62"><tspan id="SvgjsTspan2237" style="">Safety measures</tspan></tspan></text></g></g></svg>