<svg id="SvgjsSvg1006" width="1085.75" height="957" xmlns="http://www.w3.org/2000/svg" version="1.1" xmlns:xlink="http://www.w3.org/1999/xlink" xmlns:svgjs="http://svgjs.com/svgjs"><defs id="SvgjsDefs1007"><pattern patternUnits="userSpaceOnUse" id="pattern_mark_0" width="300" height="300"><text x="150" y="100" fill="rgba(172,172,172,0.8)" font-size="18" transform="rotate(-45, 150, 150)" style="dominant-baseline: middle; text-anchor: middle;"></text></pattern><pattern patternUnits="userSpaceOnUse" id="pattern_mark_1" width="300" height="300"><text x="150" y="200" fill="rgba(172,172,172,0.8)" font-size="18" transform="rotate(-45, 150, 150)" style="dominant-baseline: middle; text-anchor: middle;"></text></pattern><pattern id="SvgjsPattern1151" x="0" y="0" width="75" height="75" patternUnits="userSpaceOnUse"><image id="SvgjsImage1152" xlink:href="https://www.processon.com/v5_editor/static/assets/images/designer/network_azure/User.svg" width="75" height="75" preserveAspectRatio="none" crossOrigin="anonymous" x="0" y="0"></image></pattern><marker id="SvgjsMarker1169" markerWidth="14" markerHeight="10" refX="10" refY="5" viewBox="0 0 14 10" orient="auto" markerUnits="userSpaceOnUse" stroke-dasharray="0,0"><path id="SvgjsPath1170" d="M0,0 L14,5 L0,10 L0,0" fill="#323232" stroke="#323232" stroke-width="1"></path></marker><marker id="SvgjsMarker1183" markerWidth="14" markerHeight="10" refX="4" refY="5" viewBox="0 0 14 10" orient="auto" markerUnits="userSpaceOnUse" stroke-dasharray="0,0"><path id="SvgjsPath1184" d="M14,0 L0,5 L14,10 L14,0" fill="#323232" stroke="#323232" stroke-width="1"></path></marker><pattern id="SvgjsPattern1191" x="0" y="0" width="75" height="75" patternUnits="userSpaceOnUse"><image id="SvgjsImage1192" xlink:href="https://www.processon.com/v5_editor/static/assets/images/designer/network_azure/User.svg" width="75" height="75" preserveAspectRatio="none" crossOrigin="anonymous" x="0" y="0"></image></pattern><marker id="SvgjsMarker1211" markerWidth="14" markerHeight="10" refX="10" refY="5" viewBox="0 0 14 10" orient="auto" markerUnits="userSpaceOnUse" stroke-dasharray="0,0"><path id="SvgjsPath1212" d="M0,0 L14,5 L0,10 L0,0" fill="#323232" stroke="#323232" stroke-width="1"></path></marker><marker id="SvgjsMarker1215" markerWidth="14" markerHeight="10" refX="10" refY="5" viewBox="0 0 14 10" orient="auto" markerUnits="userSpaceOnUse" stroke-dasharray="0,0"><path id="SvgjsPath1216" d="M0,0 L14,5 L0,10 L0,0" fill="#323232" stroke="#323232" stroke-width="1"></path></marker><marker id="SvgjsMarker1261" markerWidth="14" markerHeight="10" refX="10" refY="5" viewBox="0 0 14 10" orient="auto" markerUnits="userSpaceOnUse" stroke-dasharray="0,0"><path id="SvgjsPath1262" d="M0,0 L14,5 L0,10 L0,0" fill="#323232" stroke="#323232" stroke-width="1"></path></marker><marker id="SvgjsMarker1271" markerWidth="14" markerHeight="10" refX="10" refY="5" viewBox="0 0 14 10" orient="auto" markerUnits="userSpaceOnUse" stroke-dasharray="0,0"><path id="SvgjsPath1272" d="M0,0 L14,5 L0,10 L0,0" fill="#323232" stroke="#323232" stroke-width="1"></path></marker><marker id="SvgjsMarker1323" markerWidth="14" markerHeight="10" refX="10" refY="5" viewBox="0 0 14 10" orient="auto" markerUnits="userSpaceOnUse" stroke-dasharray="0,0"><path id="SvgjsPath1324" d="M0,0 L14,5 L0,10 L0,0" fill="#323232" stroke="#323232" stroke-width="1"></path></marker><marker id="SvgjsMarker1369" markerWidth="14" markerHeight="10" refX="10" refY="5" viewBox="0 0 14 10" orient="auto" markerUnits="userSpaceOnUse" stroke-dasharray="0,0"><path id="SvgjsPath1370" d="M0,0 L14,5 L0,10 L0,0" fill="#323232" stroke="#323232" stroke-width="1"></path></marker><marker id="SvgjsMarker1406" markerWidth="14" markerHeight="10" refX="10" refY="5" viewBox="0 0 14 10" orient="auto" markerUnits="userSpaceOnUse" stroke-dasharray="0,0"><path id="SvgjsPath1407" d="M0,0 L14,5 L0,10 L0,0" fill="#323232" stroke="#323232" stroke-width="1"></path></marker></defs><rect id="svgbackgroundid" width="1085.75" height="957" fill="#bfbfbf"></rect><rect id="SvgjsRect1009" width="1085.75" height="957" fill="url(#pattern_mark_0)"></rect><rect id="SvgjsRect1010" width="1085.75" height="957" fill="url(#pattern_mark_1)"></rect><g id="SvgjsG1011" transform="translate(118.75,683)"><path id="SvgjsPath1012" d="M 0 0L 783 0L 783 249L 0 249Z" stroke="rgba(33,41,48,1)" stroke-width="1" fill-opacity="1" fill="#a6a6a6"></path><g id="SvgjsG1013"><text id="SvgjsText1014" font-family="微软雅黑" text-anchor="middle" font-size="13px" width="763px" fill="#323232" font-weight="400" align="middle" lineHeight="125%" anchor="middle" family="微软雅黑" size="13px" weight="400" font-style="" opacity="1" y="113.875" transform="rotate(0)"></text></g></g><g id="SvgjsG1015" transform="translate(118.75,339)"><path id="SvgjsPath1016" d="M 0 0L 783 0L 783 201L 0 201Z" stroke="rgba(33,41,48,1)" stroke-width="1" fill-opacity="1" fill="#a6a6a6"></path><g id="SvgjsG1017"><text id="SvgjsText1018" font-family="微软雅黑" text-anchor="middle" font-size="13px" width="763px" fill="#323232" font-weight="400" align="middle" lineHeight="125%" anchor="middle" family="微软雅黑" size="13px" weight="400" font-style="" opacity="1" y="89.875" transform="rotate(0)"></text></g></g><g id="SvgjsG1019" transform="translate(146.75,401)"><path id="SvgjsPath1020" d="M 0 4Q 0 0 4 0L 145 0Q 149 0 149 4L 149 117Q 149 121 145 121L 4 121Q 0 121 0 117Z" stroke="rgba(33,41,48,1)" stroke-width="2" fill-opacity="1" fill="#81c784"></path><g id="SvgjsG1021"><text id="SvgjsText1022" font-family="微软雅黑" text-anchor="middle" font-size="13px" width="129px" fill="#323232" font-weight="400" align="middle" lineHeight="125%" anchor="middle" family="微软雅黑" size="13px" weight="400" font-style="" opacity="1" y="49.875" transform="rotate(0)"></text></g></g><g id="SvgjsG1023" transform="translate(146.75,399)"><path id="SvgjsPath1024" d="M 0 0L 144.875 0L 144.875 40L 0 40Z" stroke="none" fill="none"></path><g id="SvgjsG1025"><text id="SvgjsText1026" font-family="微软雅黑" text-anchor="middle" font-size="13px" width="145px" fill="#323232" font-weight="400" align="middle" lineHeight="125%" anchor="middle" family="微软雅黑" size="13px" weight="400" font-style="" opacity="1" y="9.375" transform="rotate(0)"><tspan id="SvgjsTspan1027" dy="16.25" x="72.5"><tspan id="SvgjsTspan1028" style="">Polkadot主网</tspan></tspan></text></g></g><g id="SvgjsG1029" transform="translate(156.25,480)"><path id="SvgjsPath1030" d="M 0 4Q 0 0 4 0L 51 0Q 55 0 55 4L 55 27.5Q 55 31.5 51 31.5L 4 31.5Q 0 31.5 0 27.5Z" stroke="rgba(33,41,48,1)" stroke-width="1" fill-opacity="1" fill="#f2f2f2"></path><g id="SvgjsG1031"><text id="SvgjsText1032" font-family="微软雅黑" text-anchor="middle" font-size="13px" width="35px" fill="#323232" font-weight="400" align="middle" lineHeight="125%" anchor="middle" family="微软雅黑" size="13px" weight="400" font-style="" opacity="1" y="5.125" transform="rotate(0)"><tspan id="SvgjsTspan1033" dy="16.25" x="27.5"><tspan id="SvgjsTspan1034" style="">合约1</tspan></tspan></text></g></g><g id="SvgjsG1035" transform="translate(156.25,433)"><path id="SvgjsPath1036" d="M 0 4Q 0 0 4 0L 121.875 0Q 125.875 0 125.875 4L 125.875 23Q 125.875 27 121.875 27L 4 27Q 0 27 0 23Z" stroke="rgba(33,41,48,1)" stroke-width="1" fill-opacity="1" fill="#f2f2f2"></path><g id="SvgjsG1037"><text id="SvgjsText1038" font-family="微软雅黑" text-anchor="middle" font-size="13px" width="106px" fill="#323232" font-weight="400" align="middle" lineHeight="125%" anchor="middle" family="微软雅黑" size="13px" weight="400" font-style="" opacity="1" y="2.875" transform="rotate(0)"><tspan id="SvgjsTspan1039" dy="16.25" x="63"><tspan id="SvgjsTspan1040" style="">插槽</tspan></tspan></text></g></g><g id="SvgjsG1041" transform="translate(746.75,401)"><path id="SvgjsPath1042" d="M 0 4Q 0 0 4 0L 139.5 0Q 143.5 0 143.5 4L 143.5 117Q 143.5 121 139.5 121L 4 121Q 0 121 0 117Z" stroke-dasharray="10,6" stroke="rgba(33,41,48,1)" stroke-width="2" fill-opacity="1" fill="#e0e0e0"></path><g id="SvgjsG1043"><text id="SvgjsText1044" font-family="微软雅黑" text-anchor="middle" font-size="13px" width="124px" fill="#323232" font-weight="400" align="middle" lineHeight="125%" anchor="middle" family="微软雅黑" size="13px" weight="400" font-style="" opacity="1" y="49.875" transform="rotate(0)"></text></g></g><g id="SvgjsG1045" transform="translate(761.75,398)"><path id="SvgjsPath1046" d="M 0 0L 100 0L 100 40L 0 40Z" stroke="none" fill="none"></path><g id="SvgjsG1047"><text id="SvgjsText1048" font-family="微软雅黑" text-anchor="middle" font-size="13px" width="100px" fill="#323232" font-weight="400" align="middle" lineHeight="125%" anchor="middle" family="微软雅黑" size="13px" weight="400" font-style="" opacity="1" y="9.375" transform="rotate(0)"><tspan id="SvgjsTspan1049" dy="16.25" x="50"><tspan id="SvgjsTspan1050" style="">智能合约链</tspan></tspan></text></g></g><g id="SvgjsG1051" transform="translate(756.25,480)"><path id="SvgjsPath1052" d="M 0 4Q 0 0 4 0L 51 0Q 55 0 55 4L 55 27.5Q 55 31.5 51 31.5L 4 31.5Q 0 31.5 0 27.5Z" stroke="rgba(33,41,48,1)" stroke-width="1" fill-opacity="1" fill="#f2f2f2"></path><g id="SvgjsG1053"><text id="SvgjsText1054" font-family="微软雅黑" text-anchor="middle" font-size="13px" width="35px" fill="#323232" font-weight="400" align="middle" lineHeight="125%" anchor="middle" family="微软雅黑" size="13px" weight="400" font-style="" opacity="1" y="5.125" transform="rotate(0)"><tspan id="SvgjsTspan1055" dy="16.25" x="27.5"><tspan id="SvgjsTspan1056" style="">Acala</tspan></tspan></text></g></g><g id="SvgjsG1057" transform="translate(822.75,480)"><path id="SvgjsPath1058" d="M 0 4Q 0 0 4 0L 54 0Q 58 0 58 4L 58 27.5Q 58 31.5 54 31.5L 4 31.5Q 0 31.5 0 27.5Z" stroke="rgba(33,41,48,1)" stroke-width="1" fill-opacity="1" fill="#f2f2f2"></path><g id="SvgjsG1059"><text id="SvgjsText1060" font-family="微软雅黑" text-anchor="middle" font-size="13px" width="38px" fill="#323232" font-weight="400" align="middle" lineHeight="125%" anchor="middle" family="微软雅黑" size="13px" weight="400" font-style="" opacity="1" y="5.125" transform="rotate(0)"><tspan id="SvgjsTspan1061" dy="16.25" x="29"><tspan id="SvgjsTspan1062" style="">...</tspan></tspan></text></g></g><g id="SvgjsG1063" transform="translate(756.25,433)"><path id="SvgjsPath1064" d="M 0 4Q 0 0 4 0L 120.5 0Q 124.5 0 124.5 4L 124.5 23Q 124.5 27 120.5 27L 4 27Q 0 27 0 23Z" stroke="rgba(33,41,48,1)" stroke-width="1" fill-opacity="1" fill="#f2f2f2"></path><g id="SvgjsG1065"><text id="SvgjsText1066" font-family="微软雅黑" text-anchor="middle" font-size="13px" width="105px" fill="#323232" font-weight="400" align="middle" lineHeight="125%" anchor="middle" family="微软雅黑" size="13px" weight="400" font-style="" opacity="1" y="2.875" transform="rotate(0)"><tspan id="SvgjsTspan1067" dy="16.25" x="62.5"><tspan id="SvgjsTspan1068" style="">Plasm</tspan></tspan></text></g></g><g id="SvgjsG1069" transform="translate(38.25,426.5)"><path id="SvgjsPath1070" d="M 0 0L 31 0L 31 40L 0 40Z" stroke="none" fill="none"></path><g id="SvgjsG1071"><text id="SvgjsText1072" font-family="微软雅黑" text-anchor="middle" font-size="18px" width="31px" fill="#323232" font-weight="700" align="middle" lineHeight="125%" anchor="middle" family="微软雅黑" size="18px" weight="700" font-style="" opacity="1" y="-29.25" transform="rotate(0)"><tspan id="SvgjsTspan1073" dy="22.5" x="15.5"><tspan id="SvgjsTspan1074" style="">项</tspan></tspan><tspan id="SvgjsTspan1075" dy="22.5" x="15.5"><tspan id="SvgjsTspan1076" style="">目</tspan></tspan><tspan id="SvgjsTspan1077" dy="22.5" x="15.5"><tspan id="SvgjsTspan1078" style="">部</tspan></tspan><tspan id="SvgjsTspan1079" dy="22.5" x="15.5"><tspan id="SvgjsTspan1080" style="">署</tspan></tspan></text></g></g><g id="SvgjsG1081" transform="translate(178.75,730)"><path id="SvgjsPath1082" d="M 0 4Q 0 0 4 0L 204 0Q 208 0 208 4L 208 117Q 208 121 204 121L 4 121Q 0 121 0 117Z" stroke="rgba(33,41,48,1)" stroke-width="2" fill-opacity="1" fill="#bbdefb"></path><g id="SvgjsG1083"><text id="SvgjsText1084" font-family="微软雅黑" text-anchor="middle" font-size="13px" width="188px" fill="#323232" font-weight="400" align="middle" lineHeight="125%" anchor="middle" family="微软雅黑" size="13px" weight="400" font-style="" opacity="1" y="49.875" transform="rotate(0)"></text></g></g><g id="SvgjsG1085" transform="translate(132.75,727)"><path id="SvgjsPath1086" d="M 0 0L 167 0L 167 40L 0 40Z" stroke="none" fill="none"></path><g id="SvgjsG1087"><text id="SvgjsText1088" font-family="微软雅黑" text-anchor="middle" font-size="13px" width="167px" fill="#323232" font-weight="400" align="middle" lineHeight="125%" anchor="middle" family="微软雅黑" size="13px" weight="400" font-style="" opacity="1" y="9.375" transform="rotate(0)"><tspan id="SvgjsTspan1089" dy="16.25" x="83.5"><tspan id="SvgjsTspan1090" style="">Truffle</tspan></tspan></text></g></g><g id="SvgjsG1091" transform="translate(187.75,770.9999999999999)"><path id="SvgjsPath1092" d="M 0 4Q 0 0 4 0L 51 0Q 55 0 55 4L 55 27.5Q 55 31.5 51 31.5L 4 31.5Q 0 31.5 0 27.5Z" stroke="rgba(33,41,48,1)" stroke-width="1" fill-opacity="1" fill="#d9d9d9"></path><g id="SvgjsG1093"><text id="SvgjsText1094" font-family="微软雅黑" text-anchor="middle" font-size="13px" width="35px" fill="#323232" font-weight="400" align="middle" lineHeight="125%" anchor="middle" family="微软雅黑" size="13px" weight="400" font-style="" opacity="1" y="5.125" transform="rotate(0)"><tspan id="SvgjsTspan1095" dy="16.25" x="27.5"><tspan id="SvgjsTspan1096" style="">开发</tspan></tspan></text></g></g><g id="SvgjsG1097" transform="translate(255.75,770.9999999999999)"><path id="SvgjsPath1098" d="M 0 4Q 0 0 4 0L 51 0Q 55 0 55 4L 55 27.5Q 55 31.5 51 31.5L 4 31.5Q 0 31.5 0 27.5Z" stroke="rgba(33,41,48,1)" stroke-width="1" fill-opacity="1" fill="#d9d9d9"></path><g id="SvgjsG1099"><text id="SvgjsText1100" font-family="微软雅黑" text-anchor="middle" font-size="13px" width="35px" fill="#323232" font-weight="400" align="middle" lineHeight="125%" anchor="middle" family="微软雅黑" size="13px" weight="400" font-style="" opacity="1" y="5.125" transform="rotate(0)"><tspan id="SvgjsTspan1101" dy="16.25" x="27.5"><tspan id="SvgjsTspan1102" style="">编译</tspan></tspan></text></g></g><g id="SvgjsG1103" transform="translate(321.875,770.9999999999999)"><path id="SvgjsPath1104" d="M 0 4Q 0 0 4 0L 51 0Q 55 0 55 4L 55 27.5Q 55 31.5 51 31.5L 4 31.5Q 0 31.5 0 27.5Z" stroke="rgba(33,41,48,1)" stroke-width="1" fill-opacity="1" fill="#d9d9d9"></path><g id="SvgjsG1105"><text id="SvgjsText1106" font-family="微软雅黑" text-anchor="middle" font-size="13px" width="35px" fill="#323232" font-weight="400" align="middle" lineHeight="125%" anchor="middle" family="微软雅黑" size="13px" weight="400" font-style="" opacity="1" y="5.125" transform="rotate(0)"><tspan id="SvgjsTspan1107" dy="16.25" x="27.5"><tspan id="SvgjsTspan1108" style="">部署</tspan></tspan></text></g></g><g id="SvgjsG1109" transform="translate(312.75,812.5)"><path id="SvgjsPath1110" d="M 0 4Q 0 0 4 0L 63.25 0Q 67.25 0 67.25 4L 67.25 27.5Q 67.25 31.5 63.25 31.5L 4 31.5Q 0 31.5 0 27.5Z" stroke="rgba(33,41,48,1)" stroke-width="1" fill-opacity="1" fill="#d9d9d9"></path><g id="SvgjsG1111"><text id="SvgjsText1112" font-family="微软雅黑" text-anchor="middle" font-size="13px" width="48px" fill="#323232" font-weight="400" align="middle" lineHeight="125%" anchor="middle" family="微软雅黑" size="13px" weight="400" font-style="" opacity="1" y="5.125" transform="rotate(0)"><tspan id="SvgjsTspan1113" dy="16.25" x="34"><tspan id="SvgjsTspan1114" style="">console</tspan></tspan></text></g></g><g id="SvgjsG1115" transform="translate(186.75,812.5)"><path id="SvgjsPath1116" d="M 0 4Q 0 0 4 0L 116 0Q 120 0 120 4L 120 27.5Q 120 31.5 116 31.5L 4 31.5Q 0 31.5 0 27.5Z" stroke="rgba(33,41,48,1)" stroke-width="1" fill-opacity="1" fill="#d9d9d9"></path><g id="SvgjsG1117"><text id="SvgjsText1118" font-family="微软雅黑" text-anchor="middle" font-size="13px" width="100px" fill="#323232" font-weight="400" align="middle" lineHeight="125%" anchor="middle" family="微软雅黑" size="13px" weight="400" font-style="" opacity="1" y="5.125" transform="rotate(0)"><tspan id="SvgjsTspan1119" dy="16.25" x="60"><tspan id="SvgjsTspan1120" style="">测试</tspan></tspan></text></g></g><g id="SvgjsG1121" transform="translate(426.75,730)"><path id="SvgjsPath1122" d="M 0 4Q 0 0 4 0L 196 0Q 200 0 200 4L 200 117Q 200 121 196 121L 4 121Q 0 121 0 117Z" stroke="rgba(33,41,48,1)" stroke-width="2" fill-opacity="1" fill="#bbdefb"></path><g id="SvgjsG1123"><text id="SvgjsText1124" font-family="微软雅黑" text-anchor="middle" font-size="13px" width="180px" fill="#323232" font-weight="400" align="middle" lineHeight="125%" anchor="middle" family="微软雅黑" size="13px" weight="400" font-style="" opacity="1" y="49.875" transform="rotate(0)"></text></g></g><g id="SvgjsG1125" transform="translate(378.75,727)"><path id="SvgjsPath1126" d="M 0 0L 167 0L 167 40L 0 40Z" stroke="none" fill="none"></path><g id="SvgjsG1127"><text id="SvgjsText1128" font-family="微软雅黑" text-anchor="middle" font-size="13px" width="167px" fill="#323232" font-weight="400" align="middle" lineHeight="125%" anchor="middle" family="微软雅黑" size="13px" weight="400" font-style="" opacity="1" y="9.375" transform="rotate(0)"><tspan id="SvgjsTspan1129" dy="16.25" x="83.5"><tspan id="SvgjsTspan1130" style="">node.js</tspan></tspan></text></g></g><g id="SvgjsG1131" transform="translate(457.75,812.5)"><path id="SvgjsPath1132" d="M 0 4Q 0 0 4 0L 133 0Q 137 0 137 4L 137 27.5Q 137 31.5 133 31.5L 4 31.5Q 0 31.5 0 27.5Z" stroke="rgba(33,41,48,1)" stroke-width="1" fill-opacity="1" fill="#d9d9d9"></path><g id="SvgjsG1133"><text id="SvgjsText1134" font-family="微软雅黑" text-anchor="middle" font-size="13px" width="117px" fill="#323232" font-weight="400" align="middle" lineHeight="125%" anchor="middle" family="微软雅黑" size="13px" weight="400" font-style="" opacity="1" y="5.125" transform="rotate(0)"><tspan id="SvgjsTspan1135" dy="16.25" x="68.5"><tspan id="SvgjsTspan1136" style="">编译</tspan></tspan></text></g></g><g id="SvgjsG1137" transform="translate(539.75,771.5)"><path id="SvgjsPath1138" d="M 0 4Q 0 0 4 0L 51 0Q 55 0 55 4L 55 27.5Q 55 31.5 51 31.5L 4 31.5Q 0 31.5 0 27.5Z" stroke="rgba(33,41,48,1)" stroke-width="1" fill-opacity="1" fill="#d9d9d9"></path><g id="SvgjsG1139"><text id="SvgjsText1140" font-family="微软雅黑" text-anchor="middle" font-size="13px" width="35px" fill="#323232" font-weight="400" align="middle" lineHeight="125%" anchor="middle" family="微软雅黑" size="13px" weight="400" font-style="" opacity="1" y="5.125" transform="rotate(0)"><tspan id="SvgjsTspan1141" dy="16.25" x="27.5"><tspan id="SvgjsTspan1142" style="">部署</tspan></tspan></text></g></g><g id="SvgjsG1143" transform="translate(458.25,771.5)"><path id="SvgjsPath1144" d="M 0 4Q 0 0 4 0L 58.5 0Q 62.5 0 62.5 4L 62.5 27.5Q 62.5 31.5 58.5 31.5L 4 31.5Q 0 31.5 0 27.5Z" stroke="rgba(33,41,48,1)" stroke-width="1" fill-opacity="1" fill="#d9d9d9"></path><g id="SvgjsG1145"><text id="SvgjsText1146" font-family="微软雅黑" text-anchor="middle" font-size="13px" width="43px" fill="#323232" font-weight="400" align="middle" lineHeight="125%" anchor="middle" family="微软雅黑" size="13px" weight="400" font-style="" opacity="1" y="5.125" transform="rotate(0)"><tspan id="SvgjsTspan1147" dy="16.25" x="31.5"><tspan id="SvgjsTspan1148" style="">交互</tspan></tspan></text></g></g><g id="SvgjsG1149" transform="translate(424.25,25)"><path id="SvgjsPath1150" d="M 0 0L 75 0L 75 75L 0 75Z" stroke="none" fill="url(#SvgjsPattern1151)"></path><g id="SvgjsG1153"><text id="SvgjsText1154" font-family="微软雅黑" text-anchor="middle" font-size="13px" width="115px" fill="#323232" font-weight="400" align="middle" lineHeight="125%" anchor="middle" family="微软雅黑" size="13px" weight="400" font-style="" opacity="1" y="79.375" transform="rotate(0)"></text></g></g><g id="SvgjsG1155" transform="translate(174.98493975903614,170.25)"><path id="SvgjsPath1156" d="M 0 4Q 0 0 4 0L 227.76506024096386 0Q 231.76506024096386 0 231.76506024096386 4L 231.76506024096386 70.25Q 231.76506024096386 74.25 227.76506024096386 74.25L 4 74.25Q 0 74.25 0 70.25Z" stroke="rgba(33,41,48,1)" stroke-width="2" fill-opacity="1" fill="#a6a6a6"></path><g id="SvgjsG1157"><text id="SvgjsText1158" font-family="微软雅黑" text-anchor="middle" font-size="13px" width="212px" fill="#323232" font-weight="400" align="middle" lineHeight="125%" anchor="middle" family="微软雅黑" size="13px" weight="400" font-style="" opacity="1" y="26.5" transform="rotate(0)"><tspan id="SvgjsTspan1159" dy="16.25" x="116"><tspan id="SvgjsTspan1160" style="">DAPP</tspan></tspan></text></g></g><g id="SvgjsG1161" transform="translate(529.75,170.25)"><path id="SvgjsPath1162" d="M 0 4Q 0 0 4 0L 240 0Q 244 0 244 4L 244 70.25Q 244 74.25 240 74.25L 4 74.25Q 0 74.25 0 70.25Z" stroke="rgba(33,41,48,1)" stroke-width="2" fill-opacity="1" fill="#a6a6a6"></path><g id="SvgjsG1163"><text id="SvgjsText1164" font-family="微软雅黑" text-anchor="middle" font-size="13px" width="224px" fill="#323232" font-weight="400" align="middle" lineHeight="125%" anchor="middle" family="微软雅黑" size="13px" weight="400" font-style="" opacity="1" y="26.5" transform="rotate(0)"><tspan id="SvgjsTspan1165" dy="16.25" x="122"><tspan id="SvgjsTspan1166" style="">钱包（Metamask）</tspan></tspan></text></g></g><g id="SvgjsG1167"><path id="SvgjsPath1168" d="M578.65834698356 245.23586531584766C 578.7853697749196 287.0206453203902 530.25 296.7607533519314 530.6437706532147 336.4625437794007" stroke="#323232" stroke-width="2" fill="none" marker-end="url(#SvgjsMarker1169)"></path></g><g id="SvgjsG1171"><path id="SvgjsPath1172" d="M461.75 100C 461.75 173.90361463460624 290.86746987951807 96.34638536539376 291.02992509482334 169.263284081906" stroke="#323232" stroke-width="2" fill="none"></path></g><g id="SvgjsG1173"><path id="SvgjsPath1174" d="M461.75 100C 461.75 184.89146011231048 661.75 86.10853988768952 661.6062141211612 170.01039117776438" stroke="#323232" stroke-width="2" fill="none"></path></g><g id="SvgjsG1175" transform="translate(355.25,45)"><path id="SvgjsPath1176" d="M 0 0L 120 0L 120 40L 0 40Z" stroke="none" fill="none"></path><g id="SvgjsG1177"><text id="SvgjsText1178" font-family="微软雅黑" text-anchor="middle" font-size="13px" width="120px" fill="#323232" font-weight="400" align="middle" lineHeight="125%" anchor="middle" family="微软雅黑" size="13px" weight="400" font-style="" opacity="1" y="9.375" transform="rotate(0)"><tspan id="SvgjsTspan1179" dy="16.25" x="60"><tspan id="SvgjsTspan1180" style="">用户</tspan></tspan></text></g></g><g id="SvgjsG1181"><path id="SvgjsPath1182" d="M408.58493975903616 193C 454.89096385542166 193 479.8439759036145 193 528.75 193" stroke="#323232" stroke-width="2" fill="none" marker-start="url(#SvgjsMarker1183)"></path><rect id="SvgjsRect1185" width="78" height="16" x="428.692469879518" y="184.99999999999997" fill="#ffffff"></rect><text id="SvgjsText1186" font-family="微软雅黑" text-anchor="middle" font-size="13px" width="78px" fill="#323232" font-weight="400" align="top" lineHeight="16px" anchor="middle" family="微软雅黑" size="13px" weight="400" font-style="" opacity="1" y="182.37499999999997" transform="rotate(0)"><tspan id="SvgjsTspan1187" dy="16.25" x="467.692469879518"><tspan id="SvgjsTspan1188" style="">注入Provider</tspan></tspan></text></g><g id="SvgjsG1189" transform="translate(985.75,655)"><path id="SvgjsPath1190" d="M 0 0L 75 0L 75 75L 0 75Z" stroke="none" fill="url(#SvgjsPattern1191)"></path><g id="SvgjsG1193"><text id="SvgjsText1194" font-family="微软雅黑" text-anchor="middle" font-size="13px" width="115px" fill="#323232" font-weight="400" align="middle" lineHeight="125%" anchor="middle" family="微软雅黑" size="13px" weight="400" font-style="" opacity="1" y="79.375" transform="rotate(0)"><tspan id="SvgjsTspan1195" dy="16.25" x="37.5"><tspan id="SvgjsTspan1196" style="">开发者</tspan></tspan></text></g></g><g id="SvgjsG1197" transform="translate(38.25,669)"><path id="SvgjsPath1198" d="M 0 0L 31 0L 31 40L 0 40Z" stroke="none" fill="none"></path><g id="SvgjsG1199"><text id="SvgjsText1200" font-family="微软雅黑" text-anchor="middle" font-size="18px" width="31px" fill="#323232" font-weight="700" align="middle" lineHeight="125%" anchor="middle" family="微软雅黑" size="18px" weight="700" font-style="" opacity="1" y="-29.25" transform="rotate(0)"><tspan id="SvgjsTspan1201" dy="22.5" x="15.5"><tspan id="SvgjsTspan1202" style="">基</tspan></tspan><tspan id="SvgjsTspan1203" dy="22.5" x="15.5"><tspan id="SvgjsTspan1204" style="">础</tspan></tspan><tspan id="SvgjsTspan1205" dy="22.5" x="15.5"><tspan id="SvgjsTspan1206" style="">架</tspan></tspan><tspan id="SvgjsTspan1207" dy="22.5" x="15.5"><tspan id="SvgjsTspan1208" style="">构</tspan></tspan></text></g></g><g id="SvgjsG1209"><path id="SvgjsPath1210" d="M466.749560184526 701.470344688326C 573.468754170293 701.4999999999999 666.5 629.718754170293 666.3611959174686 525.5973230917826" stroke="#323232" stroke-width="2" fill="none" marker-end="url(#SvgjsMarker1211)"></path></g><g id="SvgjsG1213"><path id="SvgjsPath1214" d="M442.75 683C 430.54999999999995 625.8 412.25 598.4865796572171 412.3299874525128 543.0989678939028" stroke="#323232" stroke-width="2" fill="none" marker-end="url(#SvgjsMarker1215)"></path></g><g id="SvgjsG1217" transform="translate(252.25,601.5)"><path id="SvgjsPath1218" d="M 0 0L 322.5 0L 322.5 38.5L 0 38.5Z" stroke="rgba(33,41,48,1)" stroke-width="1" fill-opacity="1" fill="#ffe0b2"></path><g id="SvgjsG1219"><text id="SvgjsText1220" font-family="微软雅黑" text-anchor="middle" font-size="13px" width="303px" fill="#323232" font-weight="400" align="middle" lineHeight="125%" anchor="middle" family="微软雅黑" size="13px" weight="400" font-style="" opacity="1" y="8.625" transform="rotate(0)"><tspan id="SvgjsTspan1221" dy="16.25" x="161.5"><tspan id="SvgjsTspan1222" style="">交互库（Provider）：ethers.js、web3.js</tspan></tspan></text></g></g><g id="SvgjsG1223"><path id="SvgjsPath1224" d="M31.25 560.5C 403.25 560.5 589.25 560.5 961.25 560.5" stroke-dasharray="8,5" stroke="#323232" stroke-width="1" fill="none"></path></g><g id="SvgjsG1225"><path id="SvgjsPath1226" d="M31.25 330.5C 403.25 330.5 589.25 330.5 961.25 330.5" stroke-dasharray="8,5" stroke="#323232" stroke-width="1" fill="none"></path></g><g id="SvgjsG1227" transform="translate(345.75,681.5)"><path id="SvgjsPath1228" d="M 0 0L 120 0L 120 40L 0 40Z" stroke="none" fill="none"></path><g id="SvgjsG1229"><text id="SvgjsText1230" font-family="微软雅黑" text-anchor="middle" font-size="13px" width="120px" fill="#323232" font-weight="400" align="middle" lineHeight="125%" anchor="middle" family="微软雅黑" size="13px" weight="400" font-style="" opacity="1" y="9.375" transform="rotate(0)"><tspan id="SvgjsTspan1231" dy="16.25" x="60"><tspan id="SvgjsTspan1232" style="">智能合约开发工具</tspan></tspan></text></g></g><g id="SvgjsG1233" transform="translate(406.75,567)"><path id="SvgjsPath1234" d="M 0 0L 120 0L 120 40L 0 40Z" stroke="none" fill="none"></path><g id="SvgjsG1235"><text id="SvgjsText1236" font-family="微软雅黑" text-anchor="middle" font-size="13px" width="120px" fill="#323232" font-weight="400" align="middle" lineHeight="125%" anchor="middle" family="微软雅黑" size="13px" weight="400" font-style="" opacity="1" y="9.375" transform="rotate(0)"><tspan id="SvgjsTspan1237" dy="16.25" x="60"><tspan id="SvgjsTspan1238" style="">连接以太坊网络</tspan></tspan></text></g></g><g id="SvgjsG1239"><path id="SvgjsPath1240" d="M985.75 692.5C 951.336695051986 692.5 935.663304948014 708.6701030927834 901.7489841160316 708.6382463517673" stroke="#323232" stroke-width="2" fill="none"></path></g><g id="SvgjsG1241" transform="translate(25,100)"><path id="SvgjsPath1242" d="M 0 0L 57.5 0L 57.5 133.875L 0 133.875Z" stroke="none" fill="none"></path><g id="SvgjsG1243"><text id="SvgjsText1244" font-family="微软雅黑" text-anchor="middle" font-size="18px" width="58px" fill="#323232" font-weight="700" align="middle" lineHeight="125%" anchor="middle" family="微软雅黑" size="18px" weight="700" font-style="" opacity="1" y="40.1875" transform="rotate(0)"><tspan id="SvgjsTspan1245" dy="22.5" x="29"><tspan id="SvgjsTspan1246" style="">Dapp</tspan></tspan><tspan id="SvgjsTspan1247" dy="22.5" x="29"><tspan id="SvgjsTspan1248" style="">用户层</tspan></tspan></text></g></g><g id="SvgjsG1249" transform="translate(291.25,873)"><path id="SvgjsPath1250" d="M 0 4Q 0 0 4 0L 232.25 0Q 236.25 0 236.25 4L 236.25 42Q 236.25 46 232.25 46L 4 46Q 0 46 0 42Z" stroke="rgba(33,41,48,1)" stroke-width="2" fill-opacity="1" fill="#e1bee7"></path><g id="SvgjsG1251"><text id="SvgjsText1252" font-family="微软雅黑" text-anchor="middle" font-size="13px" width="217px" fill="#000000" font-weight="400" align="middle" lineHeight="125%" anchor="middle" family="微软雅黑" size="13px" weight="400" font-style="" opacity="1" y="12.375" transform="rotate(0)"><tspan id="SvgjsTspan1253" dy="16.25" x="118.5"><tspan id="SvgjsTspan1254" style="">Solidity开发语言</tspan></tspan></text></g></g><g id="SvgjsG1255"><path id="SvgjsPath1256" d="M338.9117576960556 850.8530937267421C 338.39 861.1752555228057 354.25 861.8247444771943 353.7282423039444 872.1469062732579" stroke="#323232" stroke-width="2" fill="none"></path></g><g id="SvgjsG1257"><path id="SvgjsPath1258" d="M466.71730603186484 851.8463079441389C 467.25 861.6508215645555 452.25 862.3491784354445 452.78269396813516 872.1536920558611" stroke="#323232" stroke-width="2" fill="none"></path></g><g id="SvgjsG1259"><path id="SvgjsPath1260" d="M357.7162185811482 245.24033074159763C 357.6310344294915 284.0432422237742 386.25 299.7381564485474 385.98592912986413 336.4487009595758" stroke="#323232" stroke-width="2" fill="none" marker-end="url(#SvgjsMarker1261)"></path></g><g id="SvgjsG1263" transform="translate(276.25,299)"><path id="SvgjsPath1264" d="M 0 0L 120 0L 120 40L 0 40Z" stroke="none" fill="none"></path><g id="SvgjsG1265"><text id="SvgjsText1266" font-family="微软雅黑" text-anchor="middle" font-size="13px" width="120px" fill="#323232" font-weight="400" align="middle" lineHeight="125%" anchor="middle" family="微软雅黑" size="13px" weight="400" font-style="" opacity="1" y="9.375" transform="rotate(0)"><tspan id="SvgjsTspan1267" dy="16.25" x="60"><tspan id="SvgjsTspan1268" style="">调用合约接口</tspan></tspan></text></g></g><g id="SvgjsG1269"><path id="SvgjsPath1270" d="M529.75 224L467.867469879518 224L467.867469879518 224L409.58493975903616 224" stroke="#323232" stroke-width="2" fill="none" marker-end="url(#SvgjsMarker1271)"></path><rect id="SvgjsRect1273" width="26" height="16" x="456.6674698795181" y="216" fill="#ffffff"></rect><text id="SvgjsText1274" font-family="微软雅黑" text-anchor="middle" font-size="13px" width="26px" fill="#323232" font-weight="400" align="top" lineHeight="16px" anchor="middle" family="微软雅黑" size="13px" weight="400" font-style="" opacity="1" y="213.375" transform="rotate(0)"><tspan id="SvgjsTspan1275" dy="16.25" x="469.6674698795181"><tspan id="SvgjsTspan1276" style="">授权</tspan></tspan></text></g><g id="SvgjsG1277" transform="translate(526.25,299)"><path id="SvgjsPath1278" d="M 0 0L 120 0L 120 40L 0 40Z" stroke="none" fill="none"></path><g id="SvgjsG1279"><text id="SvgjsText1280" font-family="微软雅黑" text-anchor="middle" font-size="13px" width="120px" fill="#323232" font-weight="400" align="middle" lineHeight="125%" anchor="middle" family="微软雅黑" size="13px" weight="400" font-style="" opacity="1" y="9.375" transform="rotate(0)"><tspan id="SvgjsTspan1281" dy="16.25" x="60"><tspan id="SvgjsTspan1282" style="">连接网络/交易</tspan></tspan></text></g></g><g id="SvgjsG1283" transform="translate(271.625,267.625)"><path id="SvgjsPath1284" d="M 0 0L 390.25 0L 390.25 33.875L 0 33.875Z" stroke="rgba(33,41,48,1)" stroke-width="1" fill-opacity="1" fill="#ffe0b2"></path><g id="SvgjsG1285"><text id="SvgjsText1286" font-family="微软雅黑" text-anchor="middle" font-size="13px" width="371px" fill="#323232" font-weight="400" align="middle" lineHeight="125%" anchor="middle" family="微软雅黑" size="13px" weight="400" font-style="" opacity="1" y="6.3125" transform="rotate(0)"><tspan id="SvgjsTspan1287" dy="16.25" x="195.5"><tspan id="SvgjsTspan1288" style="">交互库（Provider）：ethers.js、web3.js</tspan></tspan></text></g></g><g id="SvgjsG1289" transform="translate(226.25,480)"><path id="SvgjsPath1290" d="M 0 4Q 0 0 4 0L 51 0Q 55 0 55 4L 55 27.5Q 55 31.5 51 31.5L 4 31.5Q 0 31.5 0 27.5Z" stroke="rgba(33,41,48,1)" stroke-width="1" fill-opacity="1" fill="#f2f2f2"></path><g id="SvgjsG1291"><text id="SvgjsText1292" font-family="微软雅黑" text-anchor="middle" font-size="13px" width="35px" fill="#323232" font-weight="400" align="middle" lineHeight="125%" anchor="middle" family="微软雅黑" size="13px" weight="400" font-style="" opacity="1" y="5.125" transform="rotate(0)"><tspan id="SvgjsTspan1293" dy="16.25" x="27.5"><tspan id="SvgjsTspan1294" style="">...</tspan></tspan></text></g></g><g id="SvgjsG1295" transform="translate(594.75,401)"><path id="SvgjsPath1296" d="M 0 4Q 0 0 4 0L 139.5 0Q 143.5 0 143.5 4L 143.5 117Q 143.5 121 139.5 121L 4 121Q 0 121 0 117Z" stroke="rgba(33,41,48,1)" stroke-width="2" fill-opacity="1" fill="#e0e0e0"></path><g id="SvgjsG1297"><text id="SvgjsText1298" font-family="微软雅黑" text-anchor="middle" font-size="13px" width="124px" fill="#323232" font-weight="400" align="middle" lineHeight="125%" anchor="middle" family="微软雅黑" size="13px" weight="400" font-style="" opacity="1" y="49.875" transform="rotate(0)"></text></g></g><g id="SvgjsG1299" transform="translate(604.25,401)"><path id="SvgjsPath1300" d="M 0 0L 120 0L 120 40L 0 40Z" stroke="none" fill="none"></path><g id="SvgjsG1301"><text id="SvgjsText1302" font-family="微软雅黑" text-anchor="middle" font-size="13px" width="120px" fill="#323232" font-weight="400" align="middle" lineHeight="125%" anchor="middle" family="微软雅黑" size="13px" weight="400" font-style="" opacity="1" y="9.375" transform="rotate(0)"><tspan id="SvgjsTspan1303" dy="16.25" x="60"><tspan id="SvgjsTspan1304" style="">parachain</tspan></tspan></text></g></g><g id="SvgjsG1305" transform="translate(604.25,480)"><path id="SvgjsPath1306" d="M 0 4Q 0 0 4 0L 51 0Q 55 0 55 4L 55 27.5Q 55 31.5 51 31.5L 4 31.5Q 0 31.5 0 27.5Z" stroke="rgba(33,41,48,1)" stroke-width="1" fill-opacity="1" fill="#f2f2f2"></path><g id="SvgjsG1307"><text id="SvgjsText1308" font-family="微软雅黑" text-anchor="middle" font-size="13px" width="35px" fill="#323232" font-weight="400" align="middle" lineHeight="125%" anchor="middle" family="微软雅黑" size="13px" weight="400" font-style="" opacity="1" y="5.125" transform="rotate(0)"><tspan id="SvgjsTspan1309" dy="16.25" x="27.5"><tspan id="SvgjsTspan1310" style="">合约1</tspan></tspan></text></g></g><g id="SvgjsG1311" transform="translate(670.75,480)"><path id="SvgjsPath1312" d="M 0 4Q 0 0 4 0L 54 0Q 58 0 58 4L 58 27.5Q 58 31.5 54 31.5L 4 31.5Q 0 31.5 0 27.5Z" stroke="rgba(33,41,48,1)" stroke-width="1" fill-opacity="1" fill="#f2f2f2"></path><g id="SvgjsG1313"><text id="SvgjsText1314" font-family="微软雅黑" text-anchor="middle" font-size="13px" width="38px" fill="#323232" font-weight="400" align="middle" lineHeight="125%" anchor="middle" family="微软雅黑" size="13px" weight="400" font-style="" opacity="1" y="5.125" transform="rotate(0)"><tspan id="SvgjsTspan1315" dy="16.25" x="29"><tspan id="SvgjsTspan1316" style="">...</tspan></tspan></text></g></g><g id="SvgjsG1317" transform="translate(604.25,433)"><path id="SvgjsPath1318" d="M 0 4Q 0 0 4 0L 120.5 0Q 124.5 0 124.5 4L 124.5 23Q 124.5 27 120.5 27L 4 27Q 0 27 0 23Z" stroke="rgba(33,41,48,1)" stroke-width="1" fill-opacity="1" fill="#f2f2f2"></path><g id="SvgjsG1319"><text id="SvgjsText1320" font-family="微软雅黑" text-anchor="middle" font-size="13px" width="105px" fill="#323232" font-weight="400" align="middle" lineHeight="125%" anchor="middle" family="微软雅黑" size="13px" weight="400" font-style="" opacity="1" y="2.875" transform="rotate(0)"></text></g></g><g id="SvgjsG1321"><path id="SvgjsPath1322" d="M786.7913176405341 400.7155212949113C 634.75 354 410.75 358 253.2346384917447 400.09595653763154" stroke-dasharray="8,5" stroke="#323232" stroke-width="2" fill="none" marker-end="url(#SvgjsMarker1323)"></path></g><g id="SvgjsG1325" transform="translate(416.75,341)"><path id="SvgjsPath1326" d="M 0 0L 152 0L 152 32L 0 32Z" stroke="none" fill="none"></path><g id="SvgjsG1327"><text id="SvgjsText1328" font-family="微软雅黑" text-anchor="middle" font-size="13px" width="152px" fill="#323232" font-weight="400" align="middle" lineHeight="125%" anchor="middle" family="微软雅黑" size="13px" weight="400" font-style="" opacity="1" y="5.375" transform="rotate(0)"><tspan id="SvgjsTspan1329" dy="16.25" x="76"><tspan id="SvgjsTspan1330" style="">成为其中的节点</tspan></tspan></text></g></g><g id="SvgjsG1331" transform="translate(618.25,604)"><path id="SvgjsPath1332" d="M 0 0L 120 0L 120 40L 0 40Z" stroke="none" fill="none"></path><g id="SvgjsG1333"><text id="SvgjsText1334" font-family="微软雅黑" text-anchor="middle" font-size="13px" width="120px" fill="#323232" font-weight="400" align="middle" lineHeight="125%" anchor="middle" family="微软雅黑" size="13px" weight="400" font-style="" opacity="1" y="0.875" transform="rotate(0)"><tspan id="SvgjsTspan1335" dy="16.25" x="60"><tspan id="SvgjsTspan1336" style="">运行本地网</tspan></tspan><tspan id="SvgjsTspan1337" dy="16.25" x="60"><tspan id="SvgjsTspan1338" style="">部署合约</tspan></tspan></text></g></g><g id="SvgjsG1339" transform="translate(666.75,730)"><path id="SvgjsPath1340" d="M 0 4Q 0 0 4 0L 196 0Q 200 0 200 4L 200 117Q 200 121 196 121L 4 121Q 0 121 0 117Z" stroke="rgba(33,41,48,1)" stroke-width="2" fill-opacity="1" fill="#bbdefb"></path><g id="SvgjsG1341"><text id="SvgjsText1342" font-family="微软雅黑" text-anchor="middle" font-size="13px" width="180px" fill="#323232" font-weight="400" align="middle" lineHeight="125%" anchor="middle" family="微软雅黑" size="13px" weight="400" font-style="" opacity="1" y="49.875" transform="rotate(0)"></text></g></g><g id="SvgjsG1343" transform="translate(686.75,770.9999999999999)"><path id="SvgjsPath1344" d="M 0 4Q 0 0 4 0L 70 0Q 74 0 74 4L 74 27.5Q 74 31.5 70 31.5L 4 31.5Q 0 31.5 0 27.5Z" stroke="rgba(33,41,48,1)" stroke-width="1" fill-opacity="1" fill="#d9d9d9"></path><g id="SvgjsG1345"><text id="SvgjsText1346" font-family="微软雅黑" text-anchor="middle" font-size="13px" width="54px" fill="#323232" font-weight="400" align="middle" lineHeight="125%" anchor="middle" family="微软雅黑" size="13px" weight="400" font-style="" opacity="1" y="5.125" transform="rotate(0)"><tspan id="SvgjsTspan1347" dy="16.25" x="37"><tspan id="SvgjsTspan1348" style="">HTLC</tspan></tspan></text></g></g><g id="SvgjsG1349" transform="translate(775.75,770.9999999999999)"><path id="SvgjsPath1350" d="M 0 4Q 0 0 4 0L 63 0Q 67 0 67 4L 67 27.5Q 67 31.5 63 31.5L 4 31.5Q 0 31.5 0 27.5Z" stroke="rgba(33,41,48,1)" stroke-width="1" fill-opacity="1" fill="#d9d9d9"></path><g id="SvgjsG1351"><text id="SvgjsText1352" font-family="微软雅黑" text-anchor="middle" font-size="13px" width="47px" fill="#323232" font-weight="400" align="middle" lineHeight="125%" anchor="middle" family="微软雅黑" size="13px" weight="400" font-style="" opacity="1" y="5.125" transform="rotate(0)"><tspan id="SvgjsTspan1353" dy="16.25" x="33.5"><tspan id="SvgjsTspan1354" style="">RSMC</tspan></tspan></text></g></g><g id="SvgjsG1355" transform="translate(686.75,812.5)"><path id="SvgjsPath1356" d="M 0 4Q 0 0 4 0L 152 0Q 156 0 156 4L 156 27.5Q 156 31.5 152 31.5L 4 31.5Q 0 31.5 0 27.5Z" stroke="rgba(33,41,48,1)" stroke-width="1" fill-opacity="1" fill="#d9d9d9"></path><g id="SvgjsG1357"><text id="SvgjsText1358" font-family="微软雅黑" text-anchor="middle" font-size="13px" width="136px" fill="#323232" font-weight="400" align="middle" lineHeight="125%" anchor="middle" family="微软雅黑" size="13px" weight="400" font-style="" opacity="1" y="5.125" transform="rotate(0)"><tspan id="SvgjsTspan1359" dy="16.25" x="78"><tspan id="SvgjsTspan1360" style="">支付通道</tspan></tspan></text></g></g><g id="SvgjsG1361" transform="translate(618.75,727)"><path id="SvgjsPath1362" d="M 0 0L 167 0L 167 40L 0 40Z" stroke="none" fill="none"></path><g id="SvgjsG1363"><text id="SvgjsText1364" font-family="微软雅黑" text-anchor="middle" font-size="13px" width="167px" fill="#323232" font-weight="400" align="middle" lineHeight="125%" anchor="middle" family="微软雅黑" size="13px" weight="400" font-style="" opacity="1" y="9.375" transform="rotate(0)"><tspan id="SvgjsTspan1365" dy="16.25" x="83.5"><tspan id="SvgjsTspan1366" style="">哈希锁定</tspan></tspan></text></g></g><g id="SvgjsG1367"><path id="SvgjsPath1368" d="M768.7823883025602 729.0005246386943C 768.75 644.4532291667301 818.5 607.5467708332699 818.3834021107834 525.5981113007007" stroke="#323232" stroke-width="2" fill="none" marker-end="url(#SvgjsMarker1369)"></path></g><g id="SvgjsG1371" transform="matrix(6.123233995736766e-17,1,-1,6.123233995736766e-17,476.75,629.5)"><path id="SvgjsPath1372" d="M 100 0Q 91 0 91 9L 91 61Q 91 70 78 70Q 91 70 91 79L 91 131Q 91 140 100 140" stroke="rgba(33,41,48,1)" stroke-width="1" fill="none"></path><path id="SvgjsPath1373" d="M 0 0L 100 0L 100 140L 0 140Z" stroke="none" fill="none"></path><g id="SvgjsG1374"><text id="SvgjsText1375" font-family="微软雅黑" text-anchor="end" font-size="13px" width="73px" fill="#323232" font-weight="400" align="middle" lineHeight="125%" anchor="end" family="微软雅黑" size="13px" weight="400" font-style="" opacity="1" y="59.375" transform="rotate(0)"></text></g></g><g id="SvgjsG1376" transform="translate(438.5,401)"><path id="SvgjsPath1377" d="M 0 4Q 0 0 4 0L 139.5 0Q 143.5 0 143.5 4L 143.5 117Q 143.5 121 139.5 121L 4 121Q 0 121 0 117Z" stroke="rgba(33,41,48,1)" stroke-width="2" fill-opacity="1" fill="#e0e0e0"></path><g id="SvgjsG1378"><text id="SvgjsText1379" font-family="微软雅黑" text-anchor="middle" font-size="13px" width="124px" fill="#323232" font-weight="400" align="middle" lineHeight="125%" anchor="middle" family="微软雅黑" size="13px" weight="400" font-style="" opacity="1" y="49.875" transform="rotate(0)"></text></g></g><g id="SvgjsG1380" transform="translate(448.75,399)"><path id="SvgjsPath1381" d="M 0 0L 120 0L 120 40L 0 40Z" stroke="none" fill="none"></path><g id="SvgjsG1382"><text id="SvgjsText1383" font-family="微软雅黑" text-anchor="middle" font-size="13px" width="120px" fill="#323232" font-weight="400" align="middle" lineHeight="125%" anchor="middle" family="微软雅黑" size="13px" weight="400" font-style="" opacity="1" y="9.375" transform="rotate(0)"><tspan id="SvgjsTspan1384" dy="16.25" x="60"><tspan id="SvgjsTspan1385" style="">Kusama测试网络</tspan></tspan></text></g></g><g id="SvgjsG1386" transform="translate(450.25,433)"><path id="SvgjsPath1387" d="M 0 4Q 0 0 4 0L 120.5 0Q 124.5 0 124.5 4L 124.5 23Q 124.5 27 120.5 27L 4 27Q 0 27 0 23Z" stroke="rgba(33,41,48,1)" stroke-width="1" fill-opacity="1" fill="#f2f2f2"></path><g id="SvgjsG1388"><text id="SvgjsText1389" font-family="微软雅黑" text-anchor="middle" font-size="13px" width="105px" fill="#323232" font-weight="400" align="middle" lineHeight="125%" anchor="middle" family="微软雅黑" size="13px" weight="400" font-style="" opacity="1" y="2.875" transform="rotate(0)"><tspan id="SvgjsTspan1390" dy="16.25" x="62.5"><tspan id="SvgjsTspan1391" style="">区块链</tspan></tspan></text></g></g><g id="SvgjsG1392" transform="translate(450.25,480)"><path id="SvgjsPath1393" d="M 0 4Q 0 0 4 0L 51 0Q 55 0 55 4L 55 27.5Q 55 31.5 51 31.5L 4 31.5Q 0 31.5 0 27.5Z" stroke="rgba(33,41,48,1)" stroke-width="1" fill-opacity="1" fill="#f2f2f2"></path><g id="SvgjsG1394"><text id="SvgjsText1395" font-family="微软雅黑" text-anchor="middle" font-size="13px" width="35px" fill="#323232" font-weight="400" align="middle" lineHeight="125%" anchor="middle" family="微软雅黑" size="13px" weight="400" font-style="" opacity="1" y="5.125" transform="rotate(0)"><tspan id="SvgjsTspan1396" dy="16.25" x="27.5"><tspan id="SvgjsTspan1397" style="">合约1</tspan></tspan></text></g></g><g id="SvgjsG1398" transform="translate(516.75,480)"><path id="SvgjsPath1399" d="M 0 4Q 0 0 4 0L 54 0Q 58 0 58 4L 58 27.5Q 58 31.5 54 31.5L 4 31.5Q 0 31.5 0 27.5Z" stroke="rgba(33,41,48,1)" stroke-width="1" fill-opacity="1" fill="#f2f2f2"></path><g id="SvgjsG1400"><text id="SvgjsText1401" font-family="微软雅黑" text-anchor="middle" font-size="13px" width="38px" fill="#323232" font-weight="400" align="middle" lineHeight="125%" anchor="middle" family="微软雅黑" size="13px" weight="400" font-style="" opacity="1" y="5.125" transform="rotate(0)"><tspan id="SvgjsTspan1402" dy="16.25" x="29"><tspan id="SvgjsTspan1403" style="">...</tspan></tspan></text></g></g><g id="SvgjsG1404"><path id="SvgjsPath1405" d="M675.75 401C 493.125 401 328.75 329 222.253957177139 399.1140412568742" stroke-dasharray="8,5" stroke="#323232" stroke-width="2" fill="none" marker-end="url(#SvgjsMarker1406)"></path></g><g id="SvgjsG1408" transform="translate(702.75,690)"><path id="SvgjsPath1409" d="M 0 0L 100 0L 100 40L 0 40Z" stroke="none" fill="none"></path><g id="SvgjsG1410"><text id="SvgjsText1411" font-family="微软雅黑" text-anchor="middle" font-size="13px" width="100px" fill="#323232" font-weight="400" align="middle" lineHeight="125%" anchor="middle" family="微软雅黑" size="13px" weight="400" font-style="" opacity="1" y="9.375" transform="rotate(0)"><tspan id="SvgjsTspan1412" dy="16.25" x="50"><tspan id="SvgjsTspan1413" style="">安全措施</tspan></tspan></text></g></g></svg>