<svg width="25" height="25" viewBox="0 0 25 25" fill="none" xmlns="http://www.w3.org/2000/svg">
<g clip-path="url(#clip0_2_252)">
<path d="M3.89014 21.8729H21.8901C22.1554 21.8729 22.4097 21.7676 22.5972 21.58C22.7848 21.3925 22.8901 21.1381 22.8901 20.8729V4.87292C22.8901 4.60771 22.7848 4.35335 22.5972 4.16582C22.4097 3.97828 22.1554 3.87292 21.8901 3.87292H3.89014C3.62492 3.87292 3.37057 3.97828 3.18303 4.16582C2.99549 4.35335 2.89014 4.60771 2.89014 4.87292V20.8729C2.89014 21.1381 2.99549 21.3925 3.18303 21.58C3.37057 21.7676 3.62492 21.8729 3.89014 21.8729ZM4.89014 19.8729V5.87292H20.8901V19.8729H4.89014ZM20.8901 12.8729L17.3541 9.33692L15.9401 10.7519L18.0621 12.8729L15.9401 14.9939L17.3541 16.4089L20.8901 12.8729ZM7.71814 12.8729L9.84014 10.7519L8.42614 9.33692L4.89014 12.8729L8.42614 16.4089L9.84014 14.9929L7.71814 12.8729ZM12.1341 7.87292H10.0061L13.6461 17.8729H15.7741L12.1341 7.87292Z" fill="black"/>
</g>
<defs>
<clipPath id="clip0_2_252">
<rect width="24" height="24" fill="white" transform="matrix(1 0 0 -1 0.890137 24.8729)"/>
</clipPath>
</defs>
</svg>
