<svg width="25" height="25" viewBox="0 0 25 25" fill="none" xmlns="http://www.w3.org/2000/svg">
<g clip-path="url(#clip0_27_8005)">
<path d="M11.79 2.22696L21.689 3.64196L23.103 13.542L13.911 22.734C13.7235 22.9214 13.4692 23.0267 13.204 23.0267C12.9388 23.0267 12.6845 22.9214 12.497 22.734L2.59699 12.834C2.40951 12.6464 2.3042 12.3921 2.3042 12.127C2.3042 11.8618 2.40951 11.6075 2.59699 11.42L11.79 2.22696ZM14.618 10.713C14.8037 10.8986 15.0243 11.0459 15.2669 11.1464C15.5096 11.2469 15.7697 11.2986 16.0323 11.2985C16.295 11.2985 16.5551 11.2467 16.7977 11.1461C17.0403 11.0456 17.2608 10.8982 17.4465 10.7125C17.6322 10.5267 17.7795 10.3062 17.8799 10.0635C17.9804 9.82084 18.0321 9.56076 18.032 9.29811C18.032 9.03546 17.9802 8.77539 17.8797 8.53275C17.7791 8.29011 17.6317 8.06965 17.446 7.88396C17.2602 7.69827 17.0397 7.55099 16.797 7.45052C16.5544 7.35005 16.2943 7.29836 16.0316 7.29841C15.5012 7.2985 14.9925 7.50931 14.6175 7.88446C14.2425 8.25961 14.0318 8.76837 14.0319 9.29881C14.032 9.82926 14.2428 10.3379 14.618 10.713Z" fill="black"/>
</g>
<defs>
<clipPath id="clip0_27_8005">
<rect width="24" height="24" fill="white" transform="translate(0.890137 0.126953)"/>
</clipPath>
</defs>
</svg>
