<svg width="25" height="24" viewBox="0 0 25 24" fill="none" xmlns="http://www.w3.org/2000/svg">
<g clip-path="url(#clip0_3_3163)">
<path d="M4.63114 22.592L23.0931 12.438C23.1715 12.3948 23.2369 12.3314 23.2824 12.2544C23.328 12.1773 23.352 12.0895 23.352 12C23.352 11.9105 23.328 11.8226 23.2824 11.7456C23.2369 11.6686 23.1715 11.6051 23.0931 11.562L4.63114 1.40799C4.55501 1.36611 4.46928 1.34479 4.38241 1.34613C4.29553 1.34748 4.21051 1.37143 4.13571 1.41564C4.06092 1.45985 3.99893 1.52279 3.95587 1.59826C3.91281 1.67372 3.89015 1.7591 3.89014 1.84599V22.154C3.89015 22.2409 3.91281 22.3263 3.95587 22.4017C3.99893 22.4772 4.06092 22.5401 4.13571 22.5843C4.21051 22.6285 4.29553 22.6525 4.38241 22.6538C4.46928 22.6552 4.55501 22.6339 4.63114 22.592ZM5.89014 11V4.38299L19.7401 12L5.89014 19.617V13H10.8901V11H5.89014Z" fill="black"/>
</g>
<defs>
<clipPath id="clip0_3_3163">
<rect width="24" height="24" fill="white" transform="matrix(1 0 0 -1 0.890137 24)"/>
</clipPath>
</defs>
</svg>
