<svg width="25" height="24" viewBox="0 0 25 24" fill="none" xmlns="http://www.w3.org/2000/svg">
<g clip-path="url(#clip0_2_324)">
<path d="M2.89014 10.84H5.89014L5.89014 22.84H2.89014C2.62492 22.84 2.37057 22.7346 2.18303 22.5471C1.99549 22.3595 1.89014 22.1052 1.89014 21.84L1.89014 11.84C1.89014 11.5747 1.99549 11.3204 2.18303 11.1328C2.37057 10.9453 2.62492 10.84 2.89014 10.84ZM8.18314 9.54696L14.5831 3.14696C14.6682 3.06165 14.7812 3.00992 14.9014 3.00129C15.0215 2.99265 15.1408 3.02769 15.2371 3.09996L16.0901 3.73996C16.327 3.9178 16.506 4.16181 16.6044 4.44121C16.7028 4.72061 16.7163 5.0229 16.6431 5.30996L15.4901 9.83996L21.8901 9.83996C22.4206 9.83996 22.9293 10.0507 23.3043 10.4257C23.6794 10.8008 23.8901 11.3095 23.8901 11.84V13.944C23.8904 14.2053 23.8394 14.4642 23.7401 14.706L20.6451 22.221C20.5696 22.4042 20.4414 22.5608 20.2767 22.671C20.112 22.7812 19.9183 22.84 19.7201 22.84L8.89014 22.84C8.62492 22.84 8.37057 22.7346 8.18303 22.5471C7.99549 22.3595 7.89014 22.1052 7.89014 21.84L7.89014 10.254C7.89019 9.98876 7.99559 9.73445 8.18314 9.54696Z" fill="currentColor"/>
</g>
<defs>
<clipPath id="clip0_2_324">
<rect width="24" height="24" fill="white" transform="matrix(1 0 0 -1 0.890137 24)"/>
</clipPath>
</defs>
</svg>
