<svg width="118" height="18" viewBox="0 0 118 18" fill="none" xmlns="http://www.w3.org/2000/svg">
<path d="M7.18488 14.3841C5.82169 14.3841 4.58982 14.0728 3.48926 13.4503C2.40121 12.8278 1.54453 11.9735 0.919214 10.8874C0.306405 9.78808 0 8.55629 0 7.19205C0 5.82781 0.306405 4.60265 0.919214 3.51656C1.54453 2.41722 2.40121 1.55629 3.48926 0.933775C4.58982 0.311258 5.82169 0 7.18488 0C8.54807 0 9.77369 0.311258 10.8617 0.933775C11.9498 1.55629 12.8065 2.41722 13.4318 3.51656C14.0571 4.60265 14.3698 5.82781 14.3698 7.19205C14.3698 8.55629 14.0571 9.78808 13.4318 10.8874C12.8065 11.9735 11.9498 12.8278 10.8617 13.4503C9.77369 14.0728 8.54807 14.3841 7.18488 14.3841ZM7.18488 11.6424C7.96027 11.6424 8.66062 11.457 9.28594 11.0861C9.91126 10.702 10.399 10.1722 10.7492 9.49669C11.1119 8.82119 11.2932 8.05298 11.2932 7.19205C11.2932 6.33113 11.1119 5.56291 10.7492 4.88742C10.399 4.21192 9.91126 3.68874 9.28594 3.31788C8.66062 2.93377 7.96027 2.74172 7.18488 2.74172C6.40949 2.74172 5.70913 2.93377 5.08382 3.31788C4.4585 3.68874 3.9645 4.21192 3.60182 4.88742C3.25164 5.56291 3.07655 6.33113 3.07655 7.19205C3.07655 8.05298 3.25164 8.82119 3.60182 9.49669C3.9645 10.1722 4.4585 10.702 5.08382 11.0861C5.70913 11.457 6.40949 11.6424 7.18488 11.6424Z" fill="#101828"/>
<path d="M22.0377 3.29801C22.9757 3.29801 23.8261 3.5298 24.589 3.99338C25.3644 4.44371 25.9709 5.08609 26.4086 5.92053C26.8464 6.74172 27.0652 7.70199 27.0652 8.80132C27.0652 9.90066 26.8464 10.8676 26.4086 11.702C25.9709 12.5232 25.3644 13.1656 24.589 13.6291C23.8261 14.0795 22.9757 14.3046 22.0377 14.3046C20.7495 14.3046 19.7365 13.8742 18.9987 13.0132V18H16.0722V3.45695H18.8673V4.68874C19.5927 3.76159 20.6495 3.29801 22.0377 3.29801ZM21.5312 11.7616C22.2816 11.7616 22.8944 11.4967 23.3696 10.9669C23.8574 10.4238 24.1012 9.70199 24.1012 8.80132C24.1012 7.90066 23.8574 7.18543 23.3696 6.65563C22.8944 6.11258 22.2816 5.84106 21.5312 5.84106C20.7808 5.84106 20.1617 6.11258 19.674 6.65563C19.1988 7.18543 18.9611 7.90066 18.9611 8.80132C18.9611 9.70199 19.1988 10.4238 19.674 10.9669C20.1617 11.4967 20.7808 11.7616 21.5312 11.7616Z" fill="#101828"/>
<path d="M38.5353 8.84106C38.5353 8.88079 38.5166 9.15894 38.479 9.6755H30.8439C30.9815 10.3377 31.3067 10.8609 31.8194 11.245C32.3322 11.6291 32.97 11.8212 33.7329 11.8212C34.2582 11.8212 34.7209 11.7417 35.1211 11.5828C35.5338 11.4106 35.9153 11.1457 36.2654 10.7881L37.8225 12.5762C36.872 13.7285 35.4838 14.3046 33.6579 14.3046C32.5198 14.3046 31.513 14.0728 30.6376 13.6093C29.7621 13.1324 29.0868 12.4768 28.6116 11.6424C28.1363 10.8079 27.8987 9.86093 27.8987 8.80132C27.8987 7.75497 28.1301 6.81457 28.5928 5.98013C29.068 5.13245 29.7121 4.47682 30.525 4.01324C31.3504 3.53642 32.2697 3.29801 33.2827 3.29801C34.2707 3.29801 35.1649 3.52318 35.9653 3.97351C36.7657 4.42384 37.391 5.07285 37.8412 5.92053C38.304 6.75497 38.5353 7.72848 38.5353 8.84106ZM33.3014 5.64238C32.6386 5.64238 32.0821 5.84106 31.6318 6.23841C31.1816 6.63576 30.9065 7.17881 30.8064 7.86755H35.7777C35.6776 7.19205 35.4025 6.65563 34.9523 6.25828C34.502 5.84768 33.9518 5.64238 33.3014 5.64238Z" fill="#101828"/>
<path d="M46.2428 3.29801C47.4935 3.29801 48.5002 3.69536 49.2631 4.49007C50.0385 5.28477 50.4262 6.46358 50.4262 8.02649V14.1457H47.4997V8.50331C47.4997 7.65563 47.3246 7.02649 46.9745 6.61589C46.6243 6.19205 46.1178 5.98013 45.4549 5.98013C44.7171 5.98013 44.1293 6.22517 43.6915 6.71523C43.2538 7.19205 43.035 7.90728 43.035 8.86093V14.1457H40.1085V3.45695H42.9036V4.70861C43.2913 4.25828 43.7728 3.91391 44.3481 3.6755C44.9234 3.42384 45.555 3.29801 46.2428 3.29801Z" fill="#101828"/>
<path d="M57.2247 14.3841C56.1867 14.3841 55.18 14.2384 54.2045 13.947C53.2415 13.6424 52.4661 13.2517 51.8783 12.7748L52.9101 10.351C53.4728 10.7881 54.1419 11.1391 54.9173 11.404C55.6927 11.6689 56.4681 11.8013 57.2435 11.8013C58.1064 11.8013 58.7443 11.6689 59.157 11.404C59.5697 11.1258 59.776 10.7616 59.776 10.3113C59.776 9.98013 59.651 9.70861 59.4008 9.49669C59.1632 9.27152 58.8506 9.09272 58.4629 8.96027C58.0877 8.82781 57.5749 8.68212 56.9246 8.52318C55.9241 8.27152 55.1049 8.01987 54.4671 7.76821C53.8293 7.51656 53.279 7.11258 52.8163 6.55629C52.366 6 52.1409 5.25828 52.1409 4.33113C52.1409 3.52318 52.3473 2.7947 52.76 2.1457C53.1727 1.48344 53.7918 0.960264 54.6172 0.576159C55.4551 0.192053 56.4744 0 57.675 0C58.5129 0 59.3321 0.10596 60.1325 0.31788C60.9329 0.529801 61.6332 0.834437 62.2335 1.23179L61.2956 3.6755C60.0824 2.94702 58.8693 2.58278 57.6562 2.58278C56.8058 2.58278 56.1742 2.72848 55.7615 3.01987C55.3613 3.31126 55.1612 3.69536 55.1612 4.17219C55.1612 4.64901 55.3926 5.00662 55.8553 5.24503C56.3305 5.4702 57.0497 5.69536 58.0126 5.92053C59.0132 6.17219 59.8323 6.42384 60.4701 6.6755C61.108 6.92715 61.652 7.3245 62.1022 7.86755C62.5649 8.4106 62.7963 9.1457 62.7963 10.0728C62.7963 10.8676 62.5837 11.596 62.1585 12.2583C61.7458 12.9073 61.1205 13.4238 60.2825 13.8079C59.4446 14.1921 58.4254 14.3841 57.2247 14.3841Z" fill="#101828"/>
<path d="M74.534 3.45695V18H71.6075V13.0132C70.8822 13.8742 69.8754 14.3046 68.5873 14.3046C67.6368 14.3046 66.7739 14.0795 65.9985 13.6291C65.2356 13.1788 64.6353 12.5364 64.1976 11.702C63.7598 10.8676 63.541 9.90066 63.541 8.80132C63.541 7.70199 63.7598 6.7351 64.1976 5.90066C64.6353 5.06622 65.2356 4.42384 65.9985 3.97351C66.7739 3.52318 67.6368 3.29801 68.5873 3.29801C69.963 3.29801 71.0135 3.76159 71.7389 4.68874V3.45695H74.534ZM69.0938 11.7616C69.8316 11.7616 70.4445 11.4967 70.9322 10.9669C71.4199 10.4238 71.6638 9.70199 71.6638 8.80132C71.6638 7.90066 71.4199 7.18543 70.9322 6.65563C70.4445 6.11258 69.8316 5.84106 69.0938 5.84106C68.3434 5.84106 67.7243 6.11258 67.2366 6.65563C66.7488 7.18543 66.505 7.90066 66.505 8.80132C66.505 9.70199 66.7488 10.4238 67.2366 10.9669C67.7243 11.4967 68.3434 11.7616 69.0938 11.7616Z" fill="#101828"/>
<path d="M87.0359 3.45695V14.1457H84.2595V12.8742C83.8718 13.3377 83.4091 13.6954 82.8713 13.947C82.3335 14.1854 81.752 14.3046 81.1267 14.3046C79.801 14.3046 78.7505 13.9007 77.9751 13.0927C77.1997 12.2848 76.812 11.0861 76.812 9.49669V3.45695H79.7385V9.03974C79.7385 10.7616 80.42 11.6225 81.7832 11.6225C82.4836 11.6225 83.0464 11.3841 83.4716 10.9073C83.8968 10.4172 84.1094 9.69536 84.1094 8.74172V3.45695H87.0359Z" fill="#101828"/>
<path d="M93.4427 3.29801C95.006 3.29801 96.2066 3.69536 97.0445 4.49007C97.8824 5.27152 98.3014 6.45695 98.3014 8.04636V14.1457H95.5625V12.8146C95.0122 13.8079 93.9867 14.3046 92.486 14.3046C91.7106 14.3046 91.0352 14.1656 90.4599 13.8874C89.8971 13.6093 89.4657 13.2252 89.1655 12.7351C88.8654 12.245 88.7153 11.6887 88.7153 11.0662C88.7153 10.0728 89.0655 9.29139 89.7658 8.72185C90.4787 8.15232 91.573 7.86755 93.0487 7.86755H95.3749C95.3749 7.19205 95.1811 6.6755 94.7934 6.31788C94.4057 5.94702 93.8241 5.76159 93.0487 5.76159C92.511 5.76159 91.9794 5.8543 91.4542 6.03973C90.9414 6.21192 90.5037 6.45033 90.141 6.75497L89.0905 4.5894C89.6408 4.17881 90.2974 3.86093 91.0602 3.63576C91.8356 3.4106 92.6298 3.29801 93.4427 3.29801ZM93.2176 12.2185C93.7178 12.2185 94.1618 12.0993 94.5495 11.8609C94.9372 11.6093 95.2123 11.245 95.3749 10.7682V9.6755H93.3677C92.167 9.6755 91.5667 10.0927 91.5667 10.9272C91.5667 11.3245 91.7106 11.6424 91.9982 11.8808C92.2984 12.106 92.7048 12.2185 93.2176 12.2185Z" fill="#101828"/>
<path d="M103.37 4.86755C103.72 4.35099 104.189 3.96026 104.777 3.69536C105.377 3.43046 106.065 3.29801 106.84 3.29801V6.15894C106.515 6.13245 106.296 6.11921 106.184 6.11921C105.346 6.11921 104.689 6.37086 104.214 6.87417C103.739 7.36424 103.501 8.10596 103.501 9.09934V14.1457H100.575V3.45695H103.37V4.86755Z" fill="#101828"/>
<path d="M118 8.84106C118 8.88079 117.981 9.15894 117.944 9.6755H110.309C110.446 10.3377 110.771 10.8609 111.284 11.245C111.797 11.6291 112.435 11.8212 113.198 11.8212C113.723 11.8212 114.186 11.7417 114.586 11.5828C114.998 11.4106 115.38 11.1457 115.73 10.7881L117.287 12.5762C116.337 13.7285 114.948 14.3046 113.123 14.3046C111.984 14.3046 110.978 14.0728 110.102 13.6093C109.227 13.1324 108.551 12.4768 108.076 11.6424C107.601 10.8079 107.363 9.86093 107.363 8.80132C107.363 7.75497 107.595 6.81457 108.057 5.98013C108.533 5.13245 109.177 4.47682 109.99 4.01324C110.815 3.53642 111.734 3.29801 112.747 3.29801C113.735 3.29801 114.63 3.52318 115.43 3.97351C116.23 4.42384 116.856 5.07285 117.306 5.92053C117.769 6.75497 118 7.72848 118 8.84106ZM112.766 5.64238C112.103 5.64238 111.547 5.84106 111.097 6.23841C110.646 6.63576 110.371 7.17881 110.271 7.86755H115.242C115.142 7.19205 114.867 6.65563 114.417 6.25828C113.967 5.84768 113.416 5.64238 112.766 5.64238Z" fill="#101828"/>
</svg>
