<svg xmlns="http://www.w3.org/2000/svg" width="48" height="48" viewBox="0 0 48 48" fill="none">
  <rect width="48" height="48" fill="#4479C5"/>
  <path d="M23.9993 10.6433C22.2484 10.6433 20.5146 10.9882 18.8969 11.6583C17.2792 12.3283 15.8094 13.3104 14.5713 14.5486C12.0708 17.049 10.666 20.4404 10.666 23.9766C10.666 29.87 14.4927 34.87 19.786 36.6433C20.4527 36.75 20.666 36.3366 20.666 35.9766V33.7233C16.9727 34.5233 16.186 31.9366 16.186 31.9366C15.5727 30.39 14.706 29.9766 14.706 29.9766C13.4927 29.15 14.7993 29.1766 14.7993 29.1766C16.1327 29.27 16.8393 30.55 16.8393 30.55C17.9993 32.5766 19.9593 31.9766 20.7193 31.6566C20.8393 30.79 21.186 30.2033 21.5593 29.87C18.5993 29.5366 15.4927 28.39 15.4927 23.31C15.4927 21.83 15.9993 20.6433 16.866 19.6966C16.7327 19.3633 16.266 17.9766 16.9993 16.1766C16.9993 16.1766 18.1193 15.8166 20.666 17.5366C21.7193 17.2433 22.866 17.0966 23.9993 17.0966C25.1327 17.0966 26.2793 17.2433 27.3327 17.5366C29.8793 15.8166 30.9993 16.1766 30.9993 16.1766C31.7327 17.9766 31.266 19.3633 31.1327 19.6966C31.9993 20.6433 32.506 21.83 32.506 23.31C32.506 28.4033 29.386 29.5233 26.4127 29.8566C26.8927 30.27 27.3327 31.0833 27.3327 32.3233V35.9766C27.3327 36.3366 27.546 36.7633 28.226 36.6433C33.5194 34.8566 37.3327 29.87 37.3327 23.9766C37.3327 22.2257 36.9878 20.4919 36.3177 18.8742C35.6477 17.2565 34.6656 15.7867 33.4274 14.5486C32.1893 13.3104 30.7195 12.3283 29.1018 11.6583C27.4841 10.9882 25.7503 10.6433 23.9993 10.6433Z" fill="white"/>
</svg>
