<svg width="129" height="128" viewBox="0 0 129 128" fill="none" xmlns="http://www.w3.org/2000/svg">
<g clip-path="url(#clip0_27_4588)">
<path d="M64.8901 128C100.236 128 128.89 99.3462 128.89 64C128.89 28.6538 100.236 0 64.8901 0C29.5439 0 0.890137 28.6538 0.890137 64C0.890137 99.3462 29.5439 128 64.8901 128Z" fill="black"/>
<path fill-rule="evenodd" clip-rule="evenodd" d="M84.0872 60.246C82.4862 58.645 82.4862 56.0492 84.0872 54.4481C85.6883 52.8471 88.2841 52.8471 89.8851 54.4481C91.4862 56.0492 91.4862 58.645 89.8851 60.246C88.2841 61.8471 85.6883 61.8471 84.0872 60.246ZM70.3173 74.016C69.1165 72.8152 69.1165 70.8684 70.3173 69.6676C71.5181 68.4668 73.4649 68.4668 74.6657 69.6676C75.8665 70.8684 75.8665 72.8152 74.6657 74.016C73.4649 75.2168 71.5181 75.2168 70.3173 74.016ZM92.0593 66.7686C90.8586 65.5679 90.8586 63.621 92.0593 62.4202C93.2601 61.2194 95.207 61.2194 96.4078 62.4202C97.6085 63.621 97.6085 65.5679 96.4078 66.7686C95.207 67.9694 93.2601 67.9694 92.0593 66.7686ZM84.812 74.016C83.6112 72.8152 83.6112 70.8684 84.812 69.6676C86.0128 68.4668 87.9596 68.4668 89.1604 69.6676C90.3612 70.8684 90.3612 72.8152 89.1604 74.016C87.9596 75.2168 86.0128 75.2168 84.812 74.016ZM100.031 73.2913C99.2309 72.4907 99.2309 71.1928 100.031 70.3923C100.832 69.5918 102.13 69.5918 102.93 70.3923C103.731 71.1928 103.731 72.4907 102.93 73.2913C102.13 74.0918 100.832 74.0918 100.031 73.2913ZM92.7841 80.5386C91.9836 79.7381 91.9836 78.4402 92.7841 77.6397C93.5846 76.8391 94.8825 76.8391 95.683 77.6397C96.4835 78.4402 96.4835 79.7381 95.683 80.5386C94.8825 81.3391 93.5846 81.3391 92.7841 80.5386ZM76.8399 67.4934C75.2389 65.8923 75.2389 63.2965 76.8399 61.6955C78.4409 60.0944 81.0367 60.0944 82.6378 61.6955C84.2388 63.2965 84.2388 65.8923 82.6378 67.4934C81.0367 69.0944 78.4409 69.0944 76.8399 67.4934ZM76.8399 52.9987C75.2389 51.3976 75.2389 48.8018 76.8399 47.2008C78.4409 45.5997 81.0367 45.5997 82.6378 47.2008C84.2388 48.8018 84.2388 51.3976 82.6378 52.9987C81.0367 54.5997 78.4409 54.5997 76.8399 52.9987ZM69.5925 60.246C67.9915 58.645 67.9915 56.0492 69.5925 54.4481C71.1936 52.8471 73.7894 52.8471 75.3904 54.4481C76.9915 56.0492 76.9915 58.645 75.3904 60.246C73.7894 61.8471 71.1936 61.8471 69.5925 60.246ZM55.0305 60.246C53.4294 58.645 53.4294 56.0492 55.0305 54.4481C56.6315 52.8471 59.2273 52.8471 60.8284 54.4481C62.4294 56.0492 62.4294 58.645 60.8284 60.246C59.2273 61.8471 56.6315 61.8471 55.0305 60.246ZM41.2605 74.016C40.0597 72.8152 40.0597 70.8684 41.2605 69.6676C42.4613 68.4668 44.4081 68.4668 45.6089 69.6676C46.8097 70.8684 46.8097 72.8152 45.6089 74.016C44.4081 75.2168 42.4613 75.2168 41.2605 74.016ZM63.0026 66.7686C61.8018 65.5679 61.8018 63.621 63.0026 62.4202C64.2033 61.2194 66.1502 61.2194 67.351 62.4202C68.5518 63.621 68.5518 65.5679 67.351 66.7686C66.1502 67.9694 64.2033 67.9694 63.0026 66.7686ZM55.7552 74.016C54.5544 72.8152 54.5544 70.8684 55.7552 69.6676C56.956 68.4668 58.9028 68.4668 60.1036 69.6676C61.3044 70.8684 61.3044 72.8152 60.1036 74.016C58.9028 75.2168 56.956 75.2168 55.7552 74.016ZM27.4905 73.2913C26.69 72.4907 26.69 71.1928 27.4905 70.3923C28.291 69.5918 29.5889 69.5918 30.3895 70.3923C31.19 71.1928 31.19 72.4907 30.3895 73.2913C29.5889 74.0918 28.291 74.0918 27.4905 73.2913ZM34.7379 80.5386C33.9374 79.7381 33.9374 78.4402 34.7379 77.6397C35.5384 76.8391 36.8363 76.8391 37.6368 77.6397C38.4373 78.4402 38.4373 79.7381 37.6368 80.5386C36.8363 81.3391 35.5384 81.3391 34.7379 80.5386ZM63.7273 80.5386C62.9268 79.7381 62.9268 78.4402 63.7273 77.6397C64.5278 76.8391 65.8257 76.8391 66.6262 77.6397C67.4268 78.4402 67.4268 79.7381 66.6262 80.5386C65.8257 81.3391 64.5278 81.3391 63.7273 80.5386ZM34.0131 66.7686C32.8124 65.5679 32.8124 63.621 34.0131 62.4202C35.2139 61.2194 37.1608 61.2194 38.3616 62.4202C39.5623 63.621 39.5623 65.5679 38.3616 66.7686C37.1608 67.9694 35.2139 67.9694 34.0131 66.7686ZM47.7831 67.4934C46.1821 65.8923 46.1821 63.2965 47.7831 61.6955C49.3842 60.0944 51.98 60.0944 53.581 61.6955C55.182 63.2965 55.182 65.8923 53.581 67.4934C51.98 69.0944 49.3842 69.0944 47.7831 67.4934ZM47.7831 52.9987C46.1821 51.3976 46.1821 48.8018 47.7831 47.2008C49.3842 45.5997 51.98 45.5997 53.581 47.2008C55.182 48.8018 55.182 51.3976 53.581 52.9987C51.98 54.5997 49.3842 54.5997 47.7831 52.9987ZM40.5358 60.246C38.9347 58.645 38.9347 56.0492 40.5358 54.4481C42.1368 52.8471 44.7326 52.8471 46.3336 54.4481C47.9347 56.0492 47.9347 58.645 46.3336 60.246C44.7326 61.8471 42.1368 61.8471 40.5358 60.246Z" fill="white"/>
</g>
<defs>
<clipPath id="clip0_27_4588">
<rect width="128" height="128" fill="white" transform="translate(0.890137)"/>
</clipPath>
</defs>
</svg>
