<svg width="129" height="128" viewBox="0 0 129 128" fill="none" xmlns="http://www.w3.org/2000/svg">
<path fill-rule="evenodd" clip-rule="evenodd" d="M91.7371 57.761C89.4601 55.484 89.4601 51.7922 91.7371 49.5151C94.0142 47.2381 97.706 47.2381 99.983 49.5151C102.26 51.7922 102.26 55.484 99.983 57.761C97.706 60.038 94.0142 60.038 91.7371 57.761ZM72.1532 77.345C70.4454 75.6372 70.4454 72.8683 72.1532 71.1606C73.861 69.4528 76.6298 69.4528 78.3376 71.1606C80.0454 72.8683 80.0454 75.6372 78.3376 77.345C76.6298 79.0527 73.861 79.0527 72.1532 77.345ZM103.075 67.0376C101.367 65.3298 101.367 62.561 103.075 60.8532C104.783 59.1454 107.552 59.1454 109.26 60.8532C110.967 62.561 110.967 65.3298 109.26 67.0376C107.552 68.7454 104.783 68.7454 103.075 67.0376ZM92.7679 77.345C91.0601 75.6372 91.0601 72.8683 92.7679 71.1606C94.4757 69.4528 97.2445 69.4528 98.9523 71.1606C100.66 72.8683 100.66 75.6372 98.9523 77.345C97.2445 79.0527 94.4757 79.0527 92.7679 77.345ZM114.413 76.3142C113.275 75.1757 113.275 73.3298 114.413 72.1913C115.552 71.0528 117.398 71.0528 118.536 72.1913C119.675 73.3298 119.675 75.1757 118.536 76.3142C117.398 77.4527 115.552 77.4527 114.413 76.3142ZM104.106 86.6216C102.967 85.4831 102.967 83.6372 104.106 82.4986C105.244 81.3601 107.09 81.3601 108.229 82.4986C109.367 83.6372 109.367 85.4831 108.229 86.6216C107.09 87.7601 105.244 87.7601 104.106 86.6216ZM81.4298 68.0683C79.1528 65.7913 79.1528 62.0995 81.4298 59.8225C83.7068 57.5454 87.3986 57.5454 89.6757 59.8225C91.9527 62.0995 91.9527 65.7913 89.6757 68.0683C87.3986 70.3454 83.7068 70.3454 81.4298 68.0683ZM81.4298 47.4537C79.1528 45.1766 79.1528 41.4848 81.4298 39.2078C83.7068 36.9307 87.3986 36.9307 89.6757 39.2078C91.9527 41.4848 91.9527 45.1766 89.6757 47.4537C87.3986 49.7307 83.7068 49.7307 81.4298 47.4537ZM71.1225 57.761C68.8454 55.484 68.8454 51.7922 71.1225 49.5151C73.3995 47.2381 77.0913 47.2381 79.3683 49.5151C81.6454 51.7922 81.6454 55.484 79.3683 57.761C77.0913 60.038 73.3995 60.038 71.1225 57.761ZM50.4119 57.761C48.1349 55.484 48.1349 51.7922 50.4119 49.5151C52.689 47.2381 56.3808 47.2381 58.6578 49.5151C60.9349 51.7922 60.9349 55.484 58.6578 57.761C56.3808 60.038 52.689 60.038 50.4119 57.761ZM30.828 77.345C29.1202 75.6372 29.1202 72.8683 30.828 71.1606C32.5358 69.4528 35.3046 69.4528 37.0124 71.1606C38.7202 72.8683 38.7202 75.6372 37.0124 77.345C35.3046 79.0527 32.5358 79.0527 30.828 77.345ZM61.75 67.0376C60.0422 65.3298 60.0422 62.561 61.75 60.8532C63.4578 59.1454 66.2267 59.1454 67.9344 60.8532C69.6422 62.561 69.6422 65.3298 67.9344 67.0376C66.2267 68.7454 63.4578 68.7454 61.75 67.0376ZM51.4427 77.345C49.7349 75.6372 49.7349 72.8683 51.4427 71.1606C53.1505 69.4528 55.9193 69.4528 57.6271 71.1606C59.3349 72.8683 59.3349 75.6372 57.6271 77.345C55.9193 79.0527 53.1505 79.0527 51.4427 77.345ZM11.244 76.3142C10.1055 75.1757 10.1055 73.3298 11.244 72.1913C12.3825 71.0528 14.2284 71.0528 15.367 72.1913C16.5055 73.3298 16.5055 75.1757 15.367 76.3142C14.2284 77.4527 12.3825 77.4527 11.244 76.3142ZM21.5514 86.6216C20.4129 85.4831 20.4129 83.6372 21.5514 82.4986C22.6899 81.3601 24.5358 81.3601 25.6743 82.4986C26.8128 83.6372 26.8128 85.4831 25.6743 86.6216C24.5358 87.7601 22.6899 87.7601 21.5514 86.6216ZM62.7808 86.6216C61.6422 85.4831 61.6422 83.6372 62.7808 82.4986C63.9193 81.3601 65.7652 81.3601 66.9037 82.4986C68.0422 83.6372 68.0422 85.4831 66.9037 86.6216C65.7652 87.7601 63.9193 87.7601 62.7808 86.6216ZM20.5206 67.0376C18.8129 65.3298 18.8129 62.561 20.5206 60.8532C22.2284 59.1454 24.9973 59.1454 26.705 60.8532C28.4128 62.561 28.4128 65.3298 26.705 67.0376C24.9973 68.7454 22.2284 68.7454 20.5206 67.0376ZM40.1046 68.0683C37.8276 65.7913 37.8276 62.0995 40.1046 59.8225C42.3816 57.5454 46.0734 57.5454 48.3505 59.8225C50.6275 62.0995 50.6275 65.7913 48.3505 68.0683C46.0734 70.3454 42.3816 70.3454 40.1046 68.0683ZM40.1046 47.4537C37.8276 45.1766 37.8276 41.4848 40.1046 39.2078C42.3816 36.9307 46.0734 36.9307 48.3505 39.2078C50.6275 41.4848 50.6275 45.1766 48.3505 47.4537C46.0734 49.7307 42.3816 49.7307 40.1046 47.4537ZM29.7973 57.761C27.5202 55.484 27.5202 51.7922 29.7973 49.5151C32.0743 47.2381 35.7661 47.2381 38.0431 49.5151C40.3202 51.7922 40.3202 55.484 38.0431 57.761C35.7661 60.038 32.0743 60.038 29.7973 57.761Z" fill="white"/>
</svg>
