<svg width="129" height="128" viewBox="0 0 129 128" fill="none" xmlns="http://www.w3.org/2000/svg">
<g clip-path="url(#clip0_27_4600)">
<path d="M122.515 5L72.5703 42.0949L81.8064 20.2094L122.515 5Z" fill="#E2761B" stroke="#E2761B" stroke-linecap="round" stroke-linejoin="round"/>
<path d="M7.21484 5L56.7584 42.4463L47.9741 20.2094L7.21484 5Z" fill="#E4761B" stroke="#E4761B" stroke-linecap="round" stroke-linejoin="round"/>
<path d="M104.545 90.9859L91.2432 111.366L119.704 119.196L127.886 91.4377L104.545 90.9859Z" fill="#E4761B" stroke="#E4761B" stroke-linecap="round" stroke-linejoin="round"/>
<path d="M1.94434 91.4377L10.0761 119.196L38.5373 111.366L25.2353 90.9859L1.94434 91.4377Z" fill="#E4761B" stroke="#E4761B" stroke-linecap="round" stroke-linejoin="round"/>
<path d="M36.931 56.5514L29 68.5482L57.2604 69.8031L56.2565 39.4345L36.931 56.5514Z" fill="#E4761B" stroke="#E4761B" stroke-linecap="round" stroke-linejoin="round"/>
<path d="M92.7993 56.5514L73.2229 39.0831L72.5703 69.8031L100.781 68.5482L92.7993 56.5514Z" fill="#E4761B" stroke="#E4761B" stroke-linecap="round" stroke-linejoin="round"/>
<path d="M38.5371 111.365L55.5034 103.083L40.8461 91.6384L38.5371 111.365Z" fill="#E4761B" stroke="#E4761B" stroke-linecap="round" stroke-linejoin="round"/>
<path d="M74.2266 103.083L91.243 111.365L88.8838 91.6384L74.2266 103.083Z" fill="#E4761B" stroke="#E4761B" stroke-linecap="round" stroke-linejoin="round"/>
<path d="M91.243 111.365L74.2266 103.083L75.5819 114.176L75.4313 118.845L91.243 111.365Z" fill="#D7C1B3" stroke="#D7C1B3" stroke-linecap="round" stroke-linejoin="round"/>
<path d="M38.5371 111.365L54.3489 118.845L54.2485 114.176L55.5034 103.083L38.5371 111.365Z" fill="#D7C1B3" stroke="#D7C1B3" stroke-linecap="round" stroke-linejoin="round"/>
<path d="M54.6001 84.3098L40.4448 80.1435L50.4338 75.5757L54.6001 84.3098Z" fill="#233447" stroke="#233447" stroke-linecap="round" stroke-linejoin="round"/>
<path d="M75.1304 84.3098L79.2966 75.5757L89.3359 80.1435L75.1304 84.3098Z" fill="#233447" stroke="#233447" stroke-linecap="round" stroke-linejoin="round"/>
<path d="M38.5373 111.366L40.9467 90.9859L25.2354 91.4377L38.5373 111.366Z" fill="#CD6116" stroke="#CD6116" stroke-linecap="round" stroke-linejoin="round"/>
<path d="M88.834 90.9859L91.2434 111.366L104.545 91.4377L88.834 90.9859Z" fill="#CD6116" stroke="#CD6116" stroke-linecap="round" stroke-linejoin="round"/>
<path d="M100.781 68.5482L72.5703 69.8032L75.1805 84.3098L79.3468 75.5757L89.386 80.1435L100.781 68.5482Z" fill="#CD6116" stroke="#CD6116" stroke-linecap="round" stroke-linejoin="round"/>
<path d="M40.4447 80.1435L50.4839 75.5757L54.6 84.3098L57.2604 69.8032L29 68.5482L40.4447 80.1435Z" fill="#CD6116" stroke="#CD6116" stroke-linecap="round" stroke-linejoin="round"/>
<path d="M29 68.5482L40.8463 91.6384L40.4447 80.1435L29 68.5482Z" fill="#E4751F" stroke="#E4751F" stroke-linecap="round" stroke-linejoin="round"/>
<path d="M89.3857 80.1435L88.8838 91.6384L100.78 68.5482L89.3857 80.1435Z" fill="#E4751F" stroke="#E4751F" stroke-linecap="round" stroke-linejoin="round"/>
<path d="M57.2605 69.8032L54.6001 84.3098L57.913 101.427L58.666 78.8886L57.2605 69.8032Z" fill="#E4751F" stroke="#E4751F" stroke-linecap="round" stroke-linejoin="round"/>
<path d="M72.5701 69.8032L71.2148 78.8385L71.8172 101.427L75.1803 84.3098L72.5701 69.8032Z" fill="#E4751F" stroke="#E4751F" stroke-linecap="round" stroke-linejoin="round"/>
<path d="M75.1805 84.3098L71.8174 101.427L74.2268 103.083L88.8841 91.6384L89.386 80.1435L75.1805 84.3098Z" fill="#F6851B" stroke="#F6851B" stroke-linecap="round" stroke-linejoin="round"/>
<path d="M40.4448 80.1435L40.8464 91.6384L55.5037 103.083L57.9131 101.427L54.6001 84.3098L40.4448 80.1435Z" fill="#F6851B" stroke="#F6851B" stroke-linecap="round" stroke-linejoin="round"/>
<path d="M75.4312 118.845L75.5818 114.176L74.3269 113.072H55.403L54.2485 114.176L54.3489 118.845L38.5371 111.365L44.0587 115.883L55.2524 123.664H74.4775L85.7214 115.883L91.243 111.365L75.4312 118.845Z" fill="#C0AD9E" stroke="#C0AD9E" stroke-linecap="round" stroke-linejoin="round"/>
<path d="M74.2266 103.083L71.8172 101.427H57.9128L55.5034 103.083L54.2485 114.176L55.403 113.072H74.327L75.5819 114.176L74.2266 103.083Z" fill="#161616" stroke="#161616" stroke-linecap="round" stroke-linejoin="round"/>
<path d="M124.623 44.5043L128.89 24.0243L122.515 5L74.2266 40.84L92.7991 56.5514L119.052 64.2314L124.874 57.4549L122.365 55.6478L126.38 51.9835L123.268 49.5741L127.284 46.5122L124.623 44.5043Z" fill="#763D16" stroke="#763D16" stroke-linecap="round" stroke-linejoin="round"/>
<path d="M0.890137 24.0243L5.1568 44.5043L2.44622 46.5122L6.4619 49.5741L3.39994 51.9835L7.41563 55.6478L4.90582 57.4549L10.6784 64.2314L36.9309 56.5514L55.5035 40.84L7.21484 5L0.890137 24.0243Z" fill="#763D16" stroke="#763D16" stroke-linecap="round" stroke-linejoin="round"/>
<path d="M119.052 64.2314L92.7991 56.5514L100.78 68.5482L88.8838 91.6384L104.545 91.4376H127.886L119.052 64.2314Z" fill="#F6851B" stroke="#F6851B" stroke-linecap="round" stroke-linejoin="round"/>
<path d="M36.931 56.5514L10.6785 64.2314L1.94434 91.4376H25.2353L40.8463 91.6384L29 68.5482L36.931 56.5514Z" fill="#F6851B" stroke="#F6851B" stroke-linecap="round" stroke-linejoin="round"/>
<path d="M72.5702 69.8031L74.2267 40.84L81.8565 20.2094H47.9741L55.5035 40.84L57.2604 69.8031L57.8628 78.9388L57.9129 101.427H71.8173L71.9177 78.9388L72.5702 69.8031Z" fill="#F6851B" stroke="#F6851B" stroke-linecap="round" stroke-linejoin="round"/>
</g>
<defs>
<clipPath id="clip0_27_4600">
<rect width="128" height="128" fill="white" transform="translate(0.890137)"/>
</clipPath>
</defs>
</svg>
