<svg width="129" height="128" viewBox="0 0 129 128" fill="none" xmlns="http://www.w3.org/2000/svg">
<g clip-path="url(#clip0_27_4598)">
<rect x="0.890137" width="128" height="128" fill="white"/>
<path d="M100.906 27L69.6899 50.1843L75.4625 36.5059L100.906 27Z" fill="#E2761B" stroke="#E2761B" stroke-linecap="round" stroke-linejoin="round"/>
<path d="M28.8433 27L59.808 50.4039L54.3178 36.5059L28.8433 27Z" fill="#E4761B" stroke="#E4761B" stroke-linecap="round" stroke-linejoin="round"/>
<path d="M89.6746 80.7412L81.3608 93.4784L99.1491 98.3726L104.263 81.0235L89.6746 80.7412Z" fill="#E4761B" stroke="#E4761B" stroke-linecap="round" stroke-linejoin="round"/>
<path d="M25.5488 81.0235L30.6312 98.3726L48.4194 93.4784L40.1057 80.7412L25.5488 81.0235Z" fill="#E4761B" stroke="#E4761B" stroke-linecap="round" stroke-linejoin="round"/>
<path d="M47.4154 59.2196L42.4585 66.7177L60.1212 67.502L59.4938 48.5216L47.4154 59.2196Z" fill="#E4761B" stroke="#E4761B" stroke-linecap="round" stroke-linejoin="round"/>
<path d="M82.3331 59.2196L70.0978 48.302L69.6899 67.502L87.3213 66.7177L82.3331 59.2196Z" fill="#E4761B" stroke="#E4761B" stroke-linecap="round" stroke-linejoin="round"/>
<path d="M48.4194 93.4784L59.0234 88.302L49.8626 81.149L48.4194 93.4784Z" fill="#E4761B" stroke="#E4761B" stroke-linecap="round" stroke-linejoin="round"/>
<path d="M70.7256 88.302L81.3609 93.4784L79.8864 81.149L70.7256 88.302Z" fill="#E4761B" stroke="#E4761B" stroke-linecap="round" stroke-linejoin="round"/>
<path d="M81.3609 93.4784L70.7256 88.302L71.5726 95.2353L71.4785 98.153L81.3609 93.4784Z" fill="#D7C1B3" stroke="#D7C1B3" stroke-linecap="round" stroke-linejoin="round"/>
<path d="M48.4194 93.4784L58.3018 98.153L58.239 95.2353L59.0234 88.302L48.4194 93.4784Z" fill="#D7C1B3" stroke="#D7C1B3" stroke-linecap="round" stroke-linejoin="round"/>
<path d="M58.4589 76.5686L49.6118 73.9647L55.855 71.1098L58.4589 76.5686Z" fill="#233447" stroke="#233447" stroke-linecap="round" stroke-linejoin="round"/>
<path d="M71.29 76.5686L73.894 71.1098L80.1685 73.9647L71.29 76.5686Z" fill="#233447" stroke="#233447" stroke-linecap="round" stroke-linejoin="round"/>
<path d="M48.4197 93.4784L49.9256 80.7412L40.106 81.0235L48.4197 93.4784Z" fill="#CD6116" stroke="#CD6116" stroke-linecap="round" stroke-linejoin="round"/>
<path d="M79.855 80.7412L81.3609 93.4784L89.6746 81.0235L79.855 80.7412Z" fill="#CD6116" stroke="#CD6116" stroke-linecap="round" stroke-linejoin="round"/>
<path d="M87.3218 66.7177L69.6904 67.502L71.3218 76.5686L73.9257 71.1098L80.2002 73.9647L87.3218 66.7177Z" fill="#CD6116" stroke="#CD6116" stroke-linecap="round" stroke-linejoin="round"/>
<path d="M49.6119 73.9647L55.8864 71.1098L58.459 76.5686L60.1217 67.502L42.459 66.7177L49.6119 73.9647Z" fill="#CD6116" stroke="#CD6116" stroke-linecap="round" stroke-linejoin="round"/>
<path d="M42.459 66.7177L49.8629 81.149L49.6119 73.9647L42.459 66.7177Z" fill="#E4751F" stroke="#E4751F" stroke-linecap="round" stroke-linejoin="round"/>
<path d="M80.2 73.9647L79.8862 81.149L87.3215 66.7177L80.2 73.9647Z" fill="#E4751F" stroke="#E4751F" stroke-linecap="round" stroke-linejoin="round"/>
<path d="M60.1217 67.502L58.459 76.5686L60.5296 87.2667L61.0002 73.1804L60.1217 67.502Z" fill="#E4751F" stroke="#E4751F" stroke-linecap="round" stroke-linejoin="round"/>
<path d="M69.6903 67.502L68.8433 73.149L69.2197 87.2667L71.3217 76.5686L69.6903 67.502Z" fill="#E4751F" stroke="#E4751F" stroke-linecap="round" stroke-linejoin="round"/>
<path d="M71.3217 76.5686L69.2197 87.2667L70.7256 88.302L79.8864 81.149L80.2001 73.9647L71.3217 76.5686Z" fill="#F6851B" stroke="#F6851B" stroke-linecap="round" stroke-linejoin="round"/>
<path d="M49.6118 73.9647L49.8628 81.149L59.0236 88.302L60.5295 87.2667L58.4589 76.5686L49.6118 73.9647Z" fill="#F6851B" stroke="#F6851B" stroke-linecap="round" stroke-linejoin="round"/>
<path d="M71.4783 98.1529L71.5724 95.2353L70.7881 94.5451H58.9606L58.239 95.2353L58.3018 98.1529L48.4194 93.4784L51.8704 96.302L58.8665 101.165H70.8822L77.9096 96.302L81.3606 93.4784L71.4783 98.1529Z" fill="#C0AD9E" stroke="#C0AD9E" stroke-linecap="round" stroke-linejoin="round"/>
<path d="M70.7255 88.3019L69.2196 87.2667H60.5294L59.0236 88.3019L58.2393 95.2353L58.9608 94.5451H70.7883L71.5726 95.2353L70.7255 88.3019Z" fill="#161616" stroke="#161616" stroke-linecap="round" stroke-linejoin="round"/>
<path d="M102.224 51.6902L104.89 38.8902L100.906 27L70.7256 49.4L82.3334 59.2196L98.7413 64.0196L102.38 59.7843L100.812 58.6549L103.322 56.3647L101.377 54.8588L103.886 52.9451L102.224 51.6902Z" fill="#763D16" stroke="#763D16" stroke-linecap="round" stroke-linejoin="round"/>
<path d="M24.8901 38.8902L27.5568 51.6902L25.8627 52.9451L28.3725 54.8588L26.4588 56.3647L28.9686 58.6549L27.3999 59.7843L31.0078 64.0196L47.4156 59.2196L59.0235 49.4L28.8431 27L24.8901 38.8902Z" fill="#763D16" stroke="#763D16" stroke-linecap="round" stroke-linejoin="round"/>
<path d="M98.7411 64.0196L82.3333 59.2196L87.3215 66.7177L79.8862 81.149L89.6745 81.0235H104.263L98.7411 64.0196Z" fill="#F6851B" stroke="#F6851B" stroke-linecap="round" stroke-linejoin="round"/>
<path d="M47.4155 59.2196L31.0077 64.0196L25.5488 81.0235H40.1057L49.8626 81.149L42.4586 66.7177L47.4155 59.2196Z" fill="#F6851B" stroke="#F6851B" stroke-linecap="round" stroke-linejoin="round"/>
<path d="M69.6899 67.502L70.7252 49.4L75.4939 36.5059H54.3174L59.0233 49.4L60.1213 67.502L60.4978 73.2118L60.5291 87.2667H69.2193L69.2821 73.2118L69.6899 67.502Z" fill="#F6851B" stroke="#F6851B" stroke-linecap="round" stroke-linejoin="round"/>
</g>
<defs>
<clipPath id="clip0_27_4598">
<rect x="0.890137" width="128" height="128" rx="24" fill="white"/>
</clipPath>
</defs>
</svg>
