<svg width="117" height="133" viewBox="0 0 117 133" fill="none" xmlns="http://www.w3.org/2000/svg">
<g clip-path="url(#clip0_27_4760)">
<path fill-rule="evenodd" clip-rule="evenodd" d="M116.89 77.0198V86.4124C116.89 112.712 78.7224 127.74 67.1224 131.497L63.0063 133V116.845L65.2514 116.093C83.5869 109.331 101.922 97.6836 101.922 86.4124V77.0198H116.89ZM58.8901 0L74.6063 4.88418V21.4153L58.8901 16.5311L57.7676 16.9068V54.1017H74.2321V69.5056H57.7676V132.624L53.2772 131.121C51.4063 130.37 48.0385 129.243 43.9224 127.364L42.0514 126.613V4.88418L58.8901 0ZM37.5611 6.76271V23.2938L16.2321 29.6808V54.1017H37.5611V125.11L32.6966 122.856C18.103 115.342 0.890137 102.943 0.890137 85.2853V77.0198H16.2321V85.2853C16.2321 89.0424 18.103 92.7994 21.845 96.5565V69.5056H0.890137V17.6582L37.5611 6.76271ZM79.0966 6.38701L116.516 18.0339V69.8814H94.4385V92.4237C94.4385 92.4237 89.574 98.8107 79.0966 104.071C79.0966 101.065 79.0966 55.6045 79.0966 27.8023V6.38701ZM94.8127 27.4266V54.1017H101.548V29.6808L94.8127 27.4266Z" fill="white"/>
</g>
<defs>
<clipPath id="clip0_27_4760">
<rect width="116" height="133" fill="white" transform="translate(0.890137)"/>
</clipPath>
</defs>
</svg>
