<svg width="129" height="128" viewBox="0 0 129 128" fill="none" xmlns="http://www.w3.org/2000/svg">
<g clip-path="url(#clip0_27_4734)">
<rect x="0.890137" width="128" height="128" rx="24" fill="#2980FE"/>
<path d="M51.7397 54.8304H51.7561C51.7397 54.7321 51.7397 54.6175 51.7397 54.5192V54.8304Z" fill="#29AEFF"/>
<path d="M84.3405 57.9416H66.2964V90.5095C66.2964 92.0486 67.5408 93.2931 69.0799 93.2931H81.5569C83.0961 93.2931 84.3405 92.0486 84.3405 90.5095V57.9416Z" fill="white"/>
<path d="M57.5855 34.625H56.9796H24.6738C23.1345 34.625 21.8901 35.8694 21.8901 37.4086V48.7066C21.8901 50.2459 23.1345 51.4902 24.6738 51.4902H32.2549H35.2678V54.8305V90.5914C35.2678 92.1306 36.5121 93.375 38.0513 93.375H49.9061C51.4453 93.375 52.6896 92.1306 52.6896 90.5914V54.8305V54.5195V51.4902H55.7025H56.9305H57.5364C62.1866 51.4902 65.969 47.7079 65.969 43.0576C66.0181 38.4074 62.2358 34.625 57.5855 34.625Z" fill="white"/>
<path d="M84.3569 57.9416V80.6687C84.9792 80.8161 85.6177 80.9307 86.2727 81.029C87.1897 81.16 88.1393 81.2419 89.0891 81.2582C89.1382 81.2582 89.1873 81.2582 89.2528 81.2582V63.1813C86.5183 63.0011 84.3569 60.7251 84.3569 57.9416Z" fill="url(#paint0_linear_27_4734)"/>
<path d="M89.6129 34.625C76.743 34.625 66.2964 45.0716 66.2964 57.9416C66.2964 69.0105 74.0085 78.2781 84.3569 80.6687V57.9416C84.3569 55.0434 86.7148 52.6855 89.6129 52.6855C92.5111 52.6855 94.869 55.0434 94.869 57.9416C94.869 60.3814 93.2153 62.4281 90.9556 63.0175C90.5299 63.1321 90.0714 63.1976 89.6129 63.1976V81.2582C90.0714 81.2582 90.5135 81.2419 90.9556 81.2255C103.203 80.5214 112.93 70.3695 112.93 57.9416C112.946 45.0716 102.499 34.625 89.6129 34.625Z" fill="white"/>
<path d="M89.6126 81.2582V63.1976C89.4817 63.1976 89.3671 63.1976 89.2361 63.1813V81.2582C89.3671 81.2582 89.4981 81.2582 89.6126 81.2582Z" fill="white"/>
</g>
<defs>
<linearGradient id="paint0_linear_27_4734" x1="89.6206" y1="69.6034" x2="84.3592" y2="69.6034" gradientUnits="userSpaceOnUse">
<stop stop-color="white"/>
<stop offset="0.9667" stop-color="white" stop-opacity="0.3233"/>
<stop offset="1" stop-color="white" stop-opacity="0.3"/>
</linearGradient>
<clipPath id="clip0_27_4734">
<rect width="128" height="128" fill="white" transform="translate(0.890137)"/>
</clipPath>
</defs>
</svg>
