<svg width="129" height="128" viewBox="0 0 129 128" fill="none" xmlns="http://www.w3.org/2000/svg">
<path d="M41.5649 49.425C54.4399 36.85 75.3399 36.85 88.2149 49.425L89.7649 50.95C90.4149 51.575 90.4149 52.6 89.7649 53.225L84.4649 58.4C84.1399 58.725 83.6149 58.725 83.2899 58.4L81.1649 56.325C72.1649 47.55 57.6149 47.55 48.6149 56.325L46.3399 58.55C46.0149 58.875 45.4899 58.875 45.1649 58.55L39.8649 53.375C39.2149 52.75 39.2149 51.725 39.8649 51.1L41.5649 49.425ZM99.1899 60.125L103.915 64.725C104.565 65.35 104.565 66.375 103.915 67L82.6399 87.775C81.9899 88.4 80.9399 88.4 80.3149 87.775L65.2149 73.025C65.0649 72.875 64.7899 72.875 64.6399 73.025L49.5399 87.775C48.8899 88.4 47.8399 88.4 47.2149 87.775L25.8649 67C25.2149 66.375 25.2149 65.35 25.8649 64.725L30.5899 60.125C31.2399 59.5 32.2899 59.5 32.9149 60.125L48.0149 74.875C48.1649 75.025 48.4399 75.025 48.5899 74.875L63.6899 60.125C64.3399 59.5 65.3899 59.5 66.0149 60.125L81.1149 74.875C81.2649 75.025 81.5399 75.025 81.6899 74.875L96.7899 60.125C97.4899 59.5 98.5399 59.5 99.1899 60.125Z" fill="white"/>
</svg>
