<svg width="129" height="128" viewBox="0 0 129 128" fill="none" xmlns="http://www.w3.org/2000/svg">
<g clip-path="url(#clip0_27_4726)">
<path d="M64.8901 128C100.236 128 128.89 99.3462 128.89 64C128.89 28.6538 100.236 0 64.8901 0C29.5439 0 0.890137 28.6538 0.890137 64C0.890137 99.3462 29.5439 128 64.8901 128Z" fill="url(#paint0_radial_27_4726)"/>
<path d="M41.0776 49.4312C53.9526 36.8562 74.8526 36.8562 87.7276 49.4312L89.2776 50.9562C89.9276 51.5812 89.9276 52.6062 89.2776 53.2312L83.9776 58.4063C83.6526 58.7313 83.1276 58.7313 82.8026 58.4063L80.6776 56.3312C71.6776 47.5562 57.1276 47.5562 48.1276 56.3312L45.8526 58.5563C45.5276 58.8813 45.0026 58.8813 44.6776 58.5563L39.3776 53.3813C38.7276 52.7563 38.7276 51.7312 39.3776 51.1062L41.0776 49.4312ZM98.7026 60.1313L103.428 64.7312C104.078 65.3562 104.078 66.3813 103.428 67.0063L82.1526 87.7813C81.5026 88.4063 80.4526 88.4063 79.8276 87.7813L64.7276 73.0313C64.5776 72.8813 64.3026 72.8813 64.1526 73.0313L49.0526 87.7813C48.4026 88.4063 47.3526 88.4063 46.7276 87.7813L25.3776 67.0063C24.7276 66.3813 24.7276 65.3562 25.3776 64.7312L30.1026 60.1313C30.7526 59.5063 31.8026 59.5063 32.4276 60.1313L47.5276 74.8813C47.6776 75.0313 47.9526 75.0313 48.1026 74.8813L63.2026 60.1313C63.8526 59.5063 64.9026 59.5063 65.5276 60.1313L80.6276 74.8813C80.7776 75.0313 81.0526 75.0313 81.2026 74.8813L96.3026 60.1313C97.0026 59.5063 98.0526 59.5063 98.7026 60.1313Z" fill="white"/>
</g>
<defs>
<radialGradient id="paint0_radial_27_4726" cx="0" cy="0" r="1" gradientUnits="userSpaceOnUse" gradientTransform="translate(0.890533 64.002) scale(128)">
<stop stop-color="#5D9DF6"/>
<stop offset="1" stop-color="#006FFF"/>
</radialGradient>
<clipPath id="clip0_27_4726">
<rect width="128" height="128" fill="white" transform="translate(0.890137)"/>
</clipPath>
</defs>
</svg>
