<svg width="119" height="48" viewBox="0 0 119 48" fill="none" xmlns="http://www.w3.org/2000/svg">
<path fill-rule="evenodd" clip-rule="evenodd" d="M48.0505 24C48.0505 37.2548 37.294 48 24.0252 48C10.7565 48 0 37.2548 0 24C0 10.7452 10.7565 0 24.0252 0C12.5924 0 3.32425 9.25841 3.32425 20.6792C3.32425 32.1001 12.5924 41.3585 24.0252 41.3585C35.4581 41.3585 44.7262 32.1001 44.7262 20.6792C44.7262 9.25841 35.4581 0 24.0252 0C37.294 0 48.0505 10.7452 48.0505 24ZM24.0552 30.6224C27.7 30.6224 30.6546 27.6709 30.6546 24.03C30.6546 20.389 27.7 17.4375 24.0552 17.4375C20.4105 17.4375 17.4558 20.389 17.4558 24.03C17.4558 27.6709 20.4105 30.6224 24.0552 30.6224Z" fill="#FF4E64"/>
<path fill-rule="evenodd" clip-rule="evenodd" d="M57.0586 17.4375V2.4375H62.9597C64.0942 2.4375 65.0607 2.65479 65.8592 3.08936C66.6577 3.51904 67.2663 4.11719 67.685 4.88379C68.1086 5.64551 68.3204 6.52441 68.3204 7.52051C68.3204 8.5166 68.1062 9.39551 67.6777 10.1572C67.2493 10.9189 66.6285 11.5122 65.8154 11.937C65.0071 12.3618 64.0285 12.5742 62.8794 12.5742H60.221V17.4375H57.0586ZM62.3682 10.0327H60.221V5.03027H62.3536C62.967 5.03027 63.4734 5.13525 63.8727 5.34522C64.2719 5.55029 64.5689 5.84082 64.7637 6.2168C64.9633 6.58789 65.0631 7.02246 65.0631 7.52051C65.0631 8.01367 64.9633 8.45068 64.7637 8.83154C64.5689 9.20752 64.2719 9.50293 63.8727 9.71777C63.4783 9.92774 62.9768 10.0327 62.3682 10.0327ZM73.5759 17.4375V2.4375H70.1974V17.4375H73.5759ZM118.789 6.21403V8.51971H116.626V13.8804C116.626 14.1638 116.671 14.3848 116.761 14.5433C116.851 14.697 116.975 14.8051 117.135 14.8675C117.3 14.93 117.489 14.9612 117.704 14.9612C117.854 14.9612 118.003 14.9492 118.153 14.9252C118.303 14.8964 118.417 14.8747 118.497 14.8603L118.999 17.1444C118.839 17.1924 118.614 17.2477 118.325 17.3101C118.036 17.3774 117.684 17.4182 117.27 17.4326C116.501 17.4614 115.828 17.363 115.249 17.1372C114.675 16.9114 114.229 16.5608 113.909 16.0852C113.59 15.6097 113.433 15.0092 113.438 14.2839V8.51971H111.866V6.21403H113.438V3.5625H116.626V6.21403H118.789ZM105.689 17.4375C104.557 17.4375 103.582 17.2105 102.765 16.7565C101.953 16.2978 101.328 15.65 100.888 14.813C100.449 13.9712 100.229 12.9758 100.229 11.8267C100.229 10.7059 100.449 9.72234 100.888 8.87587C101.328 8.0294 101.946 7.36972 102.744 6.89683C103.546 6.42394 104.487 6.1875 105.567 6.1875C106.293 6.1875 106.969 6.30336 107.595 6.53507C108.225 6.76206 108.774 7.1049 109.243 7.5636C109.715 8.0223 110.083 8.59923 110.346 9.29437C110.609 9.98479 110.74 10.7934 110.74 11.7203V12.5502H103.245V12.5573C103.245 13.0964 103.346 13.5622 103.546 13.9547C103.752 14.3472 104.041 14.6498 104.413 14.8626C104.786 15.0754 105.228 15.1818 105.739 15.1818C106.078 15.1818 106.388 15.1345 106.67 15.04C106.952 14.9454 107.193 14.8035 107.394 14.6144C107.595 14.4252 107.747 14.1935 107.852 13.9192L110.675 14.1036C110.532 14.7751 110.238 15.3615 109.794 15.8628C109.355 16.3593 108.786 16.7471 108.089 17.0261C107.396 17.3004 106.596 17.4375 105.689 17.4375ZM107.867 10.6776H103.248C103.267 10.2863 103.368 9.9293 103.553 9.60648C103.754 9.25181 104.031 8.97044 104.385 8.76237C104.743 8.54957 105.154 8.44317 105.617 8.44317C106.061 8.44317 106.451 8.54012 106.785 8.734C107.124 8.92316 107.389 9.18561 107.58 9.52136C107.771 9.85711 107.867 10.2425 107.867 10.6776ZM90.8902 17.4375V11.0172C90.895 10.54 90.9833 10.1327 91.1551 9.79531C91.3316 9.45308 91.575 9.1928 91.8852 9.01446C92.2001 8.83612 92.5628 8.74695 92.9732 8.74695C93.584 8.74695 94.0636 8.93975 94.4119 9.32535C94.7603 9.70614 94.9321 10.2363 94.9273 10.916V17.4375H97.9766V10.3665C97.9766 9.5037 97.8191 8.76141 97.5042 8.13962C97.1892 7.51301 96.7478 7.03101 96.1799 6.6936C95.6121 6.3562 94.9464 6.1875 94.1829 6.1875C93.3669 6.1875 92.6725 6.37789 92.0999 6.75868C91.5273 7.13464 91.1193 7.64557 90.8759 8.29145H90.7471V6.3321H87.8409V17.4375H90.8902ZM79.0731 17.4375C78.3774 17.4375 77.7575 17.3168 77.2133 17.0755C76.6691 16.8295 76.2385 16.4675 75.9214 15.9896C75.6091 15.5069 75.4529 14.906 75.4529 14.1867C75.4529 13.581 75.5641 13.0724 75.7865 12.6607C76.009 12.249 76.3118 11.9178 76.6951 11.667C77.0784 11.4162 77.5138 11.2269 78.0012 11.0992C78.4934 10.9714 79.0092 10.8815 79.5487 10.8295C80.1828 10.7632 80.6939 10.7017 81.0819 10.6449C81.47 10.5834 81.7515 10.4935 81.9266 10.3752C82.1017 10.2569 82.1893 10.0818 82.1893 9.84996V9.80737C82.1893 9.35785 82.0473 9.01005 81.7634 8.764C81.4842 8.51794 81.0867 8.39491 80.5708 8.39491C80.0266 8.39491 79.5936 8.51558 79.2718 8.7569C78.95 8.99349 78.7371 9.2916 78.633 9.65122L75.8362 9.42409C75.9782 8.76163 76.2574 8.18908 76.6738 7.70643C77.0903 7.21905 77.6274 6.84523 78.2852 6.58498C78.9477 6.31999 79.7143 6.1875 80.585 6.1875C81.1908 6.1875 81.7705 6.25848 82.3241 6.40043C82.8825 6.54239 83.3771 6.76242 83.8077 7.06053C84.2431 7.35864 84.5861 7.74192 84.837 8.21037C85.0878 8.67409 85.2132 9.23009 85.2132 9.87835V17.2317H82.3454V15.7198H82.2602C82.0852 16.0605 81.8509 16.361 81.5575 16.6213C81.2641 16.8768 80.9116 17.0779 80.4999 17.2246C80.0882 17.3665 79.6126 17.4375 79.0731 17.4375ZM79.9391 15.3507C80.3839 15.3507 80.7767 15.2632 81.1174 15.0881C81.4581 14.9083 81.7255 14.667 81.9195 14.3642C82.1135 14.0613 82.2106 13.7183 82.2106 13.335V12.178C82.1159 12.2396 81.9858 12.2963 81.8202 12.3484C81.6593 12.3957 81.4771 12.4407 81.2736 12.4832C81.0701 12.5211 80.8666 12.5566 80.6631 12.5897C80.4596 12.6181 80.2751 12.6441 80.1094 12.6678C79.7545 12.7198 79.4446 12.8026 79.1796 12.9162C78.9146 13.0298 78.7087 13.1836 78.562 13.3776C78.4153 13.5668 78.342 13.8034 78.342 14.0873C78.342 14.499 78.491 14.8137 78.7891 15.0313C79.092 15.2443 79.4753 15.3507 79.9391 15.3507ZM76.2037 44.8125H80.9758L82.5383 39.9384H90.1434L91.7029 44.8125H96.475L89.2139 23.4375H83.475L76.2037 44.8125ZM89.0147 36.4107L86.4268 28.322H86.2622L83.6692 36.4107H89.0147ZM64.7868 44.8125H57.0586V23.4375H64.8506C67.0435 23.4375 68.9312 23.8654 70.5137 24.7213C72.0962 25.5701 73.3133 26.7913 74.1649 28.3846C75.0236 29.978 75.4529 31.8845 75.4529 34.1041C75.4529 36.3307 75.0236 38.2441 74.1649 39.8445C73.3133 41.4448 72.0891 42.6729 70.4924 43.5287C68.9028 44.3846 67.0009 44.8125 64.7868 44.8125ZM61.6678 40.9404H64.5952C65.9577 40.9404 67.1038 40.7038 68.0334 40.2307C68.9702 39.7505 69.6728 39.0095 70.1411 38.0076C70.6166 36.9987 70.8543 35.6975 70.8543 34.1041C70.8543 32.5247 70.6166 31.2339 70.1411 30.232C69.6728 29.23 68.9737 28.4925 68.0441 28.0193C67.1144 27.5462 65.9683 27.3096 64.6058 27.3096H61.6678V40.9404ZM107.925 45.5625C114.041 45.5625 118.999 40.6096 118.999 34.5C118.999 28.3904 114.041 23.4375 107.925 23.4375C101.808 23.4375 96.8504 28.3904 96.8504 34.5C96.8504 40.6096 101.808 45.5625 107.925 45.5625Z" fill="white"/>
</svg>
