<svg width="2026" height="1646" viewBox="0 0 2026 1646" fill="none" xmlns="http://www.w3.org/2000/svg">
    <path id="pinkCircle" d="M529.476 1091.05C650.52 1343.49 953.285 1450.01 1205.72 1328.96C1458.16 1207.92 1564.67 905.152 1443.63 652.712C1322.59 400.273 1019.82 293.757 767.385 414.801C514.948 535.846 408.433 838.614 529.476 1091.05Z" fill="url(#paint0_linear_118_148)"/>
    <path id="name" d="M792.395 1087.18H684.932L848.676 623.964H977.912L1141.42 1087.18H1033.96L915.147 729.817H911.441L792.395 1087.18ZM785.681 905.107H1039.52V981.556H785.681V905.107ZM1298.8 623.964V1087.18H1198.52V623.964H1298.8Z" fill="url(#paint1_linear_118_148)"/>
    <path id="blackCircle1" d="M1666.92 1355.3C1705.25 1435.24 1801.12 1468.97 1881.06 1430.63C1961 1392.3 1994.73 1296.43 1956.4 1216.49C1918.07 1136.55 1822.19 1102.81 1742.26 1141.15C1662.32 1179.48 1628.59 1275.36 1666.92 1355.3Z" fill="url(#paint2_linear_118_148)"/>
    <path id="blackCircle2" d="M1499.54 383.319C1537.87 463.259 1633.75 496.989 1713.68 458.658C1793.62 420.327 1827.35 324.449 1789.02 244.509C1750.69 164.569 1654.82 130.838 1574.88 169.169C1494.94 207.501 1461.21 303.379 1499.54 383.319Z" fill="url(#paint3_linear_118_148)"/>
    <path id="blackCircle3" d="M34.4646 649.22C53.1097 688.105 99.7465 704.513 138.631 685.867C177.515 667.222 193.922 620.585 175.277 581.7C156.632 542.815 109.996 526.408 71.1111 545.053C32.2268 563.698 15.8196 610.336 34.4646 649.22Z" fill="url(#paint4_linear_118_148)"/>
    <path id="blackCircle4" d="M464.976 1434.34C482.396 1470.67 525.968 1485.99 562.297 1468.57C598.626 1451.15 613.955 1407.58 596.536 1371.25C579.116 1334.92 535.543 1319.59 499.214 1337.01C462.885 1354.43 447.556 1398.01 464.976 1434.34Z" fill="url(#paint5_linear_118_148)"/>
    <path id="blackCircle5" d="M588.612 219.539C618.289 281.431 692.521 307.547 754.413 277.87C816.305 248.192 842.421 173.96 812.743 112.067C783.066 50.174 708.834 24.0584 646.942 53.736C585.05 83.4135 558.935 157.646 588.612 219.539Z" fill="url(#paint6_linear_118_148)"/>
    <path id="blackCircle6" d="M1090.57 1588.55C1105.78 1620.28 1143.84 1633.67 1175.57 1618.45C1207.29 1603.24 1220.68 1565.19 1205.47 1533.46C1190.25 1501.73 1152.2 1488.34 1120.47 1503.55C1088.75 1518.77 1075.36 1556.82 1090.57 1588.55Z" fill="url(#paint7_linear_118_148)"/>
    <defs>
    <linearGradient id="paint0_linear_118_148" x1="1443.63" y1="652.712" x2="529.473" y2="1091.05" gradientUnits="userSpaceOnUse">
    <stop stop-color="#E3B6FF"/>
    <stop offset="1" stop-color="#E6007A"/>
    </linearGradient>
    <linearGradient id="paint1_linear_118_148" x1="991.867" y1="623.964" x2="991.867" y2="1087.18" gradientUnits="userSpaceOnUse">
    <stop stop-color="white"/>
    <stop offset="1" stop-color="#E3A5F3"/>
    </linearGradient>
    <linearGradient id="paint2_linear_118_148" x1="1956.4" y1="1216.48" x2="1666.92" y2="1355.29" gradientUnits="userSpaceOnUse">
    <stop stop-color="#B1B1B1"/>
    <stop offset="1"/>
    </linearGradient>
    <linearGradient id="paint3_linear_118_148" x1="1789.02" y1="244.509" x2="1499.54" y2="383.316" gradientUnits="userSpaceOnUse">
    <stop stop-color="#B1B1B1"/>
    <stop offset="1"/>
    </linearGradient>
    <linearGradient id="paint4_linear_118_148" x1="175.278" y1="581.7" x2="34.4651" y2="649.219" gradientUnits="userSpaceOnUse">
    <stop stop-color="#B1B1B1"/>
    <stop offset="1"/>
    </linearGradient>
    <linearGradient id="paint5_linear_118_148" x1="596.536" y1="1371.25" x2="464.977" y2="1434.33" gradientUnits="userSpaceOnUse">
    <stop stop-color="#B1B1B1"/>
    <stop offset="1"/>
    </linearGradient>
    <linearGradient id="paint6_linear_118_148" x1="812.743" y1="112.067" x2="588.611" y2="219.537" gradientUnits="userSpaceOnUse">
    <stop stop-color="#B1B1B1"/>
    <stop offset="1"/>
    </linearGradient>
    <linearGradient id="paint7_linear_118_148" x1="1205.47" y1="1533.46" x2="1090.57" y2="1588.55" gradientUnits="userSpaceOnUse">
    <stop stop-color="#B1B1B1"/>
    <stop offset="1"/>
    </linearGradient>
    </defs>

    <style type="text/css">
        @keyframes shrink {
            0%, 100% { transform: scale(1); }
            50% { transform: scale(0.95); }
        }

        #circlePink, #name {
            animation: shrink 5s infinite alternate ease-in-out;
        }

        @keyframes moveAround1 {
            0%, 100% { transform: translate(0, 0); }
            25% { transform: translate(-2%, 0); } 50% { transform: translate(-2%, -2%); } 75% { transform: translate(0, -2%); }
        }

        #blackCircle1 {
            animation: moveAround1 5s infinite alternate ease-in-out;
        }
        
        @keyframes moveAround2 {
            0%, 100% { transform: translate(0, 0); }
            25% { transform: translate(3%, 0); } 50% { transform: translate(-2%, -2%); } 75% { transform: translate(0, -2%); }
        }

        #blackCircle2 {
            animation: moveAround2 5s infinite alternate ease-in-out;
        }
        
        @keyframes moveAround3 {
            0%, 100% { transform: translate(0, 0); }
            25% { transform: translate(6%, 6%); } 50% { transform: translate(0%, 0%); } 75% { transform: translate(0, 5%); }
        }

        #blackCircle3 {
            animation: moveAround3 5s infinite alternate ease-in-out;
        }
        
        @keyframes moveAround4 {
            0%, 100% { transform: translate(0, 0); }
            25% { transform: translate(0, -5%); } 50% { transform: translate(5%, -5%); } 75% { transform: translate(5%, 0); }
        }

        #blackCircle4 {
            animation: moveAround4 5s infinite alternate ease-in-out;
        }
        
        @keyframes moveAround5 {
            0%, 100% { transform: translate(0, 0); }
            25% { transform: translate(-2%, -2%); } 50% { transform: translate(0, -2%); } 75% { transform: translate(0, 0); }
        }

        #blackCircle5 {
            animation: moveAround5 5s infinite alternate ease-in-out;
        }
        
        @keyframes moveAround6 {
            0%, 100% { transform: translate(0, 0); }
            25% { transform: translate(5%, -5%); } 50% { transform: translate(0, -4%); } 75% { transform: translate(0, 0); }
        }

        #blackCircle6 {
            animation: moveAround6 5s infinite alternate ease-in-out;
        }
        </style>
</svg>
